#N canvas 426 422 437 470 10;
#X obj 92 75 inlet;
#X obj 254 75 inlet;
#X obj 174 199 array size;
#N canvas 0 22 577 494 \$0-args 0;
#X obj 49 49 inlet;
#X obj 49 382 outlet;
#X obj 219 382 outlet;
#X msg 49 75 \$1 \$1;
#X obj 219 354 r \$0-noarg;
#X obj 49 354 r \$0-thisarg;
#N canvas 0 22 254 277 \$0-test-1 0;
#X obj 41 46 inlet;
#X obj 113 102 makefilename $%d-;
#X obj 41 75 t b f;
#X obj 41 102 symbol \$1-;
#X obj 41 130 sel s;
#X obj 68 153 b;
#X obj 68 176 list append \$1;
#X obj 41 222 s \$0-noarg;
#X obj 68 200 s \$0-thisarg;
#X connect 0 0 2 0;
#X connect 1 0 4 1;
#X connect 2 0 3 0;
#X connect 2 1 1 0;
#X connect 3 0 4 0;
#X connect 4 0 7 0;
#X connect 4 1 5 0;
#X connect 5 0 6 0;
#X connect 6 0 8 0;
#X restore 49 326 pd \$0-test-1;
#N canvas 0 22 254 277 \$0-test-2 0;
#X obj 41 46 inlet;
#X obj 113 102 makefilename $%d-;
#X obj 41 75 t b f;
#X obj 41 130 sel s;
#X obj 68 153 b;
#X obj 41 222 s \$0-noarg;
#X obj 68 200 s \$0-thisarg;
#X obj 41 102 symbol \$2-;
#X obj 68 176 list append \$2;
#X connect 0 0 2 0;
#X connect 1 0 3 1;
#X connect 2 0 7 0;
#X connect 2 1 1 0;
#X connect 3 0 5 0;
#X connect 3 1 4 0;
#X connect 4 0 8 0;
#X connect 7 0 3 0;
#X connect 8 0 6 0;
#X restore 64 304 pd \$0-test-2;
#N canvas 0 22 254 277 \$0-test-3 0;
#X obj 41 46 inlet;
#X obj 113 102 makefilename $%d-;
#X obj 41 75 t b f;
#X obj 41 130 sel s;
#X obj 68 153 b;
#X obj 41 222 s \$0-noarg;
#X obj 68 200 s \$0-thisarg;
#X obj 41 102 symbol \$3-;
#X obj 68 176 list append \$3;
#X connect 0 0 2 0;
#X connect 1 0 3 1;
#X connect 2 0 7 0;
#X connect 2 1 1 0;
#X connect 3 0 5 0;
#X connect 3 1 4 0;
#X connect 4 0 8 0;
#X connect 7 0 3 0;
#X connect 8 0 6 0;
#X restore 79 283 pd \$0-test-3;
#N canvas 0 22 254 277 \$0-test-4 0;
#X obj 41 46 inlet;
#X obj 113 102 makefilename $%d-;
#X obj 41 75 t b f;
#X obj 41 130 sel s;
#X obj 68 153 b;
#X obj 41 222 s \$0-noarg;
#X obj 68 200 s \$0-thisarg;
#X obj 41 102 symbol \$4-;
#X obj 68 176 list append \$4;
#X connect 0 0 2 0;
#X connect 1 0 3 1;
#X connect 2 0 7 0;
#X connect 2 1 1 0;
#X connect 3 0 5 0;
#X connect 3 1 4 0;
#X connect 4 0 8 0;
#X connect 7 0 3 0;
#X connect 8 0 6 0;
#X restore 94 261 pd \$0-test-4;
#N canvas 0 22 254 277 \$0-test-5 0;
#X obj 41 46 inlet;
#X obj 113 102 makefilename $%d-;
#X obj 41 75 t b f;
#X obj 41 130 sel s;
#X obj 68 153 b;
#X obj 41 222 s \$0-noarg;
#X obj 68 200 s \$0-thisarg;
#X obj 41 102 symbol \$5-;
#X obj 68 176 list append \$5;
#X connect 0 0 2 0;
#X connect 1 0 3 1;
#X connect 2 0 7 0;
#X connect 2 1 1 0;
#X connect 3 0 5 0;
#X connect 3 1 4 0;
#X connect 4 0 8 0;
#X connect 7 0 3 0;
#X connect 8 0 6 0;
#X restore 110 239 pd \$0-test-5;
#N canvas 0 22 254 277 \$0-test-6 0;
#X obj 41 46 inlet;
#X obj 113 102 makefilename $%d-;
#X obj 41 75 t b f;
#X obj 41 130 sel s;
#X obj 68 153 b;
#X obj 41 222 s \$0-noarg;
#X obj 68 200 s \$0-thisarg;
#X obj 41 102 symbol \$6-;
#X obj 68 176 list append \$6;
#X connect 0 0 2 0;
#X connect 1 0 3 1;
#X connect 2 0 7 0;
#X connect 2 1 1 0;
#X connect 3 0 5 0;
#X connect 3 1 4 0;
#X connect 4 0 8 0;
#X connect 7 0 3 0;
#X connect 8 0 6 0;
#X restore 125 217 pd \$0-test-6;
#N canvas 0 22 254 277 \$0-test-7 0;
#X obj 41 46 inlet;
#X obj 113 102 makefilename $%d-;
#X obj 41 75 t b f;
#X obj 41 130 sel s;
#X obj 68 153 b;
#X obj 41 222 s \$0-noarg;
#X obj 68 200 s \$0-thisarg;
#X obj 41 102 symbol \$7-;
#X obj 68 176 list append \$7;
#X connect 0 0 2 0;
#X connect 1 0 3 1;
#X connect 2 0 7 0;
#X connect 2 1 1 0;
#X connect 3 0 5 0;
#X connect 3 1 4 0;
#X connect 4 0 8 0;
#X connect 7 0 3 0;
#X connect 8 0 6 0;
#X restore 140 195 pd \$0-test-7;
#N canvas 0 22 254 277 \$0-test-8 0;
#X obj 41 46 inlet;
#X obj 113 102 makefilename $%d-;
#X obj 41 75 t b f;
#X obj 41 130 sel s;
#X obj 68 153 b;
#X obj 41 222 s \$0-noarg;
#X obj 68 200 s \$0-thisarg;
#X obj 41 102 symbol \$8-;
#X obj 68 176 list append \$8;
#X connect 0 0 2 0;
#X connect 1 0 3 1;
#X connect 2 0 7 0;
#X connect 2 1 1 0;
#X connect 3 0 5 0;
#X connect 3 1 4 0;
#X connect 4 0 8 0;
#X connect 7 0 3 0;
#X connect 8 0 6 0;
#X restore 156 173 pd \$0-test-8;
#X obj 49 101 route 1 2 3 4 5 6 7 8 9 10;
#N canvas 0 22 254 277 \$0-test-9 0;
#X obj 41 46 inlet;
#X obj 113 102 makefilename $%d-;
#X obj 41 75 t b f;
#X obj 41 130 sel s;
#X obj 68 153 b;
#X obj 41 222 s \$0-noarg;
#X obj 68 200 s \$0-thisarg;
#X obj 41 102 symbol \$9-;
#X obj 68 176 list append \$9;
#X connect 0 0 2 0;
#X connect 1 0 3 1;
#X connect 2 0 7 0;
#X connect 2 1 1 0;
#X connect 3 0 5 0;
#X connect 3 1 4 0;
#X connect 4 0 8 0;
#X connect 7 0 3 0;
#X connect 8 0 6 0;
#X restore 171 151 pd \$0-test-9;
#N canvas 0 22 254 277 \$0-test-10 0;
#X obj 41 46 inlet;
#X obj 113 102 makefilename $%d-;
#X obj 41 75 t b f;
#X obj 41 130 sel s;
#X obj 68 153 b;
#X obj 41 222 s \$0-noarg;
#X obj 68 200 s \$0-thisarg;
#X obj 41 102 symbol \$10-;
#X obj 68 176 list append \$10;
#X connect 0 0 2 0;
#X connect 1 0 3 1;
#X connect 2 0 7 0;
#X connect 2 1 1 0;
#X connect 3 0 5 0;
#X connect 3 1 4 0;
#X connect 4 0 8 0;
#X connect 7 0 3 0;
#X connect 8 0 6 0;
#X restore 186 129 pd \$0-test-10;
#X text 42 419 argument if it exists;
#X text 216 419 bang if it doesn't;
#X text 194 35 This subpatch tests for the presence of up to 10 creation
arguments. After IOhannes Zmölnig.;
#X text 46 27 argument number;
#X connect 0 0 3 0;
#X connect 3 0 14 0;
#X connect 4 0 2 0;
#X connect 5 0 1 0;
#X connect 14 0 6 0;
#X connect 14 1 7 0;
#X connect 14 2 8 0;
#X connect 14 3 9 0;
#X connect 14 4 10 0;
#X connect 14 5 11 0;
#X connect 14 6 12 0;
#X connect 14 7 13 0;
#X connect 14 8 15 0;
#X connect 14 9 16 0;
#X restore 278 154 pd \$0-args;
#X obj 278 105 loadbang;
#X msg 278 129 1;
#X obj 92 142 t f b;
#X obj 137 369 outlet;
#X obj 92 199 moses 0, f 8;
#X obj 92 240 +;
#X text 93 399 2015 Matt Barber;
#X obj 254 242 list prepend set;
#X obj 254 276 list trim;
#X obj 92 101 list split 1;
#X obj 168 142 route bang;
#N canvas 45 472 346 293 \$0-hermite 0;
#X obj 57 38 inlet;
#X obj 137 38 inlet;
#X obj 257 38 inlet;
#X obj 57 227 outlet;
#X obj 72 80 - 2;
#X obj 57 106 min;
#X obj 57 131 max 1;
#X obj 257 66 s \$0-set;
#N canvas 307 429 544 598 \$0-get 0;
#X obj 50 22 inlet;
#X obj 50 522 outlet;
#X obj 124 75 int;
#X obj 109 113 -;
#X obj 100 396 tabread;
#X obj 122 371 r \$0-set;
#X obj 400 396 tabread;
#X obj 422 371 r \$0-set;
#X obj 200 396 tabread;
#X obj 222 371 r \$0-set;
#X obj 300 396 tabread;
#X obj 322 371 r \$0-set;
#X obj 106 187 s \$0-i1;
#X obj 86 210 s \$0-i2;
#X obj 200 346 + 1;
#X obj 400 346 - 1;
#X obj 100 346 + 2;
#X obj 67 164 t f f f;
#X obj 67 232 s \$0-i3;
#X obj 300 442 s \$0-b;
#X obj 400 320 r \$0-i1;
#X obj 300 320 r \$0-i1;
#X obj 200 320 r \$0-i2;
#X obj 100 320 r \$0-i3;
#X obj 400 442 s \$0-a;
#X obj 200 442 s \$0-c;
#X obj 100 442 s \$0-d;
#X obj 50 47 t b b f f;
#X obj 67 113 f;
#X obj 109 136 s \$0-fr;
#X connect 0 0 27 0;
#X connect 2 0 3 1;
#X connect 2 0 28 1;
#X connect 3 0 29 0;
#X connect 4 0 26 0;
#X connect 5 0 4 0;
#X connect 6 0 24 0;
#X connect 7 0 6 0;
#X connect 8 0 25 0;
#X connect 9 0 8 0;
#X connect 10 0 19 0;
#X connect 11 0 10 0;
#X connect 14 0 8 0;
#X connect 15 0 6 0;
#X connect 16 0 4 0;
#X connect 17 0 18 0;
#X connect 17 1 13 0;
#X connect 17 2 12 0;
#X connect 20 0 15 0;
#X connect 21 0 10 0;
#X connect 22 0 14 0;
#X connect 23 0 16 0;
#X connect 27 0 1 0;
#X connect 27 1 28 0;
#X connect 27 2 3 0;
#X connect 27 3 2 0;
#X connect 28 0 17 0;
#X restore 57 157 pd \$0-get;
#N canvas 713 107 515 721 \$0-calc 0;
#X obj 50 72 inlet;
#X obj 50 656 outlet;
#X obj 132 383 *;
#X obj 65 118 r \$0-b;
#X obj 50 146 f;
#X obj 132 96 r \$0-d;
#X obj 147 120 r \$0-a;
#X obj 132 213 -;
#X obj 197 175 * 1.5;
#X obj 132 242 t f f;
#X obj 132 472 *;
#X obj 312 379 r \$0-c;
#X obj 327 408 r \$0-a;
#X obj 312 434 -;
#X obj 132 575 *;
#X obj 132 514 +;
#X obj 50 622 +;
#X obj 132 146 -;
#X obj 132 175 * 0.5;
#X obj 197 146 -;
#X obj 197 96 r \$0-c;
#X obj 212 120 r \$0-b;
#X obj 237 216 r \$0-c;
#X obj 252 240 r \$0-a;
#X obj 237 266 +;
#X obj 216 356 swap;
#X obj 237 328 -;
#X obj 312 240 r \$0-b;
#X obj 237 292 * 0.5;
#X obj 222 383 -;
#X obj 132 414 +;
#X obj 312 470 * 0.5;
#X text 75 148 <- C0;
#X text 73 383 C3*f ->;
#X text 171 216 <- C3;
#X text 254 388 <- C2;
#X text 357 469 <- C1;
#X text 272 22 out = C0 + C1*f + C2*f^2 + C3*f^3 \; \; C3 = 0.5*(d-a)
- 1.5*(c-b) \; C2 = 0.5*(c+a) - b - C3 \; C1 = 0.5*(c-a) \; C0 = b
;
#X obj 147 356 r \$0-fr;
#X obj 147 442 r \$0-fr;
#X obj 147 545 r \$0-fr;
#X text 169 415 <- C2 + C3*fr;
#X text 169 473 <- C2*fr + C3*fr^2;
#X text 169 515 <- C1 + C2*fr + C3*fr^2;
#X text 169 575 <- C1*fr + C2*fr^2 + C3*fr^3;
#X text 80 623 <- C0 + C1*fr + C2*fr^2 + C3*fr^3;
#X connect 0 0 4 0;
#X connect 2 0 30 0;
#X connect 3 0 4 1;
#X connect 4 0 16 0;
#X connect 5 0 17 0;
#X connect 6 0 17 1;
#X connect 7 0 9 0;
#X connect 8 0 7 1;
#X connect 9 0 2 0;
#X connect 9 1 25 0;
#X connect 10 0 15 0;
#X connect 11 0 13 0;
#X connect 12 0 13 1;
#X connect 13 0 31 0;
#X connect 14 0 16 1;
#X connect 15 0 14 0;
#X connect 16 0 1 0;
#X connect 17 0 18 0;
#X connect 18 0 7 0;
#X connect 19 0 8 0;
#X connect 20 0 19 0;
#X connect 21 0 19 1;
#X connect 22 0 24 0;
#X connect 23 0 24 1;
#X connect 24 0 28 0;
#X connect 25 0 29 0;
#X connect 25 1 29 1;
#X connect 26 0 25 1;
#X connect 27 0 26 1;
#X connect 28 0 26 0;
#X connect 29 0 30 1;
#X connect 30 0 10 0;
#X connect 31 0 15 1;
#X connect 38 0 2 1;
#X connect 39 0 10 1;
#X connect 40 0 14 1;
#X restore 57 197 pd \$0-calc;
#X connect 0 0 5 0;
#X connect 1 0 4 0;
#X connect 2 0 7 0;
#X connect 4 0 5 1;
#X connect 5 0 6 0;
#X connect 6 0 8 0;
#X connect 8 0 9 0;
#X connect 9 0 3 0;
#X restore 137 342 pd \$0-hermite;
#X obj 254 182 t a b;
#X msg 194 246 0;
#X obj 92 277 spigot;
#X connect 0 0 13 0;
#X connect 1 0 16 0;
#X connect 2 0 9 1;
#X connect 2 0 15 1;
#X connect 2 0 18 1;
#X connect 3 0 16 0;
#X connect 4 0 5 0;
#X connect 5 0 3 0;
#X connect 6 0 8 0;
#X connect 6 1 2 0;
#X connect 8 0 9 0;
#X connect 8 1 15 0;
#X connect 9 0 18 0;
#X connect 11 0 12 0;
#X connect 12 0 15 2;
#X connect 13 0 6 0;
#X connect 13 1 14 0;
#X connect 13 2 6 0;
#X connect 14 1 16 0;
#X connect 15 0 7 0;
#X connect 16 0 2 1;
#X connect 16 0 11 0;
#X connect 16 1 17 0;
#X connect 17 0 18 1;
#X connect 18 0 15 0;
