#N canvas 905 425 788 430 10;
#X obj 406 50 loadbang;
#X obj 406 227 until;
#X obj 406 200 t f b;
#X msg 510 247 0;
#X obj 495 277 f;
#X obj 530 277 + 1;
#X text 592 145 <- click to open;
#X obj 372 50 bng 15 250 50 0 empty empty empty 17 7 0 10 -262144 -1
-1;
#X text 224 48 click to repopulate ->;
#X obj 406 321 random 11;
#X obj 406 251 t b b;
#X msg 106 148 5;
#X obj 84 227 print index;
#X msg 143 148 20;
#X floatatom 84 128 5 0 10 0 - - -, f 5;
#X floatatom 101 205 5 0 0 0 - - -, f 5;
#X msg 420 84 resize 30 \, bounds 0 10 29 0 \, xlabel 0 1 2 3 4 5 6
7 8 9 10 11 12 13 14 15 16 17 18 19 20 21 22 23 24 25 26 27 28 29 \,
xticks 0 1 1 \, ylabel 0 1 2 3 4 5 6 7 8 9 10 \, yticks 0 1 1;
#X obj 420 146 array define find-help;
#X obj 406 175 array size find-help;
#X obj 406 352 tabwrite find-help;
#X obj 213 227 print how-many;
#X obj 213 143 hradio 15 1 0 3 empty empty empty 0 -8 0 10 -262144
-1 -1 0;
#X text 212 81 symbol: array name \; 0: find all instances \; 1: find
first instance \; 2: find last instance \;;
#X msg 271 143 symbol find-other;
#X msg 262 167 symbol find-help;
#X msg 261 187 susan;
#X obj 84 177 array-find find-help 0;
#X connect 0 0 16 0;
#X connect 0 0 18 0;
#X connect 1 0 10 0;
#X connect 2 0 1 0;
#X connect 2 1 3 0;
#X connect 3 0 4 1;
#X connect 4 0 5 0;
#X connect 4 0 19 1;
#X connect 5 0 4 1;
#X connect 7 0 18 0;
#X connect 9 0 19 0;
#X connect 10 0 9 0;
#X connect 10 1 4 0;
#X connect 11 0 26 0;
#X connect 13 0 26 0;
#X connect 14 0 26 0;
#X connect 16 0 17 0;
#X connect 18 0 2 0;
#X connect 21 0 26 1;
#X connect 23 0 26 1;
#X connect 24 0 26 1;
#X connect 25 0 26 1;
#X connect 26 0 12 0;
#X connect 26 0 15 0;
#X connect 26 1 20 0;
