#N canvas 942 315 788 430 10;
#X obj 406 50 loadbang;
#X obj 406 227 until;
#X obj 406 200 t f b;
#X msg 510 247 0;
#X obj 495 277 f;
#X obj 530 277 + 1;
#X text 592 145 <- click to open;
#X obj 372 50 bng 15 250 50 0 empty empty empty 17 7 0 10 -262144 -1
-1;
#X text 224 48 click to repopulate ->;
#X obj 406 321 random 11;
#X obj 406 251 t b b;
#X msg 106 108 5;
#X obj 84 187 print index;
#X obj 274 160 bng 15 250 50 0 empty empty empty 17 7 0 10 -262144
-1 -1;
#X msg 143 108 20;
#X floatatom 84 88 5 0 10 0 - - -, f 5;
#X obj 261 187 print not-found;
#X obj 420 146 array define findlast-help;
#X obj 406 175 array size findlast-help;
#X obj 406 352 tabwrite findlast-help;
#X obj 84 137 array-findlast findlast-help;
#X msg 420 84 resize 30 \, bounds 0 10 29 0 \, xlabel 0 1 2 3 4 5 6
7 8 9 10 11 12 13 14 15 16 17 18 19 20 21 22 23 24 25 26 27 28 29 \,
xticks 0 1 1 \, ylabel 0 1 2 3 4 5 6 7 8 9 10 \, yticks 0 1 1;
#X connect 0 0 21 0;
#X connect 0 0 18 0;
#X connect 1 0 10 0;
#X connect 2 0 1 0;
#X connect 2 1 3 0;
#X connect 3 0 4 1;
#X connect 4 0 5 0;
#X connect 4 0 19 1;
#X connect 5 0 4 1;
#X connect 7 0 18 0;
#X connect 9 0 19 0;
#X connect 10 0 9 0;
#X connect 10 1 4 0;
#X connect 11 0 20 0;
#X connect 14 0 20 0;
#X connect 15 0 20 0;
#X connect 18 0 2 0;
#X connect 20 0 12 0;
#X connect 20 1 13 0;
#X connect 20 1 16 0;
#X connect 21 0 17 0;
