#N canvas 114 508 474 537 10;
#X obj 144 63 inlet;
#X obj 265 63 inlet;
#X obj 380 63 inlet;
#X obj 104 445 outlet;
#X obj 269 445 outlet;
#X obj 144 122 pack 0 0 1;
#X obj 248 180 moses 0;
#X obj 144 151 list split 2;
#X obj 144 239 list prepend;
#X obj 104 301 unpack 0 0;
#X obj 212 301 unpack 0 0;
#X obj 212 326 -;
#X obj 212 350 + 1;
#X text 80 496 2015 Matt Barber;
#X obj 358 448 outlet;
#X obj 104 327 +;
#X obj 104 350 - 1;
#X msg 248 206 1;
#X msg 287 206 -1;
#X obj 144 271 route -1 1;
#X connect 0 0 5 0;
#X connect 1 0 5 1;
#X connect 2 0 5 2;
#X connect 5 0 7 0;
#X connect 6 0 17 0;
#X connect 6 1 18 0;
#X connect 7 0 8 0;
#X connect 7 1 6 0;
#X connect 8 0 19 0;
#X connect 9 0 15 0;
#X connect 9 1 4 0;
#X connect 9 1 15 1;
#X connect 10 0 11 0;
#X connect 10 1 11 1;
#X connect 10 1 4 0;
#X connect 11 0 12 0;
#X connect 12 0 3 0;
#X connect 15 0 16 0;
#X connect 16 0 3 0;
#X connect 17 0 8 1;
#X connect 17 0 14 0;
#X connect 18 0 8 1;
#X connect 18 0 14 0;
#X connect 19 0 9 0;
#X connect 19 1 10 0;
