#N canvas 171 22 1024 1035 10;
#N canvas 0 22 577 494 \$0-args 0;
#X obj 49 49 inlet;
#X obj 49 382 outlet;
#X obj 219 382 outlet;
#X msg 49 75 \$1 \$1;
#X obj 219 354 r \$0-noarg;
#X obj 49 354 r \$0-thisarg;
#N canvas 0 22 254 277 \$0-test-1 0;
#X obj 41 46 inlet;
#X obj 113 102 makefilename $%d-;
#X obj 41 75 t b f;
#X obj 41 102 symbol \$1-;
#X obj 41 130 sel s;
#X obj 68 153 b;
#X obj 68 176 list append \$1;
#X obj 41 222 s \$0-noarg;
#X obj 68 200 s \$0-thisarg;
#X connect 0 0 2 0;
#X connect 1 0 4 1;
#X connect 2 0 3 0;
#X connect 2 1 1 0;
#X connect 3 0 4 0;
#X connect 4 0 7 0;
#X connect 4 1 5 0;
#X connect 5 0 6 0;
#X connect 6 0 8 0;
#X restore 49 326 pd \$0-test-1;
#N canvas 0 22 254 277 \$0-test-2 0;
#X obj 41 46 inlet;
#X obj 113 102 makefilename $%d-;
#X obj 41 75 t b f;
#X obj 41 130 sel s;
#X obj 68 153 b;
#X obj 41 222 s \$0-noarg;
#X obj 68 200 s \$0-thisarg;
#X obj 41 102 symbol \$2-;
#X obj 68 176 list append \$2;
#X connect 0 0 2 0;
#X connect 1 0 3 1;
#X connect 2 0 7 0;
#X connect 2 1 1 0;
#X connect 3 0 5 0;
#X connect 3 1 4 0;
#X connect 4 0 8 0;
#X connect 7 0 3 0;
#X connect 8 0 6 0;
#X restore 64 304 pd \$0-test-2;
#N canvas 0 22 254 277 \$0-test-3 0;
#X obj 41 46 inlet;
#X obj 113 102 makefilename $%d-;
#X obj 41 75 t b f;
#X obj 41 130 sel s;
#X obj 68 153 b;
#X obj 41 222 s \$0-noarg;
#X obj 68 200 s \$0-thisarg;
#X obj 41 102 symbol \$3-;
#X obj 68 176 list append \$3;
#X connect 0 0 2 0;
#X connect 1 0 3 1;
#X connect 2 0 7 0;
#X connect 2 1 1 0;
#X connect 3 0 5 0;
#X connect 3 1 4 0;
#X connect 4 0 8 0;
#X connect 7 0 3 0;
#X connect 8 0 6 0;
#X restore 79 283 pd \$0-test-3;
#N canvas 0 22 254 277 \$0-test-4 0;
#X obj 41 46 inlet;
#X obj 113 102 makefilename $%d-;
#X obj 41 75 t b f;
#X obj 41 130 sel s;
#X obj 68 153 b;
#X obj 41 222 s \$0-noarg;
#X obj 68 200 s \$0-thisarg;
#X obj 41 102 symbol \$4-;
#X obj 68 176 list append \$4;
#X connect 0 0 2 0;
#X connect 1 0 3 1;
#X connect 2 0 7 0;
#X connect 2 1 1 0;
#X connect 3 0 5 0;
#X connect 3 1 4 0;
#X connect 4 0 8 0;
#X connect 7 0 3 0;
#X connect 8 0 6 0;
#X restore 94 261 pd \$0-test-4;
#N canvas 0 22 254 277 \$0-test-5 0;
#X obj 41 46 inlet;
#X obj 113 102 makefilename $%d-;
#X obj 41 75 t b f;
#X obj 41 130 sel s;
#X obj 68 153 b;
#X obj 41 222 s \$0-noarg;
#X obj 68 200 s \$0-thisarg;
#X obj 41 102 symbol \$5-;
#X obj 68 176 list append \$5;
#X connect 0 0 2 0;
#X connect 1 0 3 1;
#X connect 2 0 7 0;
#X connect 2 1 1 0;
#X connect 3 0 5 0;
#X connect 3 1 4 0;
#X connect 4 0 8 0;
#X connect 7 0 3 0;
#X connect 8 0 6 0;
#X restore 110 239 pd \$0-test-5;
#N canvas 0 22 254 277 \$0-test-6 0;
#X obj 41 46 inlet;
#X obj 113 102 makefilename $%d-;
#X obj 41 75 t b f;
#X obj 41 130 sel s;
#X obj 68 153 b;
#X obj 41 222 s \$0-noarg;
#X obj 68 200 s \$0-thisarg;
#X obj 41 102 symbol \$6-;
#X obj 68 176 list append \$6;
#X connect 0 0 2 0;
#X connect 1 0 3 1;
#X connect 2 0 7 0;
#X connect 2 1 1 0;
#X connect 3 0 5 0;
#X connect 3 1 4 0;
#X connect 4 0 8 0;
#X connect 7 0 3 0;
#X connect 8 0 6 0;
#X restore 125 217 pd \$0-test-6;
#N canvas 0 22 254 277 \$0-test-7 0;
#X obj 41 46 inlet;
#X obj 113 102 makefilename $%d-;
#X obj 41 75 t b f;
#X obj 41 130 sel s;
#X obj 68 153 b;
#X obj 41 222 s \$0-noarg;
#X obj 68 200 s \$0-thisarg;
#X obj 41 102 symbol \$7-;
#X obj 68 176 list append \$7;
#X connect 0 0 2 0;
#X connect 1 0 3 1;
#X connect 2 0 7 0;
#X connect 2 1 1 0;
#X connect 3 0 5 0;
#X connect 3 1 4 0;
#X connect 4 0 8 0;
#X connect 7 0 3 0;
#X connect 8 0 6 0;
#X restore 140 195 pd \$0-test-7;
#N canvas 0 22 254 277 \$0-test-8 0;
#X obj 41 46 inlet;
#X obj 113 102 makefilename $%d-;
#X obj 41 75 t b f;
#X obj 41 130 sel s;
#X obj 68 153 b;
#X obj 41 222 s \$0-noarg;
#X obj 68 200 s \$0-thisarg;
#X obj 41 102 symbol \$8-;
#X obj 68 176 list append \$8;
#X connect 0 0 2 0;
#X connect 1 0 3 1;
#X connect 2 0 7 0;
#X connect 2 1 1 0;
#X connect 3 0 5 0;
#X connect 3 1 4 0;
#X connect 4 0 8 0;
#X connect 7 0 3 0;
#X connect 8 0 6 0;
#X restore 156 173 pd \$0-test-8;
#X obj 49 101 route 1 2 3 4 5 6 7 8 9 10;
#N canvas 0 22 254 277 \$0-test-9 0;
#X obj 41 46 inlet;
#X obj 113 102 makefilename $%d-;
#X obj 41 75 t b f;
#X obj 41 130 sel s;
#X obj 68 153 b;
#X obj 41 222 s \$0-noarg;
#X obj 68 200 s \$0-thisarg;
#X obj 41 102 symbol \$9-;
#X obj 68 176 list append \$9;
#X connect 0 0 2 0;
#X connect 1 0 3 1;
#X connect 2 0 7 0;
#X connect 2 1 1 0;
#X connect 3 0 5 0;
#X connect 3 1 4 0;
#X connect 4 0 8 0;
#X connect 7 0 3 0;
#X connect 8 0 6 0;
#X restore 171 151 pd \$0-test-9;
#N canvas 0 22 254 277 \$0-test-10 0;
#X obj 41 46 inlet;
#X obj 113 102 makefilename $%d-;
#X obj 41 75 t b f;
#X obj 41 130 sel s;
#X obj 68 153 b;
#X obj 41 222 s \$0-noarg;
#X obj 68 200 s \$0-thisarg;
#X obj 41 102 symbol \$10-;
#X obj 68 176 list append \$10;
#X connect 0 0 2 0;
#X connect 1 0 3 1;
#X connect 2 0 7 0;
#X connect 2 1 1 0;
#X connect 3 0 5 0;
#X connect 3 1 4 0;
#X connect 4 0 8 0;
#X connect 7 0 3 0;
#X connect 8 0 6 0;
#X restore 186 129 pd \$0-test-10;
#X text 46 27 argument number;
#X text 42 419 argument if it exists;
#X text 216 419 bang if it doesn't;
#X text 194 35 This subpatch tests for the presence of up to 10 creation
arguments. After IOhannes Zmölnig.;
#X connect 0 0 3 0;
#X connect 3 0 14 0;
#X connect 4 0 2 0;
#X connect 5 0 1 0;
#X connect 14 0 6 0;
#X connect 14 1 7 0;
#X connect 14 2 8 0;
#X connect 14 3 9 0;
#X connect 14 4 10 0;
#X connect 14 5 11 0;
#X connect 14 6 12 0;
#X connect 14 7 13 0;
#X connect 14 8 15 0;
#X connect 14 9 16 0;
#X restore 537 167 pd \$0-args;
#X obj 509 32 loadbang;
#X obj 569 142 + 1;
#X obj 537 142 f 1;
#X obj 537 112 until;
#X obj 537 197 list prepend;
#X obj 510 56 t b b;
#X obj 510 242 list;
#X obj 625 197 t a;
#X obj 510 271 list split 1;
#X obj 544 386 unpack 0 -1 0 1;
#X msg 537 86 5;
#X obj 384 66 inlet;
#X obj 70 66 inlet;
#X obj 192 66 inlet;
#X obj 384 114 s \$0-name;
#X obj 257 66 inlet;
#X text 194 40 n_pts;
#X text 240 41 direction;
#X text 382 42 array name;
#N canvas 97 317 803 469 \$0-init 1;
#X obj 39 256 outlet;
#X obj 39 46 inlet;
#X obj 199 256 outlet;
#X obj 199 46 inlet;
#X obj 305 256 outlet;
#X obj 305 46 inlet;
#X obj 465 256 outlet;
#X obj 465 46 inlet;
#X obj 39 75 list split 4;
#X obj 93 203 s \$0-name;
#X obj 93 228 r \$0-onset-init;
#X obj 322 228 r \$0-direction-init;
#X obj 482 228 r \$0-stride-init;
#X obj 216 228 r \$0-p-init;
#X obj 93 145 list split 1;
#X obj 93 174 route float;
#X obj 575 46 inlet;
#X connect 1 0 8 0;
#X connect 3 0 2 0;
#X connect 5 0 4 0;
#X connect 7 0 6 0;
#X connect 8 0 0 0;
#X connect 8 1 14 0;
#X connect 8 2 0 0;
#X connect 10 0 0 0;
#X connect 11 0 4 0;
#X connect 12 0 6 0;
#X connect 13 0 2 0;
#X connect 14 0 15 0;
#X connect 15 0 9 0;
#X connect 15 1 9 0;
#X connect 16 0 14 0;
#X restore 219 144 pd \$0-init;
#X obj 472 386 s \$0-name;
#X obj 322 66 inlet;
#X text 310 41 stride;
#X text 45 39 onset or bang;
#X obj 631 427 s \$0-stride-init;
#X obj 602 460 s \$0-direction-init;
#X obj 544 517 s \$0-onset-init;
#X obj 289 699 +;
#X obj 304 538 *;
#X obj 219 298 pack 0 -1 0 1, f 16;
#X obj 158 949 outlet;
#X obj 243 949 outlet;
#X obj 156 699 f;
#X obj 211 428 s \$0-stride;
#X obj 350 509 r \$0-stride;
#X obj 156 514 r \$0-stride;
#X obj 86 929 s \$0-done;
#X obj 243 909 r \$0-done;
#X obj 171 666 r \$0-onset;
#X obj 211 400 max 0;
#X text 253 391 <- stride must be >= 0;
#X obj 102 542 /;
#X obj 102 567 + 1;
#X obj 102 514 - 1;
#X obj 102 592 int;
#X obj 70 91 route bang;
#X obj 86 774 route 0 1;
#X obj 183 624 f;
#X obj 249 624 + 1;
#X msg 249 592 0;
#X obj 26 135 s \$0-mainbang;
#X obj 156 542 r \$0-mainbang;
#X obj 86 745 list prepend;
#X obj 87 699 <;
#X obj 86 901 b;
#X obj 233 258 t b f;
#X obj 273 258 t b f;
#X obj 316 258 t b f;
#X obj 156 592 t b b;
#X text 629 31 Args (all optional) \; 1: array name \; 2: direction
(>=0 : up \, <0 : down) \; 3: onset (can be negative) \; 4: number
of points (<0 : end of array in specified direction) \; 5: stride (limited
to values >0), f 64;
#X text 90 991 2015 Matt Barber;
#X obj 129 192 t b a;
#X obj 73 264 array size;
#X obj 130 234 r \$0-name;
#X obj 73 355 list;
#X obj 73 293 t b f;
#X obj 82 317 s \$0-size;
#X obj 73 383 unpack 0 -1 0 1;
#X obj 131 454 s \$0-direction;
#X obj 22 459 s \$0-onset;
#X obj 304 428 r \$0-direction;
#X obj 304 455 moses 0;
#X msg 343 482 1;
#X msg 304 482 -1;
#X obj 199 831 int;
#X obj 173 855 -;
#X obj 148 805 t f f f, f 9;
#X obj 158 917 +;
#X obj 204 855 r \$0-size;
#X obj 148 888 mod;
#X obj 544 353 list;
#X obj 573 488 s \$0-p-init;
#X obj 510 321 t b a;
#X connect 0 0 5 0;
#X connect 1 0 6 0;
#X connect 2 0 3 1;
#X connect 3 0 2 0;
#X connect 3 0 0 0;
#X connect 4 0 3 0;
#X connect 5 0 7 1;
#X connect 5 0 8 0;
#X connect 6 0 7 0;
#X connect 6 1 11 0;
#X connect 7 0 9 0;
#X connect 8 0 5 1;
#X connect 9 0 83 0;
#X connect 9 1 81 1;
#X connect 10 0 27 0;
#X connect 10 1 82 0;
#X connect 10 2 26 0;
#X connect 10 3 25 0;
#X connect 11 0 4 0;
#X connect 12 0 20 4;
#X connect 13 0 46 0;
#X connect 14 0 20 1;
#X connect 16 0 20 2;
#X connect 20 0 62 0;
#X connect 20 1 56 0;
#X connect 20 2 57 0;
#X connect 20 3 58 0;
#X connect 22 0 20 3;
#X connect 28 0 33 1;
#X connect 29 0 28 1;
#X connect 29 0 50 0;
#X connect 30 0 65 1;
#X connect 33 0 28 0;
#X connect 33 0 53 0;
#X connect 35 0 29 1;
#X connect 36 0 42 1;
#X connect 38 0 32 0;
#X connect 39 0 33 1;
#X connect 40 0 34 0;
#X connect 42 0 43 0;
#X connect 43 0 45 0;
#X connect 44 0 42 0;
#X connect 45 0 54 1;
#X connect 46 0 51 0;
#X connect 46 1 20 0;
#X connect 47 0 55 0;
#X connect 47 1 77 0;
#X connect 48 0 49 0;
#X connect 48 0 54 0;
#X connect 49 0 48 1;
#X connect 50 0 48 1;
#X connect 52 0 59 0;
#X connect 53 0 47 0;
#X connect 54 0 53 1;
#X connect 55 0 37 0;
#X connect 56 0 30 0;
#X connect 56 1 30 1;
#X connect 57 0 30 0;
#X connect 57 1 30 2;
#X connect 58 0 30 0;
#X connect 58 1 30 3;
#X connect 59 0 33 0;
#X connect 59 1 48 0;
#X connect 62 0 63 0;
#X connect 62 1 30 0;
#X connect 63 0 66 0;
#X connect 64 0 63 1;
#X connect 65 0 68 0;
#X connect 66 0 65 0;
#X connect 66 1 67 0;
#X connect 68 0 70 0;
#X connect 68 1 44 0;
#X connect 68 2 69 0;
#X connect 68 3 40 0;
#X connect 71 0 72 0;
#X connect 72 0 74 0;
#X connect 72 1 73 0;
#X connect 73 0 29 0;
#X connect 74 0 29 0;
#X connect 75 0 76 1;
#X connect 76 0 78 1;
#X connect 77 0 80 0;
#X connect 77 1 76 0;
#X connect 77 2 75 0;
#X connect 78 0 31 0;
#X connect 79 0 80 1;
#X connect 80 0 78 0;
#X connect 81 0 10 0;
#X connect 83 0 81 0;
#X connect 83 1 21 0;
