#N canvas 1034 730 635 357 10;
#X obj 42 109 bng 15 250 50 0 empty empty empty 17 7 0 10 -262144 -1
-1;
#X floatatom 93 110 5 0 0 0 - - -, f 5;
#X msg 351 121 susan;
#X floatatom 140 112 5 0 0 0 - - -, f 5;
#X floatatom 185 112 5 0 0 0 - - -, f 5;
#X obj 131 268 bng 15 250 50 0 empty empty empty 17 7 0 10 -262144
-1 -1;
#X floatatom 117 330 5 0 0 0 - - -, f 5;
#X floatatom 205 330 5 0 0 0 - - -, f 5;
#X floatatom 294 330 5 0 0 0 - - -, f 5;
#X msg 325 76 symbol iterator-help;
#X msg 337 100 symbol iterator-other;
#X obj 330 199 print done;
#X obj 58 190 print;
#X floatatom 226 111 5 0 0 0 - - -, f 5;
#X msg 62 54 10 50 1 10;
#X msg 80 81 -7 -1 -1 3.14159;
#X msg 86 29 0 20 3 3 iteratorslow-help;
#X obj 127 298 array-iterator iteratorslow-help;
#X obj 384 151 array define iteratorslow-help;
#X obj 384 177 array define iteratorslow-other 20;
#X obj 58 151 array-iteratorslow iteratorslow-help -2 20 -1;
#X connect 0 0 20 0;
#X connect 1 0 20 0;
#X connect 2 0 20 4;
#X connect 3 0 20 1;
#X connect 4 0 20 2;
#X connect 9 0 20 4;
#X connect 10 0 20 4;
#X connect 13 0 20 3;
#X connect 14 0 20 0;
#X connect 15 0 20 0;
#X connect 16 0 20 0;
#X connect 20 0 12 0;
#X connect 20 1 11 0;
