#N canvas 631 79 731 670 10;
#X obj 106 45 inlet;
#X obj 197 45 inlet;
#X obj 313 45 inlet;
#N canvas 0 22 577 494 \$0-args 0;
#X obj 49 49 inlet;
#X obj 49 382 outlet;
#X obj 219 382 outlet;
#X msg 49 75 \$1 \$1;
#X obj 219 354 r \$0-noarg;
#X obj 49 354 r \$0-thisarg;
#N canvas 0 22 254 277 \$0-test-1 0;
#X obj 41 46 inlet;
#X obj 113 102 makefilename $%d-;
#X obj 41 75 t b f;
#X obj 41 102 symbol \$1-;
#X obj 41 130 sel s;
#X obj 68 153 b;
#X obj 68 176 list append \$1;
#X obj 41 222 s \$0-noarg;
#X obj 68 200 s \$0-thisarg;
#X connect 0 0 2 0;
#X connect 1 0 4 1;
#X connect 2 0 3 0;
#X connect 2 1 1 0;
#X connect 3 0 4 0;
#X connect 4 0 7 0;
#X connect 4 1 5 0;
#X connect 5 0 6 0;
#X connect 6 0 8 0;
#X restore 49 326 pd \$0-test-1;
#N canvas 0 22 254 277 \$0-test-2 0;
#X obj 41 46 inlet;
#X obj 113 102 makefilename $%d-;
#X obj 41 75 t b f;
#X obj 41 130 sel s;
#X obj 68 153 b;
#X obj 41 222 s \$0-noarg;
#X obj 68 200 s \$0-thisarg;
#X obj 41 102 symbol \$2-;
#X obj 68 176 list append \$2;
#X connect 0 0 2 0;
#X connect 1 0 3 1;
#X connect 2 0 7 0;
#X connect 2 1 1 0;
#X connect 3 0 5 0;
#X connect 3 1 4 0;
#X connect 4 0 8 0;
#X connect 7 0 3 0;
#X connect 8 0 6 0;
#X restore 64 304 pd \$0-test-2;
#N canvas 0 22 254 277 \$0-test-3 0;
#X obj 41 46 inlet;
#X obj 113 102 makefilename $%d-;
#X obj 41 75 t b f;
#X obj 41 130 sel s;
#X obj 68 153 b;
#X obj 41 222 s \$0-noarg;
#X obj 68 200 s \$0-thisarg;
#X obj 41 102 symbol \$3-;
#X obj 68 176 list append \$3;
#X connect 0 0 2 0;
#X connect 1 0 3 1;
#X connect 2 0 7 0;
#X connect 2 1 1 0;
#X connect 3 0 5 0;
#X connect 3 1 4 0;
#X connect 4 0 8 0;
#X connect 7 0 3 0;
#X connect 8 0 6 0;
#X restore 79 283 pd \$0-test-3;
#N canvas 0 22 254 277 \$0-test-4 0;
#X obj 41 46 inlet;
#X obj 113 102 makefilename $%d-;
#X obj 41 75 t b f;
#X obj 41 130 sel s;
#X obj 68 153 b;
#X obj 41 222 s \$0-noarg;
#X obj 68 200 s \$0-thisarg;
#X obj 41 102 symbol \$4-;
#X obj 68 176 list append \$4;
#X connect 0 0 2 0;
#X connect 1 0 3 1;
#X connect 2 0 7 0;
#X connect 2 1 1 0;
#X connect 3 0 5 0;
#X connect 3 1 4 0;
#X connect 4 0 8 0;
#X connect 7 0 3 0;
#X connect 8 0 6 0;
#X restore 94 261 pd \$0-test-4;
#N canvas 0 22 254 277 \$0-test-5 0;
#X obj 41 46 inlet;
#X obj 113 102 makefilename $%d-;
#X obj 41 75 t b f;
#X obj 41 130 sel s;
#X obj 68 153 b;
#X obj 41 222 s \$0-noarg;
#X obj 68 200 s \$0-thisarg;
#X obj 41 102 symbol \$5-;
#X obj 68 176 list append \$5;
#X connect 0 0 2 0;
#X connect 1 0 3 1;
#X connect 2 0 7 0;
#X connect 2 1 1 0;
#X connect 3 0 5 0;
#X connect 3 1 4 0;
#X connect 4 0 8 0;
#X connect 7 0 3 0;
#X connect 8 0 6 0;
#X restore 110 239 pd \$0-test-5;
#N canvas 0 22 254 277 \$0-test-6 0;
#X obj 41 46 inlet;
#X obj 113 102 makefilename $%d-;
#X obj 41 75 t b f;
#X obj 41 130 sel s;
#X obj 68 153 b;
#X obj 41 222 s \$0-noarg;
#X obj 68 200 s \$0-thisarg;
#X obj 41 102 symbol \$6-;
#X obj 68 176 list append \$6;
#X connect 0 0 2 0;
#X connect 1 0 3 1;
#X connect 2 0 7 0;
#X connect 2 1 1 0;
#X connect 3 0 5 0;
#X connect 3 1 4 0;
#X connect 4 0 8 0;
#X connect 7 0 3 0;
#X connect 8 0 6 0;
#X restore 125 217 pd \$0-test-6;
#N canvas 0 22 254 277 \$0-test-7 0;
#X obj 41 46 inlet;
#X obj 113 102 makefilename $%d-;
#X obj 41 75 t b f;
#X obj 41 130 sel s;
#X obj 68 153 b;
#X obj 41 222 s \$0-noarg;
#X obj 68 200 s \$0-thisarg;
#X obj 41 102 symbol \$7-;
#X obj 68 176 list append \$7;
#X connect 0 0 2 0;
#X connect 1 0 3 1;
#X connect 2 0 7 0;
#X connect 2 1 1 0;
#X connect 3 0 5 0;
#X connect 3 1 4 0;
#X connect 4 0 8 0;
#X connect 7 0 3 0;
#X connect 8 0 6 0;
#X restore 140 195 pd \$0-test-7;
#N canvas 0 22 254 277 \$0-test-8 0;
#X obj 41 46 inlet;
#X obj 113 102 makefilename $%d-;
#X obj 41 75 t b f;
#X obj 41 130 sel s;
#X obj 68 153 b;
#X obj 41 222 s \$0-noarg;
#X obj 68 200 s \$0-thisarg;
#X obj 41 102 symbol \$8-;
#X obj 68 176 list append \$8;
#X connect 0 0 2 0;
#X connect 1 0 3 1;
#X connect 2 0 7 0;
#X connect 2 1 1 0;
#X connect 3 0 5 0;
#X connect 3 1 4 0;
#X connect 4 0 8 0;
#X connect 7 0 3 0;
#X connect 8 0 6 0;
#X restore 156 173 pd \$0-test-8;
#X obj 49 101 route 1 2 3 4 5 6 7 8 9 10;
#N canvas 0 22 254 277 \$0-test-9 0;
#X obj 41 46 inlet;
#X obj 113 102 makefilename $%d-;
#X obj 41 75 t b f;
#X obj 41 130 sel s;
#X obj 68 153 b;
#X obj 41 222 s \$0-noarg;
#X obj 68 200 s \$0-thisarg;
#X obj 41 102 symbol \$9-;
#X obj 68 176 list append \$9;
#X connect 0 0 2 0;
#X connect 1 0 3 1;
#X connect 2 0 7 0;
#X connect 2 1 1 0;
#X connect 3 0 5 0;
#X connect 3 1 4 0;
#X connect 4 0 8 0;
#X connect 7 0 3 0;
#X connect 8 0 6 0;
#X restore 171 151 pd \$0-test-9;
#N canvas 0 22 254 277 \$0-test-10 0;
#X obj 41 46 inlet;
#X obj 113 102 makefilename $%d-;
#X obj 41 75 t b f;
#X obj 41 130 sel s;
#X obj 68 153 b;
#X obj 41 222 s \$0-noarg;
#X obj 68 200 s \$0-thisarg;
#X obj 41 102 symbol \$10-;
#X obj 68 176 list append \$10;
#X connect 0 0 2 0;
#X connect 1 0 3 1;
#X connect 2 0 7 0;
#X connect 2 1 1 0;
#X connect 3 0 5 0;
#X connect 3 1 4 0;
#X connect 4 0 8 0;
#X connect 7 0 3 0;
#X connect 8 0 6 0;
#X restore 186 129 pd \$0-test-10;
#X text 46 27 argument number;
#X text 42 419 argument if it exists;
#X text 216 419 bang if it doesn't;
#X text 194 35 This subpatch tests for the presence of up to 10 creation
arguments. After IOhannes Zmölnig.;
#X connect 0 0 3 0;
#X connect 3 0 14 0;
#X connect 4 0 2 0;
#X connect 5 0 1 0;
#X connect 14 0 6 0;
#X connect 14 1 7 0;
#X connect 14 2 8 0;
#X connect 14 3 9 0;
#X connect 14 4 10 0;
#X connect 14 5 11 0;
#X connect 14 6 12 0;
#X connect 14 7 13 0;
#X connect 14 8 15 0;
#X connect 14 9 16 0;
#X restore 335 122 pd \$0-args;
#X obj 335 73 loadbang;
#X msg 335 97 1;
#X msg 340 254 0;
#X obj 313 284 route symbol;
#X obj 106 159 t a b;
#X obj 313 159 t a b;
#X obj 106 271 spigot 0;
#X obj 216 206 array size;
#X text 359 188 <- size doesn't do anything specific here but give
the user a warning if there is no array with the name supplied. The
spigot saves a cascade of similar warnings below in case something
isn't right.;
#X obj 106 569 f;
#X obj 313 310 s \$0-array-name;
#X obj 138 511 r \$0-array-name;
#X obj 304 557 r \$0-array-name;
#X obj 175 342 s \$0-right;
#X obj 121 489 r \$0-right;
#X obj 291 520 r \$0-right;
#X obj 249 45 inlet;
#X obj 106 206 pack 0 0 0;
#X obj 106 297 unpack 0 0 0;
#X obj 140 368 s \$0-left;
#X obj 106 421 t b b f, f 23;
#X obj 287 460 r \$0-left;
#X obj 272 485 f;
#X text 105 603 2015 Matt Barber;
#X obj 241 586 array-write;
#X obj 121 539 array-read;
#X obj 106 73 list split 3;
#X obj 229 122 route bang;
#X connect 0 0 30 0;
#X connect 1 0 21 1;
#X connect 2 0 9 0;
#X connect 3 0 9 0;
#X connect 4 0 5 0;
#X connect 5 0 3 0;
#X connect 6 0 10 1;
#X connect 7 0 14 0;
#X connect 8 0 21 0;
#X connect 8 1 11 0;
#X connect 9 0 11 1;
#X connect 9 0 7 0;
#X connect 9 1 6 0;
#X connect 10 0 22 0;
#X connect 11 0 10 1;
#X connect 13 0 28 0;
#X connect 15 0 29 1;
#X connect 16 0 28 2;
#X connect 18 0 29 0;
#X connect 19 0 28 1;
#X connect 20 0 21 2;
#X connect 21 0 10 0;
#X connect 22 0 24 0;
#X connect 22 1 23 0;
#X connect 22 2 17 0;
#X connect 24 0 13 0;
#X connect 24 1 26 0;
#X connect 24 2 28 0;
#X connect 25 0 26 1;
#X connect 26 0 28 1;
#X connect 29 0 13 1;
#X connect 30 0 8 0;
#X connect 30 1 31 0;
#X connect 30 2 8 0;
#X connect 31 1 9 0;
