#N canvas 411 339 437 470 10;
#X obj 92 75 inlet;
#X obj 254 75 inlet;
#X obj 174 199 array size;
#N canvas 0 22 577 494 \$0-args 0;
#X obj 49 49 inlet;
#X obj 49 382 outlet;
#X obj 219 382 outlet;
#X msg 49 75 \$1 \$1;
#X obj 219 354 r \$0-noarg;
#X obj 49 354 r \$0-thisarg;
#N canvas 0 22 254 277 \$0-test-1 0;
#X obj 41 46 inlet;
#X obj 113 102 makefilename $%d-;
#X obj 41 75 t b f;
#X obj 41 102 symbol \$1-;
#X obj 41 130 sel s;
#X obj 68 153 b;
#X obj 68 176 list append \$1;
#X obj 41 222 s \$0-noarg;
#X obj 68 200 s \$0-thisarg;
#X connect 0 0 2 0;
#X connect 1 0 4 1;
#X connect 2 0 3 0;
#X connect 2 1 1 0;
#X connect 3 0 4 0;
#X connect 4 0 7 0;
#X connect 4 1 5 0;
#X connect 5 0 6 0;
#X connect 6 0 8 0;
#X restore 49 326 pd \$0-test-1;
#N canvas 0 22 254 277 \$0-test-2 0;
#X obj 41 46 inlet;
#X obj 113 102 makefilename $%d-;
#X obj 41 75 t b f;
#X obj 41 130 sel s;
#X obj 68 153 b;
#X obj 41 222 s \$0-noarg;
#X obj 68 200 s \$0-thisarg;
#X obj 41 102 symbol \$2-;
#X obj 68 176 list append \$2;
#X connect 0 0 2 0;
#X connect 1 0 3 1;
#X connect 2 0 7 0;
#X connect 2 1 1 0;
#X connect 3 0 5 0;
#X connect 3 1 4 0;
#X connect 4 0 8 0;
#X connect 7 0 3 0;
#X connect 8 0 6 0;
#X restore 64 304 pd \$0-test-2;
#N canvas 0 22 254 277 \$0-test-3 0;
#X obj 41 46 inlet;
#X obj 113 102 makefilename $%d-;
#X obj 41 75 t b f;
#X obj 41 130 sel s;
#X obj 68 153 b;
#X obj 41 222 s \$0-noarg;
#X obj 68 200 s \$0-thisarg;
#X obj 41 102 symbol \$3-;
#X obj 68 176 list append \$3;
#X connect 0 0 2 0;
#X connect 1 0 3 1;
#X connect 2 0 7 0;
#X connect 2 1 1 0;
#X connect 3 0 5 0;
#X connect 3 1 4 0;
#X connect 4 0 8 0;
#X connect 7 0 3 0;
#X connect 8 0 6 0;
#X restore 79 283 pd \$0-test-3;
#N canvas 0 22 254 277 \$0-test-4 0;
#X obj 41 46 inlet;
#X obj 113 102 makefilename $%d-;
#X obj 41 75 t b f;
#X obj 41 130 sel s;
#X obj 68 153 b;
#X obj 41 222 s \$0-noarg;
#X obj 68 200 s \$0-thisarg;
#X obj 41 102 symbol \$4-;
#X obj 68 176 list append \$4;
#X connect 0 0 2 0;
#X connect 1 0 3 1;
#X connect 2 0 7 0;
#X connect 2 1 1 0;
#X connect 3 0 5 0;
#X connect 3 1 4 0;
#X connect 4 0 8 0;
#X connect 7 0 3 0;
#X connect 8 0 6 0;
#X restore 94 261 pd \$0-test-4;
#N canvas 0 22 254 277 \$0-test-5 0;
#X obj 41 46 inlet;
#X obj 113 102 makefilename $%d-;
#X obj 41 75 t b f;
#X obj 41 130 sel s;
#X obj 68 153 b;
#X obj 41 222 s \$0-noarg;
#X obj 68 200 s \$0-thisarg;
#X obj 41 102 symbol \$5-;
#X obj 68 176 list append \$5;
#X connect 0 0 2 0;
#X connect 1 0 3 1;
#X connect 2 0 7 0;
#X connect 2 1 1 0;
#X connect 3 0 5 0;
#X connect 3 1 4 0;
#X connect 4 0 8 0;
#X connect 7 0 3 0;
#X connect 8 0 6 0;
#X restore 110 239 pd \$0-test-5;
#N canvas 0 22 254 277 \$0-test-6 0;
#X obj 41 46 inlet;
#X obj 113 102 makefilename $%d-;
#X obj 41 75 t b f;
#X obj 41 130 sel s;
#X obj 68 153 b;
#X obj 41 222 s \$0-noarg;
#X obj 68 200 s \$0-thisarg;
#X obj 41 102 symbol \$6-;
#X obj 68 176 list append \$6;
#X connect 0 0 2 0;
#X connect 1 0 3 1;
#X connect 2 0 7 0;
#X connect 2 1 1 0;
#X connect 3 0 5 0;
#X connect 3 1 4 0;
#X connect 4 0 8 0;
#X connect 7 0 3 0;
#X connect 8 0 6 0;
#X restore 125 217 pd \$0-test-6;
#N canvas 0 22 254 277 \$0-test-7 0;
#X obj 41 46 inlet;
#X obj 113 102 makefilename $%d-;
#X obj 41 75 t b f;
#X obj 41 130 sel s;
#X obj 68 153 b;
#X obj 41 222 s \$0-noarg;
#X obj 68 200 s \$0-thisarg;
#X obj 41 102 symbol \$7-;
#X obj 68 176 list append \$7;
#X connect 0 0 2 0;
#X connect 1 0 3 1;
#X connect 2 0 7 0;
#X connect 2 1 1 0;
#X connect 3 0 5 0;
#X connect 3 1 4 0;
#X connect 4 0 8 0;
#X connect 7 0 3 0;
#X connect 8 0 6 0;
#X restore 140 195 pd \$0-test-7;
#N canvas 0 22 254 277 \$0-test-8 0;
#X obj 41 46 inlet;
#X obj 113 102 makefilename $%d-;
#X obj 41 75 t b f;
#X obj 41 130 sel s;
#X obj 68 153 b;
#X obj 41 222 s \$0-noarg;
#X obj 68 200 s \$0-thisarg;
#X obj 41 102 symbol \$8-;
#X obj 68 176 list append \$8;
#X connect 0 0 2 0;
#X connect 1 0 3 1;
#X connect 2 0 7 0;
#X connect 2 1 1 0;
#X connect 3 0 5 0;
#X connect 3 1 4 0;
#X connect 4 0 8 0;
#X connect 7 0 3 0;
#X connect 8 0 6 0;
#X restore 156 173 pd \$0-test-8;
#X obj 49 101 route 1 2 3 4 5 6 7 8 9 10;
#N canvas 0 22 254 277 \$0-test-9 0;
#X obj 41 46 inlet;
#X obj 113 102 makefilename $%d-;
#X obj 41 75 t b f;
#X obj 41 130 sel s;
#X obj 68 153 b;
#X obj 41 222 s \$0-noarg;
#X obj 68 200 s \$0-thisarg;
#X obj 41 102 symbol \$9-;
#X obj 68 176 list append \$9;
#X connect 0 0 2 0;
#X connect 1 0 3 1;
#X connect 2 0 7 0;
#X connect 2 1 1 0;
#X connect 3 0 5 0;
#X connect 3 1 4 0;
#X connect 4 0 8 0;
#X connect 7 0 3 0;
#X connect 8 0 6 0;
#X restore 171 151 pd \$0-test-9;
#N canvas 0 22 254 277 \$0-test-10 0;
#X obj 41 46 inlet;
#X obj 113 102 makefilename $%d-;
#X obj 41 75 t b f;
#X obj 41 130 sel s;
#X obj 68 153 b;
#X obj 41 222 s \$0-noarg;
#X obj 68 200 s \$0-thisarg;
#X obj 41 102 symbol \$10-;
#X obj 68 176 list append \$10;
#X connect 0 0 2 0;
#X connect 1 0 3 1;
#X connect 2 0 7 0;
#X connect 2 1 1 0;
#X connect 3 0 5 0;
#X connect 3 1 4 0;
#X connect 4 0 8 0;
#X connect 7 0 3 0;
#X connect 8 0 6 0;
#X restore 186 129 pd \$0-test-10;
#X text 42 419 argument if it exists;
#X text 216 419 bang if it doesn't;
#X text 194 35 This subpatch tests for the presence of up to 10 creation
arguments. After IOhannes Zmölnig.;
#X text 46 27 argument number;
#X connect 0 0 3 0;
#X connect 3 0 14 0;
#X connect 4 0 2 0;
#X connect 5 0 1 0;
#X connect 14 0 6 0;
#X connect 14 1 7 0;
#X connect 14 2 8 0;
#X connect 14 3 9 0;
#X connect 14 4 10 0;
#X connect 14 5 11 0;
#X connect 14 6 12 0;
#X connect 14 7 13 0;
#X connect 14 8 15 0;
#X connect 14 9 16 0;
#X restore 278 154 pd \$0-args;
#X obj 278 105 loadbang;
#X msg 278 129 1;
#X obj 92 142 t f b;
#X obj 137 369 outlet;
#X obj 92 199 moses 0, f 8;
#X obj 92 240 +;
#X text 93 399 2015 Matt Barber;
#X obj 254 242 list prepend set;
#X obj 254 276 list trim;
#X obj 92 101 list split 1;
#X obj 168 142 route bang;
#X obj 254 182 t a b;
#X msg 191 246 0;
#X obj 92 277 spigot;
#N canvas 228 408 346 293 \$0-hermite 0;
#X obj 57 38 inlet;
#X obj 137 38 inlet;
#X obj 257 38 inlet;
#X obj 57 227 outlet;
#X obj 57 106 min;
#X obj 257 66 s \$0-set;
#N canvas 1026 86 761 678 \$0-get 0;
#X obj 50 22 inlet;
#X obj 50 522 outlet;
#X obj 124 75 int;
#X obj 109 113 -;
#X obj 100 396 tabread;
#X obj 122 371 r \$0-set;
#X obj 570 396 tabread;
#X obj 592 371 r \$0-set;
#X obj 200 396 tabread;
#X obj 222 371 r \$0-set;
#X obj 390 396 tabread;
#X obj 412 371 r \$0-set;
#X obj 390 442 s \$0-b;
#X obj 570 320 r \$0-i1;
#X obj 570 442 s \$0-a;
#X obj 200 442 s \$0-c;
#X obj 100 442 s \$0-d;
#X obj 50 47 t b b f f;
#X obj 67 113 f;
#X obj 480 396 tabread;
#X obj 502 371 r \$0-set;
#X obj 480 320 r \$0-i2;
#X obj 480 442 s \$0-f;
#X obj 300 396 tabread;
#X obj 322 371 r \$0-set;
#X obj 300 442 s \$0-e;
#X obj 390 320 r \$0-i2;
#X obj 300 320 r \$0-i3;
#X obj 200 320 r \$0-i4;
#X obj 100 320 r \$0-i5;
#X obj 67 164 t f f f f f;
#X obj 130 186 s \$0-i1;
#X obj 114 209 s \$0-i2;
#X obj 67 278 s \$0-i5;
#X obj 82 255 s \$0-i4;
#X obj 98 232 s \$0-i3;
#X obj 109 136 s \$0-fr;
#X obj 570 346 - 2;
#X obj 390 346 - 1;
#X obj 100 346 + 1;
#X obj 300 346 + 2;
#X obj 480 346 + 3;
#X connect 0 0 17 0;
#X connect 2 0 3 1;
#X connect 2 0 18 1;
#X connect 3 0 36 0;
#X connect 4 0 16 0;
#X connect 5 0 4 0;
#X connect 6 0 14 0;
#X connect 7 0 6 0;
#X connect 8 0 15 0;
#X connect 9 0 8 0;
#X connect 10 0 12 0;
#X connect 11 0 10 0;
#X connect 13 0 37 0;
#X connect 17 0 1 0;
#X connect 17 1 18 0;
#X connect 17 2 3 0;
#X connect 17 3 2 0;
#X connect 18 0 30 0;
#X connect 19 0 22 0;
#X connect 20 0 19 0;
#X connect 21 0 41 0;
#X connect 23 0 25 0;
#X connect 24 0 23 0;
#X connect 26 0 38 0;
#X connect 27 0 40 0;
#X connect 28 0 8 0;
#X connect 29 0 39 0;
#X connect 30 0 33 0;
#X connect 30 1 34 0;
#X connect 30 2 35 0;
#X connect 30 3 32 0;
#X connect 30 4 31 0;
#X connect 37 0 6 0;
#X connect 38 0 10 0;
#X connect 39 0 4 0;
#X connect 40 0 23 0;
#X connect 41 0 19 0;
#X restore 57 157 pd \$0-get;
#N canvas 549 178 1166 1012 \$0-calc 0;
#X obj 50 172 inlet;
#X obj 50 936 outlet;
#X obj 148 583 *;
#X obj 50 289 f;
#X obj 148 735 *;
#X obj 148 855 *;
#X obj 148 794 +;
#X obj 50 902 +;
#X obj 148 674 +;
#X obj 65 261 r \$0-c;
#X text 75 291 <- C0;
#X obj 422 41 loadbang;
#X obj 422 112 swap 1;
#X obj 422 141 /;
#X obj 492 112 swap 1;
#X obj 492 141 /;
#X msg 492 86 24;
#X obj 632 112 swap 1;
#X obj 632 141 /;
#X msg 632 86 12;
#X obj 772 141 /;
#X obj 148 423 *;
#X obj 163 236 *;
#N canvas 29 61 398 381 \$0-calc-C5 0;
#X obj 123 245 +;
#X obj 123 200 -;
#X obj 123 322 outlet;
#X obj 171 322 s \$0-C5;
#X obj 168 108 -;
#X obj 168 154 *;
#X obj 258 59 r \$0-f;
#X obj 273 83 r \$0-a;
#X obj 258 108 -;
#X obj 258 154 *;
#X obj 273 131 r \$0-1/24;
#X obj 68 108 -;
#X obj 68 154 *;
#X obj 183 83 r \$0-b;
#X obj 168 59 r \$0-e;
#X obj 183 131 r \$0-5/24;
#X obj 83 83 r \$0-c;
#X obj 68 59 r \$0-d;
#X obj 83 131 r \$0-5/12;
#X connect 0 0 3 0;
#X connect 0 0 2 0;
#X connect 1 0 0 0;
#X connect 4 0 5 0;
#X connect 5 0 1 1;
#X connect 6 0 8 0;
#X connect 7 0 8 1;
#X connect 8 0 9 0;
#X connect 9 0 0 1;
#X connect 10 0 9 1;
#X connect 11 0 12 0;
#X connect 12 0 1 0;
#X connect 13 0 4 1;
#X connect 14 0 4 0;
#X connect 15 0 5 1;
#X connect 16 0 11 1;
#X connect 17 0 11 0;
#X connect 18 0 12 1;
#X restore 163 183 pd \$0-calc-C5;
#N canvas 102 514 444 527 \$0-calc-C4 0;
#X obj 125 345 +;
#X obj 125 432 outlet;
#X obj 331 111 r \$0-a;
#X obj 316 138 +;
#X obj 230 225 +;
#X obj 188 432 s \$0-C4;
#X obj 316 185 *;
#X obj 61 31 inlet;
#X obj 316 85 r \$0-f;
#X obj 331 159 r \$0-1/48;
#X obj 230 138 +;
#X obj 230 185 * -0.0625;
#X obj 230 85 r \$0-e;
#X obj 245 111 r \$0-b;
#X obj 136 138 +;
#X obj 136 185 *;
#X obj 151 111 r \$0-c;
#X obj 136 85 r \$0-d;
#X obj 151 159 r \$0-1/24;
#X obj 175 271 +;
#X obj 76 85 r \$0-C5;
#X obj 76 185 * -2.5;
#X obj 61 224 f;
#X connect 0 0 5 0;
#X connect 0 0 1 0;
#X connect 2 0 3 1;
#X connect 3 0 6 0;
#X connect 4 0 19 1;
#X connect 6 0 4 1;
#X connect 7 0 22 0;
#X connect 8 0 3 0;
#X connect 9 0 6 1;
#X connect 10 0 11 0;
#X connect 11 0 4 0;
#X connect 12 0 10 0;
#X connect 13 0 10 1;
#X connect 14 0 15 0;
#X connect 15 0 19 0;
#X connect 16 0 14 1;
#X connect 17 0 14 0;
#X connect 18 0 15 1;
#X connect 19 0 0 1;
#X connect 20 0 21 0;
#X connect 21 0 22 1;
#X connect 22 0 0 0;
#X restore 163 336 pd \$0-calc-C4;
#X obj 148 367 +;
#X obj 148 261 f;
#X obj 50 200 t b b;
#N canvas 203 558 322 322 \$0-calc-C3 0;
#X obj 138 267 outlet;
#X obj 150 56 r \$0-C5;
#X obj 138 229 +;
#X obj 68 27 inlet;
#X obj 68 138 f;
#X obj 68 171 -;
#X obj 83 108 * -1;
#X obj 83 56 r \$0-C1;
#X obj 220 56 r \$0-d-b;
#X obj 220 108 * 0.5;
#X connect 1 0 5 1;
#X connect 2 0 0 0;
#X connect 3 0 4 0;
#X connect 4 0 5 0;
#X connect 5 0 2 0;
#X connect 6 0 4 1;
#X connect 7 0 6 0;
#X connect 8 0 9 0;
#X connect 9 0 2 1;
#X restore 163 486 pd \$0-calc-C3;
#X obj 148 519 +;
#N canvas 97 317 324 339 \$0-calc-C2 0;
#X obj 115 225 +;
#X obj 115 282 outlet;
#X obj 249 60 r \$0-c;
#X obj 150 185 -;
#X obj 80 137 * -1;
#X obj 80 60 r \$0-C4;
#X obj 65 185 f;
#X obj 65 25 inlet;
#X obj 150 137 * 0.5;
#X obj 150 60 r \$0-d;
#X obj 150 112 +;
#X obj 165 86 r \$0-b;
#X connect 0 0 1 0;
#X connect 2 0 3 1;
#X connect 3 0 0 1;
#X connect 4 0 6 1;
#X connect 5 0 4 0;
#X connect 6 0 0 0;
#X connect 7 0 6 0;
#X connect 8 0 3 0;
#X connect 9 0 10 0;
#X connect 10 0 8 0;
#X connect 11 0 10 1;
#X restore 163 645 pd \$0-calc-C2;
#N canvas 1049 181 348 343 \$0-calc-C1 0;
#X obj 135 282 outlet;
#X obj 199 128 -;
#X obj 76 75 r \$0-d-b;
#X obj 91 101 r \$0-2/3;
#X obj 76 128 *;
#X obj 135 215 -;
#X obj 199 75 r \$0-e;
#X obj 214 101 r \$0-a;
#X obj 214 154 r \$0-1/12;
#X obj 199 181 *;
#X obj 189 282 s \$0-C1;
#X connect 1 0 9 0;
#X connect 2 0 4 0;
#X connect 3 0 4 1;
#X connect 4 0 5 0;
#X connect 5 0 0 0;
#X connect 5 0 10 0;
#X connect 6 0 1 0;
#X connect 7 0 1 1;
#X connect 8 0 9 1;
#X connect 9 0 5 1;
#X restore 163 766 pd \$0-calc-C1;
#X obj 178 209 r \$0-fr;
#X obj 163 396 r \$0-fr;
#X obj 163 556 r \$0-fr;
#X obj 163 705 r \$0-fr;
#X obj 163 825 r \$0-fr;
#X text 194 237 <- C5*fr;
#X text 180 426 <- C4*fr + C5*fr^2;
#X text 180 584 <- C3*fr + C4*fr^2 + C5*fr^3;
#X text 180 737 <- C2*fr + C3*fr^2 + C4*fr^3 + C5*fr^4;
#X text 180 854 <- C1*fr + C2*fr^2 + C3*fr^3 + C4*fr^4 + C5*fr^5;
#X text 80 902 <- C0 + C1*fr + C2*fr^2 + C3*fr^3 + C4*fr^4 + C5*fr^5
;
#X text 429 196 Get precise reciprocals..;
#X obj 506 306 r \$0-b;
#X obj 491 281 r \$0-d;
#X obj 148 451 t f b;
#X obj 148 613 t f b;
#X text 34 32 out = C0 + C1*f + C2*f^2 + C3*f^3 + C4*f^4 + C5*f^5 \;
\; C5 = (1/24)*(f-a) - (5/24)*(e-b) + (5/12)*(d-c) \; C4 = (1/48)*(f+a)
- (1/16)*(e+b) + (1/24)*(d+c) - 2.5*C5 \; C3 = 0.5*(d-b) - C5 - C1
\; C2 = 0.5*(d+b) - C4 - C0 \; C1 = (2/3)*(d-b) - (1/12)*(e-a) \; C0
= c;
#X obj 491 365 s \$0-d-b;
#X obj 422 170 s \$0-1/48;
#X msg 422 86 48;
#X obj 492 170 s \$0-1/24;
#X obj 562 141 /;
#X msg 562 86 24;
#X obj 562 112 swap 5;
#X obj 562 170 s \$0-5/24;
#X obj 632 170 s \$0-1/12;
#X obj 702 141 /;
#X msg 702 86 12;
#X obj 702 112 swap 5;
#X obj 702 170 s \$0-5/12;
#X msg 772 86 3;
#X obj 772 112 swap 2;
#X obj 772 170 s \$0-2/3;
#X text 855 226 (1/16) == 0.0625;
#X obj 148 297 t f b;
#X obj 491 333 -;
#X connect 0 0 27 0;
#X connect 2 0 47 0;
#X connect 3 0 7 0;
#X connect 4 0 6 0;
#X connect 5 0 7 1;
#X connect 6 0 5 0;
#X connect 7 0 1 0;
#X connect 8 0 4 0;
#X connect 9 0 3 1;
#X connect 11 0 51 0;
#X connect 11 0 16 0;
#X connect 11 0 19 0;
#X connect 11 0 62 0;
#X connect 11 0 54 0;
#X connect 11 0 59 0;
#X connect 12 0 13 0;
#X connect 12 1 13 1;
#X connect 13 0 50 0;
#X connect 14 0 15 0;
#X connect 14 1 15 1;
#X connect 15 0 52 0;
#X connect 16 0 14 0;
#X connect 17 0 18 0;
#X connect 17 1 18 1;
#X connect 18 0 57 0;
#X connect 19 0 17 0;
#X connect 20 0 64 0;
#X connect 21 0 46 0;
#X connect 22 0 26 1;
#X connect 23 0 22 0;
#X connect 24 0 25 1;
#X connect 25 0 21 0;
#X connect 26 0 66 0;
#X connect 27 0 3 0;
#X connect 27 1 26 0;
#X connect 28 0 29 1;
#X connect 29 0 2 0;
#X connect 30 0 8 1;
#X connect 31 0 6 1;
#X connect 32 0 22 1;
#X connect 33 0 21 1;
#X connect 34 0 2 1;
#X connect 35 0 4 1;
#X connect 36 0 5 1;
#X connect 44 0 67 1;
#X connect 45 0 67 0;
#X connect 46 0 29 0;
#X connect 46 1 28 0;
#X connect 47 0 8 0;
#X connect 47 1 30 0;
#X connect 51 0 12 0;
#X connect 53 0 56 0;
#X connect 54 0 55 0;
#X connect 55 0 53 0;
#X connect 55 1 53 1;
#X connect 58 0 61 0;
#X connect 59 0 60 0;
#X connect 60 0 58 0;
#X connect 60 1 58 1;
#X connect 62 0 63 0;
#X connect 63 0 20 0;
#X connect 63 1 20 1;
#X connect 66 0 25 0;
#X connect 66 1 24 0;
#X connect 67 0 49 0;
#X restore 57 197 pd \$0-calc;
#X obj 72 80 - 3;
#X obj 57 131 max 2;
#X connect 0 0 4 0;
#X connect 1 0 8 0;
#X connect 2 0 5 0;
#X connect 4 0 9 0;
#X connect 6 0 7 0;
#X connect 7 0 3 0;
#X connect 8 0 4 1;
#X connect 9 0 6 0;
#X restore 137 342 pd \$0-hermite;
#X connect 0 0 13 0;
#X connect 1 0 15 0;
#X connect 2 0 9 1;
#X connect 2 0 18 1;
#X connect 2 0 17 1;
#X connect 3 0 15 0;
#X connect 4 0 5 0;
#X connect 5 0 3 0;
#X connect 6 0 8 0;
#X connect 6 1 2 0;
#X connect 8 0 9 0;
#X connect 8 1 18 0;
#X connect 9 0 17 0;
#X connect 11 0 12 0;
#X connect 12 0 18 2;
#X connect 13 0 6 0;
#X connect 13 1 14 0;
#X connect 13 2 6 0;
#X connect 14 1 15 0;
#X connect 15 0 2 1;
#X connect 15 0 11 0;
#X connect 15 1 16 0;
#X connect 16 0 17 1;
#X connect 17 0 18 0;
#X connect 18 0 7 0;
