#N canvas 919 22 635 357 10;
#X obj 98 109 bng 15 250 50 0 empty empty empty 17 7 0 10 -262144 -1
-1;
#X floatatom 149 110 5 0 0 0 - - -, f 5;
#X msg 370 121 susan;
#X floatatom 196 112 5 0 0 0 - - -, f 5;
#X floatatom 241 112 5 0 0 0 - - -, f 5;
#X obj 131 268 bng 15 250 50 0 empty empty empty 17 7 0 10 -262144
-1 -1;
#X floatatom 117 330 5 0 0 0 - - -, f 5;
#X floatatom 205 330 5 0 0 0 - - -, f 5;
#X floatatom 294 330 5 0 0 0 - - -, f 5;
#X obj 330 199 print done;
#X obj 114 190 print;
#X floatatom 282 111 5 0 0 0 - - -, f 5;
#X msg 118 54 10 50 1 10;
#X msg 136 81 -7 -1 -1 3.14159;
#X msg 344 76 symbol cbiterator-help;
#X msg 356 100 symbol cbiterator-other;
#X obj 384 151 array define cbiterator-help;
#X obj 384 177 array define cbiterator-other 20;
#X obj 127 298 array-cbiterator iterator-help;
#X obj 114 151 array-cbiterator cbiterator-help 10 20 -1;
#X msg 142 29 0 20 -1 3 cbiterator-help;
#X connect 0 0 19 0;
#X connect 1 0 19 0;
#X connect 2 0 19 4;
#X connect 3 0 19 1;
#X connect 4 0 19 2;
#X connect 11 0 19 3;
#X connect 12 0 19 0;
#X connect 13 0 19 0;
#X connect 14 0 19 4;
#X connect 15 0 19 4;
#X connect 19 0 10 0;
#X connect 19 1 9 0;
#X connect 20 0 19 0;
