#N canvas 783 154 1072 782 10;
#X obj 497 331 cos;
#X obj 497 358 * -0.5;
#X obj 497 383 + 0.5;
#X obj 499 145 until;
#X obj 500 424 tabwrite hann;
#X msg 556 149 0;
#X obj 498 90 t b b;
#X obj 495 67 bng 15 250 50 0 empty empty empty 17 7 0 10 -262144 -1
-1;
#X obj 499 175 f;
#X obj 547 176 + 1;
#X obj 494 203 t f f;
#X obj 495 301 * 6.28319;
#X obj 283 42 array define hann 65536;
#X obj 129 225 until;
#X msg 186 229 0;
#X obj 128 170 t b b;
#X obj 125 147 bng 15 250 50 0 empty empty empty 17 7 0 10 -262144
-1 -1;
#X obj 129 255 f;
#X obj 177 256 + 1;
#X obj 124 283 t b f;
#X obj 124 308 array random hann;
#X obj 144 379 tabwrite noise;
#X obj 135 354 - 1;
#N canvas 0 22 450 278 (subpatch) 0;
#X array noise 1000 float 2;
#X coords 0 1 1000 -1 1000 300 1 0 0;
#X restore 32 441 graph;
#X msg 129 196 1000;
#X obj 279 109 array size hann;
#X obj 130 331 / 2;
#X msg 499 116 5;
#X obj 495 243 / 4;
#X msg 283 78 5;
#X connect 0 0 1 0;
#X connect 1 0 2 0;
#X connect 2 0 4 0;
#X connect 3 0 8 0;
#X connect 5 0 8 1;
#X connect 6 0 27 0;
#X connect 6 1 5 0;
#X connect 7 0 6 0;
#X connect 8 0 9 0;
#X connect 8 0 10 0;
#X connect 9 0 8 1;
#X connect 10 0 28 0;
#X connect 10 1 4 1;
#X connect 11 0 0 0;
#X connect 13 0 17 0;
#X connect 14 0 17 1;
#X connect 15 0 24 0;
#X connect 15 1 14 0;
#X connect 16 0 15 0;
#X connect 17 0 18 0;
#X connect 17 0 19 0;
#X connect 18 0 17 1;
#X connect 19 0 20 0;
#X connect 19 1 21 1;
#X connect 20 0 26 0;
#X connect 22 0 21 0;
#X connect 24 0 13 0;
#X connect 26 0 22 0;
#X connect 27 0 3 0;
#X connect 28 0 11 0;
#X connect 29 0 25 0;
