#N canvas 411 339 437 470 10;
#X obj 92 75 inlet;
#X obj 254 75 inlet;
#X obj 174 199 array size;
#N canvas 0 22 577 494 \$0-args 0;
#X obj 49 49 inlet;
#X obj 49 382 outlet;
#X obj 219 382 outlet;
#X msg 49 75 \$1 \$1;
#X obj 219 354 r \$0-noarg;
#X obj 49 354 r \$0-thisarg;
#N canvas 0 22 254 277 \$0-test-1 0;
#X obj 41 46 inlet;
#X obj 113 102 makefilename $%d-;
#X obj 41 75 t b f;
#X obj 41 102 symbol \$1-;
#X obj 41 130 sel s;
#X obj 68 153 b;
#X obj 68 176 list append \$1;
#X obj 41 222 s \$0-noarg;
#X obj 68 200 s \$0-thisarg;
#X connect 0 0 2 0;
#X connect 1 0 4 1;
#X connect 2 0 3 0;
#X connect 2 1 1 0;
#X connect 3 0 4 0;
#X connect 4 0 7 0;
#X connect 4 1 5 0;
#X connect 5 0 6 0;
#X connect 6 0 8 0;
#X restore 49 326 pd \$0-test-1;
#N canvas 0 22 254 277 \$0-test-2 0;
#X obj 41 46 inlet;
#X obj 113 102 makefilename $%d-;
#X obj 41 75 t b f;
#X obj 41 130 sel s;
#X obj 68 153 b;
#X obj 41 222 s \$0-noarg;
#X obj 68 200 s \$0-thisarg;
#X obj 41 102 symbol \$2-;
#X obj 68 176 list append \$2;
#X connect 0 0 2 0;
#X connect 1 0 3 1;
#X connect 2 0 7 0;
#X connect 2 1 1 0;
#X connect 3 0 5 0;
#X connect 3 1 4 0;
#X connect 4 0 8 0;
#X connect 7 0 3 0;
#X connect 8 0 6 0;
#X restore 64 304 pd \$0-test-2;
#N canvas 0 22 254 277 \$0-test-3 0;
#X obj 41 46 inlet;
#X obj 113 102 makefilename $%d-;
#X obj 41 75 t b f;
#X obj 41 130 sel s;
#X obj 68 153 b;
#X obj 41 222 s \$0-noarg;
#X obj 68 200 s \$0-thisarg;
#X obj 41 102 symbol \$3-;
#X obj 68 176 list append \$3;
#X connect 0 0 2 0;
#X connect 1 0 3 1;
#X connect 2 0 7 0;
#X connect 2 1 1 0;
#X connect 3 0 5 0;
#X connect 3 1 4 0;
#X connect 4 0 8 0;
#X connect 7 0 3 0;
#X connect 8 0 6 0;
#X restore 79 283 pd \$0-test-3;
#N canvas 0 22 254 277 \$0-test-4 0;
#X obj 41 46 inlet;
#X obj 113 102 makefilename $%d-;
#X obj 41 75 t b f;
#X obj 41 130 sel s;
#X obj 68 153 b;
#X obj 41 222 s \$0-noarg;
#X obj 68 200 s \$0-thisarg;
#X obj 41 102 symbol \$4-;
#X obj 68 176 list append \$4;
#X connect 0 0 2 0;
#X connect 1 0 3 1;
#X connect 2 0 7 0;
#X connect 2 1 1 0;
#X connect 3 0 5 0;
#X connect 3 1 4 0;
#X connect 4 0 8 0;
#X connect 7 0 3 0;
#X connect 8 0 6 0;
#X restore 94 261 pd \$0-test-4;
#N canvas 0 22 254 277 \$0-test-5 0;
#X obj 41 46 inlet;
#X obj 113 102 makefilename $%d-;
#X obj 41 75 t b f;
#X obj 41 130 sel s;
#X obj 68 153 b;
#X obj 41 222 s \$0-noarg;
#X obj 68 200 s \$0-thisarg;
#X obj 41 102 symbol \$5-;
#X obj 68 176 list append \$5;
#X connect 0 0 2 0;
#X connect 1 0 3 1;
#X connect 2 0 7 0;
#X connect 2 1 1 0;
#X connect 3 0 5 0;
#X connect 3 1 4 0;
#X connect 4 0 8 0;
#X connect 7 0 3 0;
#X connect 8 0 6 0;
#X restore 110 239 pd \$0-test-5;
#N canvas 0 22 254 277 \$0-test-6 0;
#X obj 41 46 inlet;
#X obj 113 102 makefilename $%d-;
#X obj 41 75 t b f;
#X obj 41 130 sel s;
#X obj 68 153 b;
#X obj 41 222 s \$0-noarg;
#X obj 68 200 s \$0-thisarg;
#X obj 41 102 symbol \$6-;
#X obj 68 176 list append \$6;
#X connect 0 0 2 0;
#X connect 1 0 3 1;
#X connect 2 0 7 0;
#X connect 2 1 1 0;
#X connect 3 0 5 0;
#X connect 3 1 4 0;
#X connect 4 0 8 0;
#X connect 7 0 3 0;
#X connect 8 0 6 0;
#X restore 125 217 pd \$0-test-6;
#N canvas 0 22 254 277 \$0-test-7 0;
#X obj 41 46 inlet;
#X obj 113 102 makefilename $%d-;
#X obj 41 75 t b f;
#X obj 41 130 sel s;
#X obj 68 153 b;
#X obj 41 222 s \$0-noarg;
#X obj 68 200 s \$0-thisarg;
#X obj 41 102 symbol \$7-;
#X obj 68 176 list append \$7;
#X connect 0 0 2 0;
#X connect 1 0 3 1;
#X connect 2 0 7 0;
#X connect 2 1 1 0;
#X connect 3 0 5 0;
#X connect 3 1 4 0;
#X connect 4 0 8 0;
#X connect 7 0 3 0;
#X connect 8 0 6 0;
#X restore 140 195 pd \$0-test-7;
#N canvas 0 22 254 277 \$0-test-8 0;
#X obj 41 46 inlet;
#X obj 113 102 makefilename $%d-;
#X obj 41 75 t b f;
#X obj 41 130 sel s;
#X obj 68 153 b;
#X obj 41 222 s \$0-noarg;
#X obj 68 200 s \$0-thisarg;
#X obj 41 102 symbol \$8-;
#X obj 68 176 list append \$8;
#X connect 0 0 2 0;
#X connect 1 0 3 1;
#X connect 2 0 7 0;
#X connect 2 1 1 0;
#X connect 3 0 5 0;
#X connect 3 1 4 0;
#X connect 4 0 8 0;
#X connect 7 0 3 0;
#X connect 8 0 6 0;
#X restore 156 173 pd \$0-test-8;
#X obj 49 101 route 1 2 3 4 5 6 7 8 9 10;
#N canvas 0 22 254 277 \$0-test-9 0;
#X obj 41 46 inlet;
#X obj 113 102 makefilename $%d-;
#X obj 41 75 t b f;
#X obj 41 130 sel s;
#X obj 68 153 b;
#X obj 41 222 s \$0-noarg;
#X obj 68 200 s \$0-thisarg;
#X obj 41 102 symbol \$9-;
#X obj 68 176 list append \$9;
#X connect 0 0 2 0;
#X connect 1 0 3 1;
#X connect 2 0 7 0;
#X connect 2 1 1 0;
#X connect 3 0 5 0;
#X connect 3 1 4 0;
#X connect 4 0 8 0;
#X connect 7 0 3 0;
#X connect 8 0 6 0;
#X restore 171 151 pd \$0-test-9;
#N canvas 0 22 254 277 \$0-test-10 0;
#X obj 41 46 inlet;
#X obj 113 102 makefilename $%d-;
#X obj 41 75 t b f;
#X obj 41 130 sel s;
#X obj 68 153 b;
#X obj 41 222 s \$0-noarg;
#X obj 68 200 s \$0-thisarg;
#X obj 41 102 symbol \$10-;
#X obj 68 176 list append \$10;
#X connect 0 0 2 0;
#X connect 1 0 3 1;
#X connect 2 0 7 0;
#X connect 2 1 1 0;
#X connect 3 0 5 0;
#X connect 3 1 4 0;
#X connect 4 0 8 0;
#X connect 7 0 3 0;
#X connect 8 0 6 0;
#X restore 186 129 pd \$0-test-10;
#X text 42 419 argument if it exists;
#X text 216 419 bang if it doesn't;
#X text 194 35 This subpatch tests for the presence of up to 10 creation
arguments. After IOhannes Zmölnig.;
#X text 46 27 argument number;
#X connect 0 0 3 0;
#X connect 3 0 14 0;
#X connect 4 0 2 0;
#X connect 5 0 1 0;
#X connect 14 0 6 0;
#X connect 14 1 7 0;
#X connect 14 2 8 0;
#X connect 14 3 9 0;
#X connect 14 4 10 0;
#X connect 14 5 11 0;
#X connect 14 6 12 0;
#X connect 14 7 13 0;
#X connect 14 8 15 0;
#X connect 14 9 16 0;
#X restore 278 154 pd \$0-args;
#X obj 278 105 loadbang;
#X msg 278 129 1;
#X obj 92 142 t f b;
#X obj 137 369 outlet;
#X obj 92 199 moses 0, f 8;
#X obj 92 240 +;
#X text 93 399 2015 Matt Barber;
#X obj 254 242 list prepend set;
#X obj 254 276 list trim;
#X obj 92 101 list split 1;
#X obj 168 142 route bang;
#X obj 254 182 t a b;
#X msg 191 246 0;
#X obj 92 277 spigot;
#N canvas 228 408 346 293 \$0-hermite 1;
#X obj 57 38 inlet;
#X obj 137 38 inlet;
#X obj 257 38 inlet;
#X obj 57 227 outlet;
#X obj 57 106 min;
#X obj 257 66 s \$0-set;
#N canvas 1026 86 761 678 \$0-get 1;
#X obj 50 22 inlet;
#X obj 50 522 outlet;
#X obj 124 75 int;
#X obj 109 113 -;
#X obj 100 396 tabread;
#X obj 122 371 r \$0-set;
#X obj 570 396 tabread;
#X obj 592 371 r \$0-set;
#X obj 200 396 tabread;
#X obj 222 371 r \$0-set;
#X obj 390 396 tabread;
#X obj 412 371 r \$0-set;
#X obj 390 442 s \$0-b;
#X obj 570 320 r \$0-i1;
#X obj 570 442 s \$0-a;
#X obj 200 442 s \$0-c;
#X obj 100 442 s \$0-d;
#X obj 50 47 t b b f f;
#X obj 67 113 f;
#X obj 480 396 tabread;
#X obj 502 371 r \$0-set;
#X obj 480 320 r \$0-i2;
#X obj 480 442 s \$0-f;
#X obj 300 396 tabread;
#X obj 322 371 r \$0-set;
#X obj 300 442 s \$0-e;
#X obj 390 320 r \$0-i2;
#X obj 300 320 r \$0-i3;
#X obj 200 320 r \$0-i4;
#X obj 100 320 r \$0-i5;
#X obj 67 164 t f f f f f;
#X obj 130 186 s \$0-i1;
#X obj 114 209 s \$0-i2;
#X obj 67 278 s \$0-i5;
#X obj 82 255 s \$0-i4;
#X obj 98 232 s \$0-i3;
#X obj 109 136 s \$0-fr;
#X obj 570 346 - 2;
#X obj 390 346 - 1;
#X obj 100 346 + 1;
#X obj 300 346 + 2;
#X obj 480 346 + 3;
#X connect 0 0 17 0;
#X connect 2 0 3 1;
#X connect 2 0 18 1;
#X connect 3 0 36 0;
#X connect 4 0 16 0;
#X connect 5 0 4 0;
#X connect 6 0 14 0;
#X connect 7 0 6 0;
#X connect 8 0 15 0;
#X connect 9 0 8 0;
#X connect 10 0 12 0;
#X connect 11 0 10 0;
#X connect 13 0 37 0;
#X connect 17 0 1 0;
#X connect 17 1 18 0;
#X connect 17 2 3 0;
#X connect 17 3 2 0;
#X connect 18 0 30 0;
#X connect 19 0 22 0;
#X connect 20 0 19 0;
#X connect 21 0 41 0;
#X connect 23 0 25 0;
#X connect 24 0 23 0;
#X connect 26 0 38 0;
#X connect 27 0 40 0;
#X connect 28 0 8 0;
#X connect 29 0 39 0;
#X connect 30 0 33 0;
#X connect 30 1 34 0;
#X connect 30 2 35 0;
#X connect 30 3 32 0;
#X connect 30 4 31 0;
#X connect 37 0 6 0;
#X connect 38 0 10 0;
#X connect 39 0 4 0;
#X connect 40 0 23 0;
#X connect 41 0 19 0;
#X restore 57 157 pd \$0-get;
#N canvas 910 176 1166 1012 \$0-calc 1;
#X obj 50 192 inlet;
#X obj 50 956 outlet;
#X obj 148 603 *;
#X obj 50 309 f;
#X obj 148 755 *;
#X obj 148 875 *;
#X obj 148 814 +;
#X obj 50 922 +;
#X obj 148 694 +;
#X obj 65 281 r \$0-c;
#X text 75 311 <- C0;
#X obj 562 41 loadbang;
#X obj 422 112 swap 1;
#X obj 422 141 /;
#X obj 562 141 /;
#X obj 772 141 /;
#X obj 148 443 *;
#X obj 163 256 *;
#N canvas 29 61 398 381 \$0-calc-C5 0;
#X obj 123 245 +;
#X obj 123 210 -;
#X obj 123 322 outlet;
#X obj 171 322 s \$0-C5;
#X obj 168 154 *;
#X obj 258 154 *;
#X obj 68 154 *;
#X obj 273 131 r \$0-5/24;
#X obj 183 131 r \$0-25/24;
#X obj 83 131 r \$0-25/12;
#X obj 258 99 r \$0-f-a;
#X obj 168 99 r \$0-e-b;
#X obj 68 99 r \$0-d-c;
#X connect 0 0 2 0;
#X connect 0 0 3 0;
#X connect 1 0 0 0;
#X connect 4 0 1 1;
#X connect 5 0 0 1;
#X connect 6 0 1 0;
#X connect 7 0 5 1;
#X connect 8 0 4 1;
#X connect 9 0 6 1;
#X connect 10 0 5 0;
#X connect 11 0 4 0;
#X connect 12 0 6 0;
#X restore 163 203 pd \$0-calc-C5;
#N canvas 102 514 559 498 \$0-calc-C4 0;
#X obj 125 305 +;
#X obj 125 392 outlet;
#X obj 188 392 s \$0-C4;
#X obj 61 31 inlet;
#X obj 61 184 f;
#X obj 76 85 r \$0-C5+C4+C3;
#X obj 76 145 * -1;
#X obj 366 85 r \$0-f-a;
#X obj 270 85 r \$0-e-b;
#X obj 176 85 r \$0-d-c;
#X obj 270 145 *;
#X obj 176 145 * -5.5;
#X obj 366 145 * 0.5;
#X obj 285 231 -;
#X obj 220 178 +;
#X obj 285 119 r \$0-8/3;
#X connect 0 0 1 0;
#X connect 0 0 2 0;
#X connect 3 0 4 0;
#X connect 4 0 0 0;
#X connect 5 0 6 0;
#X connect 6 0 4 1;
#X connect 7 0 12 0;
#X connect 8 0 10 0;
#X connect 9 0 11 0;
#X connect 10 0 14 1;
#X connect 11 0 14 0;
#X connect 12 0 13 1;
#X connect 13 0 0 1;
#X connect 14 0 13 0;
#X connect 15 0 10 1;
#X restore 163 356 pd \$0-calc-C4;
#X obj 148 387 +;
#X obj 148 281 f;
#X obj 50 220 t b b;
#N canvas 203 558 408 293 \$0-calc-C3 0;
#X obj 138 227 outlet;
#X obj 68 27 inlet;
#X obj 68 98 f;
#X obj 108 131 -;
#X obj 138 189 -;
#X obj 280 56 r \$0-C5;
#X obj 210 56 r \$0-C4;
#X obj 83 56 r \$0-C5+C4+C3;
#X connect 1 0 2 0;
#X connect 2 0 3 0;
#X connect 3 0 4 0;
#X connect 4 0 0 0;
#X connect 5 0 4 1;
#X connect 6 0 3 1;
#X connect 7 0 2 1;
#X restore 163 506 pd \$0-calc-C3;
#X obj 148 539 +;
#N canvas 97 317 324 339 \$0-calc-C2 0;
#X obj 115 312 outlet;
#X obj 129 60 r \$0-c;
#X obj 40 60 r \$0-d;
#X obj 40 112 +;
#X obj 55 86 r \$0-b;
#X obj 129 165 * 1.25;
#X obj 40 165 *;
#X obj 55 140 r \$0-2/3;
#X obj 115 255 -;
#X obj 228 112 +;
#X obj 228 165 *;
#X obj 228 60 r \$0-e;
#X obj 243 86 r \$0-a;
#X obj 243 140 r \$0-1/24;
#X obj 180 215 +;
#X connect 1 0 5 0;
#X connect 2 0 3 0;
#X connect 3 0 6 0;
#X connect 4 0 3 1;
#X connect 5 0 14 0;
#X connect 6 0 8 0;
#X connect 7 0 6 1;
#X connect 8 0 0 0;
#X connect 9 0 10 0;
#X connect 10 0 14 1;
#X connect 11 0 9 0;
#X connect 12 0 9 1;
#X connect 13 0 10 1;
#X connect 14 0 8 1;
#X restore 163 665 pd \$0-calc-C2;
#N canvas 390 454 348 343 \$0-calc-C1 1;
#X obj 135 282 outlet;
#X obj 199 128 -;
#X obj 135 215 -;
#X obj 199 75 r \$0-e;
#X obj 214 101 r \$0-a;
#X obj 199 181 *;
#X obj 89 128 -;
#X obj 89 181 *;
#X obj 89 75 r \$0-d;
#X obj 104 101 r \$0-b;
#X obj 104 154 r \$0-2/3;
#X obj 214 154 r \$0-1/12;
#X connect 1 0 5 0;
#X connect 2 0 0 0;
#X connect 3 0 1 0;
#X connect 4 0 1 1;
#X connect 5 0 2 1;
#X connect 6 0 7 0;
#X connect 7 0 2 0;
#X connect 8 0 6 0;
#X connect 9 0 6 1;
#X connect 10 0 7 1;
#X connect 11 0 5 1;
#X restore 163 786 pd \$0-calc-C1;
#X obj 178 229 r \$0-fr;
#X obj 163 416 r \$0-fr;
#X obj 163 576 r \$0-fr;
#X obj 163 725 r \$0-fr;
#X obj 163 845 r \$0-fr;
#X text 194 257 <- C5*fr;
#X text 180 446 <- C4*fr + C5*fr^2;
#X text 180 604 <- C3*fr + C4*fr^2 + C5*fr^3;
#X text 180 757 <- C2*fr + C3*fr^2 + C4*fr^3 + C5*fr^4;
#X text 180 874 <- C1*fr + C2*fr^2 + C3*fr^3 + C4*fr^4 + C5*fr^5;
#X text 80 922 <- C0 + C1*fr + C2*fr^2 + C3*fr^3 + C4*fr^4 + C5*fr^5
;
#X text 429 196 Get precise reciprocals..;
#X obj 148 471 t f b;
#X obj 492 141 /;
#X msg 492 86 24;
#X obj 492 112 swap 5;
#X obj 492 170 s \$0-5/24;
#X obj 702 141 /;
#X msg 702 86 12;
#X msg 772 86 3;
#X obj 148 317 t f b;
#X obj 631 333 -;
#X msg 422 86 24;
#X obj 422 170 s \$0-1/24;
#X msg 562 86 24;
#X obj 562 112 swap 25;
#X obj 562 170 s \$0-25/24;
#X obj 702 112 swap 25;
#X obj 702 170 s \$0-25/12;
#X obj 837 141 /;
#X msg 837 86 3;
#X obj 907 141 /;
#X msg 907 86 3;
#X obj 837 112 swap 2;
#X obj 837 170 s \$0-2/3;
#X obj 907 112 swap 8;
#X obj 907 170 s \$0-8/3;
#X obj 631 281 r \$0-f;
#X obj 646 306 r \$0-a;
#X obj 631 365 s \$0-f-a;
#X obj 561 333 -;
#X obj 491 333 -;
#X obj 561 281 r \$0-e;
#X obj 576 306 r \$0-b;
#X obj 561 365 s \$0-e-b;
#X obj 491 281 r \$0-d;
#X obj 506 306 r \$0-c;
#X obj 491 365 s \$0-d-c;
#X obj 491 420 r \$0-d;
#X obj 576 420 r \$0-c;
#X obj 707 420 r \$0-a;
#X obj 649 420 r \$0-e;
#X obj 707 470 *;
#X obj 722 445 r \$0-1/24;
#X obj 649 470 * 0.125;
#X obj 679 518 -;
#X obj 576 470 * 0.25;
#X obj 491 470 *;
#X obj 531 518 +;
#X obj 602 559 +;
#X obj 602 593 s \$0-C5+C4+C3;
#X text 28 27 out = C0 + C1*f + C2*f^2 + C3*f^3 + C4*f^4 + C5*f^5 \;
\; C5+C4+C3 = 0.125*e - (1/3)*d + 0.25*c - (1/24)*a (7ops) \; C5 =
(5/24)*(f-a) - (25/24)*(e-b) + (25/12)*(d-c) (8ops) \; C4 = (8/3)*(e-b)
- 0.5*(f-a) - 5.5*(d-c) - (C5+C4+C3) (6ops) \; C3 = C5+C4+C3 - C5 -
C4 (2 ops) \; C2 = (2/3)*(d+b) - (1/24)*(e+a) - 1.25*c \; C1 = (2/3)*(d-b)
- (1/24)*(e-a) \; C0 = c, f 62;
#X obj 506 445 r \$0--1/3;
#X obj 772 112 swap -1;
#X obj 772 170 s \$0--1/3;
#X obj 632 141 /;
#X msg 632 86 12;
#X obj 632 112 swap 1;
#X obj 632 170 s \$0-1/12;
#X connect 0 0 22 0;
#X connect 2 0 8 0;
#X connect 3 0 7 0;
#X connect 4 0 6 0;
#X connect 5 0 7 1;
#X connect 6 0 5 0;
#X connect 7 0 1 0;
#X connect 8 0 4 0;
#X connect 9 0 3 1;
#X connect 11 0 49 0;
#X connect 11 0 51 0;
#X connect 11 0 46 0;
#X connect 11 0 41 0;
#X connect 11 0 45 0;
#X connect 11 0 57 0;
#X connect 11 0 59 0;
#X connect 11 0 93 0;
#X connect 12 0 13 0;
#X connect 12 1 13 1;
#X connect 13 0 50 0;
#X connect 14 0 53 0;
#X connect 15 0 91 0;
#X connect 16 0 39 0;
#X connect 17 0 21 1;
#X connect 18 0 17 0;
#X connect 19 0 20 1;
#X connect 20 0 16 0;
#X connect 21 0 47 0;
#X connect 22 0 3 0;
#X connect 22 1 21 0;
#X connect 23 0 24 1;
#X connect 24 0 2 0;
#X connect 25 0 8 1;
#X connect 26 0 6 1;
#X connect 27 0 17 1;
#X connect 28 0 16 1;
#X connect 29 0 2 1;
#X connect 30 0 4 1;
#X connect 31 0 5 1;
#X connect 39 0 24 0;
#X connect 39 1 23 0;
#X connect 40 0 43 0;
#X connect 41 0 42 0;
#X connect 42 0 40 0;
#X connect 42 1 40 1;
#X connect 44 0 55 0;
#X connect 45 0 54 0;
#X connect 46 0 90 0;
#X connect 47 0 20 0;
#X connect 47 1 19 0;
#X connect 48 0 66 0;
#X connect 49 0 12 0;
#X connect 51 0 52 0;
#X connect 52 0 14 0;
#X connect 52 1 14 1;
#X connect 54 0 44 0;
#X connect 54 1 44 1;
#X connect 56 0 61 0;
#X connect 57 0 60 0;
#X connect 58 0 63 0;
#X connect 59 0 62 0;
#X connect 60 0 56 0;
#X connect 60 1 56 1;
#X connect 62 0 58 0;
#X connect 62 1 58 1;
#X connect 64 0 48 0;
#X connect 65 0 48 1;
#X connect 67 0 71 0;
#X connect 68 0 74 0;
#X connect 69 0 67 0;
#X connect 70 0 67 1;
#X connect 72 0 68 0;
#X connect 73 0 68 1;
#X connect 75 0 84 0;
#X connect 76 0 83 0;
#X connect 77 0 79 0;
#X connect 78 0 81 0;
#X connect 79 0 82 1;
#X connect 80 0 79 1;
#X connect 81 0 82 0;
#X connect 82 0 86 1;
#X connect 83 0 85 1;
#X connect 84 0 85 0;
#X connect 85 0 86 0;
#X connect 86 0 87 0;
#X connect 89 0 84 1;
#X connect 90 0 15 0;
#X connect 90 1 15 1;
#X connect 92 0 95 0;
#X connect 93 0 94 0;
#X connect 94 0 92 0;
#X connect 94 1 92 1;
#X restore 57 197 pd \$0-calc;
#X obj 72 80 - 3;
#X obj 57 131 max 2;
#X connect 0 0 4 0;
#X connect 1 0 8 0;
#X connect 2 0 5 0;
#X connect 4 0 9 0;
#X connect 6 0 7 0;
#X connect 7 0 3 0;
#X connect 8 0 4 1;
#X connect 9 0 6 0;
#X restore 137 342 pd \$0-hermite;
#X connect 0 0 13 0;
#X connect 1 0 15 0;
#X connect 2 0 9 1;
#X connect 2 0 18 1;
#X connect 2 0 17 1;
#X connect 3 0 15 0;
#X connect 4 0 5 0;
#X connect 5 0 3 0;
#X connect 6 0 8 0;
#X connect 6 1 2 0;
#X connect 8 0 9 0;
#X connect 8 1 18 0;
#X connect 9 0 17 0;
#X connect 11 0 12 0;
#X connect 12 0 18 2;
#X connect 13 0 6 0;
#X connect 13 1 14 0;
#X connect 13 2 6 0;
#X connect 14 1 15 0;
#X connect 15 0 2 1;
#X connect 15 0 11 0;
#X connect 15 1 16 0;
#X connect 16 0 17 1;
#X connect 17 0 18 0;
#X connect 18 0 7 0;
