#N canvas 950 22 1006 839 10;
#X obj 304 66 inlet;
#N canvas 0 22 577 494 \$0-args 0;
#X obj 49 49 inlet;
#X obj 49 382 outlet;
#X obj 219 382 outlet;
#X msg 49 75 \$1 \$1;
#X obj 219 354 r \$0-noarg;
#X obj 49 354 r \$0-thisarg;
#N canvas 0 22 254 277 \$0-test-1 0;
#X obj 41 46 inlet;
#X obj 113 102 makefilename $%d-;
#X obj 41 75 t b f;
#X obj 41 102 symbol \$1-;
#X obj 41 130 sel s;
#X obj 68 153 b;
#X obj 68 176 list append \$1;
#X obj 41 222 s \$0-noarg;
#X obj 68 200 s \$0-thisarg;
#X connect 0 0 2 0;
#X connect 1 0 4 1;
#X connect 2 0 3 0;
#X connect 2 1 1 0;
#X connect 3 0 4 0;
#X connect 4 0 7 0;
#X connect 4 1 5 0;
#X connect 5 0 6 0;
#X connect 6 0 8 0;
#X restore 49 326 pd \$0-test-1;
#N canvas 0 22 254 277 \$0-test-2 0;
#X obj 41 46 inlet;
#X obj 113 102 makefilename $%d-;
#X obj 41 75 t b f;
#X obj 41 130 sel s;
#X obj 68 153 b;
#X obj 41 222 s \$0-noarg;
#X obj 68 200 s \$0-thisarg;
#X obj 41 102 symbol \$2-;
#X obj 68 176 list append \$2;
#X connect 0 0 2 0;
#X connect 1 0 3 1;
#X connect 2 0 7 0;
#X connect 2 1 1 0;
#X connect 3 0 5 0;
#X connect 3 1 4 0;
#X connect 4 0 8 0;
#X connect 7 0 3 0;
#X connect 8 0 6 0;
#X restore 64 304 pd \$0-test-2;
#N canvas 0 22 254 277 \$0-test-3 0;
#X obj 41 46 inlet;
#X obj 113 102 makefilename $%d-;
#X obj 41 75 t b f;
#X obj 41 130 sel s;
#X obj 68 153 b;
#X obj 41 222 s \$0-noarg;
#X obj 68 200 s \$0-thisarg;
#X obj 41 102 symbol \$3-;
#X obj 68 176 list append \$3;
#X connect 0 0 2 0;
#X connect 1 0 3 1;
#X connect 2 0 7 0;
#X connect 2 1 1 0;
#X connect 3 0 5 0;
#X connect 3 1 4 0;
#X connect 4 0 8 0;
#X connect 7 0 3 0;
#X connect 8 0 6 0;
#X restore 79 283 pd \$0-test-3;
#N canvas 0 22 254 277 \$0-test-4 0;
#X obj 41 46 inlet;
#X obj 113 102 makefilename $%d-;
#X obj 41 75 t b f;
#X obj 41 130 sel s;
#X obj 68 153 b;
#X obj 41 222 s \$0-noarg;
#X obj 68 200 s \$0-thisarg;
#X obj 41 102 symbol \$4-;
#X obj 68 176 list append \$4;
#X connect 0 0 2 0;
#X connect 1 0 3 1;
#X connect 2 0 7 0;
#X connect 2 1 1 0;
#X connect 3 0 5 0;
#X connect 3 1 4 0;
#X connect 4 0 8 0;
#X connect 7 0 3 0;
#X connect 8 0 6 0;
#X restore 94 261 pd \$0-test-4;
#N canvas 0 22 254 277 \$0-test-5 0;
#X obj 41 46 inlet;
#X obj 113 102 makefilename $%d-;
#X obj 41 75 t b f;
#X obj 41 130 sel s;
#X obj 68 153 b;
#X obj 41 222 s \$0-noarg;
#X obj 68 200 s \$0-thisarg;
#X obj 41 102 symbol \$5-;
#X obj 68 176 list append \$5;
#X connect 0 0 2 0;
#X connect 1 0 3 1;
#X connect 2 0 7 0;
#X connect 2 1 1 0;
#X connect 3 0 5 0;
#X connect 3 1 4 0;
#X connect 4 0 8 0;
#X connect 7 0 3 0;
#X connect 8 0 6 0;
#X restore 110 239 pd \$0-test-5;
#N canvas 0 22 254 277 \$0-test-6 0;
#X obj 41 46 inlet;
#X obj 113 102 makefilename $%d-;
#X obj 41 75 t b f;
#X obj 41 130 sel s;
#X obj 68 153 b;
#X obj 41 222 s \$0-noarg;
#X obj 68 200 s \$0-thisarg;
#X obj 41 102 symbol \$6-;
#X obj 68 176 list append \$6;
#X connect 0 0 2 0;
#X connect 1 0 3 1;
#X connect 2 0 7 0;
#X connect 2 1 1 0;
#X connect 3 0 5 0;
#X connect 3 1 4 0;
#X connect 4 0 8 0;
#X connect 7 0 3 0;
#X connect 8 0 6 0;
#X restore 125 217 pd \$0-test-6;
#N canvas 0 22 254 277 \$0-test-7 0;
#X obj 41 46 inlet;
#X obj 113 102 makefilename $%d-;
#X obj 41 75 t b f;
#X obj 41 130 sel s;
#X obj 68 153 b;
#X obj 41 222 s \$0-noarg;
#X obj 68 200 s \$0-thisarg;
#X obj 41 102 symbol \$7-;
#X obj 68 176 list append \$7;
#X connect 0 0 2 0;
#X connect 1 0 3 1;
#X connect 2 0 7 0;
#X connect 2 1 1 0;
#X connect 3 0 5 0;
#X connect 3 1 4 0;
#X connect 4 0 8 0;
#X connect 7 0 3 0;
#X connect 8 0 6 0;
#X restore 140 195 pd \$0-test-7;
#N canvas 0 22 254 277 \$0-test-8 0;
#X obj 41 46 inlet;
#X obj 113 102 makefilename $%d-;
#X obj 41 75 t b f;
#X obj 41 130 sel s;
#X obj 68 153 b;
#X obj 41 222 s \$0-noarg;
#X obj 68 200 s \$0-thisarg;
#X obj 41 102 symbol \$8-;
#X obj 68 176 list append \$8;
#X connect 0 0 2 0;
#X connect 1 0 3 1;
#X connect 2 0 7 0;
#X connect 2 1 1 0;
#X connect 3 0 5 0;
#X connect 3 1 4 0;
#X connect 4 0 8 0;
#X connect 7 0 3 0;
#X connect 8 0 6 0;
#X restore 156 173 pd \$0-test-8;
#X obj 49 101 route 1 2 3 4 5 6 7 8 9 10;
#N canvas 0 22 254 277 \$0-test-9 0;
#X obj 41 46 inlet;
#X obj 113 102 makefilename $%d-;
#X obj 41 75 t b f;
#X obj 41 130 sel s;
#X obj 68 153 b;
#X obj 41 222 s \$0-noarg;
#X obj 68 200 s \$0-thisarg;
#X obj 41 102 symbol \$9-;
#X obj 68 176 list append \$9;
#X connect 0 0 2 0;
#X connect 1 0 3 1;
#X connect 2 0 7 0;
#X connect 2 1 1 0;
#X connect 3 0 5 0;
#X connect 3 1 4 0;
#X connect 4 0 8 0;
#X connect 7 0 3 0;
#X connect 8 0 6 0;
#X restore 171 151 pd \$0-test-9;
#N canvas 0 22 254 277 \$0-test-10 0;
#X obj 41 46 inlet;
#X obj 113 102 makefilename $%d-;
#X obj 41 75 t b f;
#X obj 41 130 sel s;
#X obj 68 153 b;
#X obj 41 222 s \$0-noarg;
#X obj 68 200 s \$0-thisarg;
#X obj 41 102 symbol \$10-;
#X obj 68 176 list append \$10;
#X connect 0 0 2 0;
#X connect 1 0 3 1;
#X connect 2 0 7 0;
#X connect 2 1 1 0;
#X connect 3 0 5 0;
#X connect 3 1 4 0;
#X connect 4 0 8 0;
#X connect 7 0 3 0;
#X connect 8 0 6 0;
#X restore 186 129 pd \$0-test-10;
#X text 46 27 argument number;
#X text 42 419 argument if it exists;
#X text 216 419 bang if it doesn't;
#X text 194 35 This subpatch tests for the presence of up to 10 creation
arguments. After IOhannes Zmölnig.;
#X connect 0 0 3 0;
#X connect 3 0 14 0;
#X connect 4 0 2 0;
#X connect 5 0 1 0;
#X connect 14 0 6 0;
#X connect 14 1 7 0;
#X connect 14 2 8 0;
#X connect 14 3 9 0;
#X connect 14 4 10 0;
#X connect 14 5 11 0;
#X connect 14 6 12 0;
#X connect 14 7 13 0;
#X connect 14 8 15 0;
#X connect 14 9 16 0;
#X restore 567 167 pd \$0-args;
#X obj 539 32 loadbang;
#X obj 540 457 s \$0-name;
#X obj 599 142 + 1;
#X obj 567 142 f 1;
#X obj 567 112 until;
#X obj 567 197 list prepend;
#X obj 540 56 t b b;
#X obj 540 233 list;
#X obj 655 197 t a;
#X obj 540 261 list split 1;
#X obj 574 286 unpack 0 -1 0;
#X obj 68 66 inlet;
#X obj 114 66 inlet;
#X msg 567 86 4;
#X obj 238 401 min;
#X obj 68 210 array size;
#X obj 125 184 r \$0-name;
#X obj 68 153 t b a;
#X obj 193 310 moses 0, f 8;
#X obj 193 401 +;
#X obj 193 285 f;
#X obj 68 240 t b f;
#X obj 193 735 outlet;
#X obj 303 735 outlet;
#X obj 68 123 pack 0 -1 0, f 16;
#X obj 208 170 unpack 0 -1 0, f 24;
#X text 659 31 Args (all optional) \; 1: array name \; 2: direction
(>=0 : up \, <0 : down) \; 3: onset (can be negative) \; 4: number
of points (<0 : end of array in specified direction) \;;
#X obj 349 198 moses 0;
#X msg 349 225 -1;
#X msg 388 225 1;
#X obj 304 95 s \$0-name;
#X obj 161 66 inlet;
#X text 22 39 Onset or bang;
#X text 114 40 n_pts;
#X text 160 41 direction;
#X text 302 42 array name;
#X obj 95 282 s \$0-size;
#X obj 253 356 r \$0-size;
#X obj 400 735 outlet;
#X obj 400 631 f;
#X obj 649 320 s \$0-direction-init;
#X obj 349 258 s \$0-direction;
#X obj 415 545 r \$0-direction;
#N canvas 166 22 498 568 \$0-direction-gate 0;
#X obj 221 72 inlet;
#X obj 285 72 inlet;
#X obj 357 72 inlet;
#X text 378 37 direction;
#X text 280 36 backward case;
#X text 174 34 foreward case;
#X obj 357 127 == 1;
#X obj 357 159 == 0;
#X obj 221 201 spigot;
#X obj 285 201 spigot;
#X obj 247 443 outlet;
#X obj 86 451 outlet;
#X obj 61 290 v \$0-foreward-onset;
#X obj 122 332 v \$0-backward-onset;
#X obj 61 332 max 0;
#X obj 220 241 t b a;
#X obj 294 243 t b a;
#X obj 158 369 r \$0-size;
#X obj 88 409 f;
#X obj 103 354 moses 0;
#X obj 88 384 b;
#X connect 0 0 8 0;
#X connect 1 0 9 0;
#X connect 2 0 6 0;
#X connect 6 0 7 0;
#X connect 6 0 8 1;
#X connect 7 0 9 1;
#X connect 8 0 15 0;
#X connect 9 0 16 0;
#X connect 12 0 14 0;
#X connect 13 0 19 0;
#X connect 14 0 11 0;
#X connect 15 0 12 0;
#X connect 15 1 10 0;
#X connect 16 0 13 0;
#X connect 16 1 10 0;
#X connect 17 0 18 1;
#X connect 18 0 11 0;
#X connect 19 0 20 0;
#X connect 19 1 11 0;
#X connect 20 0 18 0;
#X restore 193 631 pd \$0-direction-gate;
#X obj 334 545 r \$0-size;
#X obj 574 377 s \$0-onset-init;
#N canvas 421 584 636 304 \$0-init 0;
#X obj 39 236 outlet;
#X obj 39 46 inlet;
#X obj 96 198 r \$0-onset-init;
#X obj 209 236 outlet;
#X obj 209 46 inlet;
#X obj 305 236 outlet;
#X obj 305 46 inlet;
#X obj 322 198 r \$0-direction-init;
#X obj 39 79 list split 3;
#X obj 96 169 s \$0-name;
#X obj 96 143 route symbol;
#X obj 226 198 r \$0-p-init, f 16;
#X connect 1 0 8 0;
#X connect 2 0 0 0;
#X connect 4 0 3 0;
#X connect 6 0 5 0;
#X connect 7 0 5 0;
#X connect 8 0 0 0;
#X connect 8 1 10 0;
#X connect 8 2 0 0;
#X connect 10 0 9 0;
#X connect 11 0 3 0;
#X restore 68 94 pd \$0-init;
#X obj 540 406 list trim;
#X obj 540 432 symbol;
#X obj 193 435 int;
#X obj 611 348 s \$0-p-init;
#X obj 278 258 send \$0-p;
#X obj 263 544 r \$0-p;
#N canvas 216 631 463 450 \$0-bounds-check-for-p 0;
#X obj 60 40 inlet;
#X obj 60 391 outlet;
#X obj 355 391 outlet;
#X obj 60 211 f;
#X obj 60 233 moses 0;
#X text 63 17 onset;
#X obj 60 80 t b f;
#X obj 60 293 b;
#X obj 209 40 inlet;
#X obj 355 41 inlet;
#X text 357 18 size;
#X obj 262 293 int;
#X text 214 18 p;
#N canvas 0 22 749 405 \$0-p-by-endpoints 0;
#X obj 259 67 inlet;
#X obj 388 67 inlet;
#X obj 274 197 -;
#X obj 427 212 + 1;
#X obj 373 242 f;
#X obj 259 252 f;
#X obj 259 307 outlet;
#X obj 373 307 outlet;
#X text 260 333 fore;
#X text 376 332 back;
#X text 387 49 onset;
#X obj 448 67 inlet;
#X text 447 49 size;
#X text 265 49 bang;
#X text 8 272 If onset is greater than size of table minus one \, it
is an empty range., f 38;
#X obj 388 187 moses 0;
#X msg 388 212 0;
#X obj 306 101 max 0;
#X text 468 240 If normalized onset is still negative and direction
is negative \, range is empty., f 41;
#X text 21 95 Clip to 0 for forward ranges (already clipped to size
of table on high end), f 37;
#X text 462 215 p from onset to beginning;
#X text 128 224 p from onset to end;
#X obj 448 93 - 1;
#X obj 407 148 min;
#X obj 274 167 swap;
#X connect 0 0 4 0;
#X connect 0 0 5 0;
#X connect 1 0 17 0;
#X connect 1 0 23 0;
#X connect 2 0 5 1;
#X connect 3 0 4 1;
#X connect 4 0 7 0;
#X connect 5 0 6 0;
#X connect 11 0 22 0;
#X connect 11 0 24 1;
#X connect 15 0 16 0;
#X connect 15 1 3 0;
#X connect 16 0 4 1;
#X connect 17 0 24 0;
#X connect 22 0 23 1;
#X connect 23 0 15 0;
#X connect 24 0 2 0;
#X connect 24 1 2 1;
#X restore 60 318 pd \$0-p-by-endpoints;
#N canvas 55 439 606 408 \$0-explicit-p 0;
#X obj 162 52 inlet;
#X obj 320 52 inlet;
#X text 320 31 onset;
#X obj 162 328 outlet;
#X obj 305 328 outlet;
#X text 163 354 fore;
#X text 308 353 back;
#X obj 305 247 min;
#X obj 400 52 inlet;
#X text 400 31 size;
#X obj 177 192 -;
#X obj 177 217 * -1;
#X obj 162 247 min;
#X obj 215 87 max 0;
#X obj 359 196 + 1;
#X obj 320 171 moses 0;
#X msg 320 196 0;
#X text 384 211 p from onset to beginning;
#X text 31 219 p from onset to end;
#X text 170 31 p;
#X floatatom 98 284 5 0 0 0 - - -, f 5;
#X obj 320 126 min;
#X obj 395 99 - 1;
#X obj 42 133 v \$0-foreward-onset;
#X obj 425 155 v \$0-backward-onset;
#X connect 0 0 12 0;
#X connect 0 0 7 0;
#X connect 1 0 13 0;
#X connect 1 0 21 0;
#X connect 7 0 4 0;
#X connect 8 0 10 1;
#X connect 8 0 22 0;
#X connect 10 0 11 0;
#X connect 11 0 12 1;
#X connect 12 0 20 0;
#X connect 12 0 3 0;
#X connect 13 0 10 0;
#X connect 13 0 23 0;
#X connect 14 0 7 1;
#X connect 15 0 16 0;
#X connect 15 1 14 0;
#X connect 16 0 7 1;
#X connect 21 0 15 0;
#X connect 21 0 24 0;
#X connect 22 0 21 1;
#X restore 262 318 pd \$0-explicit-p;
#X floatatom 260 385 5 0 0 0 - - -, f 5;
#X connect 0 0 6 0;
#X connect 3 0 4 0;
#X connect 4 0 7 0;
#X connect 4 1 11 0;
#X connect 6 0 3 0;
#X connect 6 1 14 1;
#X connect 6 1 13 1;
#X connect 7 0 13 0;
#X connect 8 0 3 1;
#X connect 9 0 13 2;
#X connect 9 0 14 2;
#X connect 11 0 14 0;
#X connect 13 0 1 0;
#X connect 13 1 2 0;
#X connect 14 0 1 0;
#X connect 14 0 15 0;
#X connect 14 1 2 0;
#X restore 193 584 pd \$0-bounds-check-for-p;
#X msg 290 699 0;
#X obj 310 665 sel 0;
#X obj 193 463 t f b, f 35;
#X text 166 794 2015 Matt Barber;
#X connect 0 0 32 0;
#X connect 1 0 7 0;
#X connect 2 0 8 0;
#X connect 4 0 5 1;
#X connect 5 0 4 0;
#X connect 5 0 1 0;
#X connect 6 0 5 0;
#X connect 7 0 9 1;
#X connect 7 0 10 0;
#X connect 8 0 9 0;
#X connect 8 1 15 0;
#X connect 9 0 11 0;
#X connect 10 0 7 1;
#X connect 11 0 49 0;
#X connect 11 1 12 0;
#X connect 12 0 47 0;
#X connect 12 1 52 0;
#X connect 12 2 42 0;
#X connect 13 0 48 0;
#X connect 14 0 48 1;
#X connect 15 0 6 0;
#X connect 16 0 51 0;
#X connect 17 0 23 0;
#X connect 18 0 17 1;
#X connect 19 0 17 0;
#X connect 19 1 27 0;
#X connect 20 0 21 0;
#X connect 20 1 16 0;
#X connect 21 0 51 0;
#X connect 22 0 20 0;
#X connect 23 0 22 0;
#X connect 23 1 38 0;
#X connect 26 0 19 0;
#X connect 27 0 22 1;
#X connect 27 1 53 0;
#X connect 27 2 29 0;
#X connect 29 0 30 0;
#X connect 29 1 31 0;
#X connect 30 0 43 0;
#X connect 31 0 43 0;
#X connect 33 0 48 2;
#X connect 39 0 21 1;
#X connect 39 0 16 1;
#X connect 41 0 40 0;
#X connect 44 0 45 2;
#X connect 44 0 41 1;
#X connect 45 0 24 0;
#X connect 45 1 57 0;
#X connect 46 0 55 2;
#X connect 48 0 26 0;
#X connect 48 1 26 1;
#X connect 48 2 26 2;
#X connect 49 0 50 0;
#X connect 50 0 3 0;
#X connect 51 0 58 0;
#X connect 54 0 55 1;
#X connect 55 0 45 0;
#X connect 55 1 45 1;
#X connect 56 0 25 0;
#X connect 57 0 56 0;
#X connect 57 1 25 0;
#X connect 58 0 55 0;
#X connect 58 1 41 0;
