#N canvas 711 183 685 915 10;
#X obj 46 808 outlet;
#X obj 46 42 inlet;
#X obj 151 42 inlet;
#X obj 323 42 inlet;
#N canvas 0 22 577 494 \$0-args 0;
#X obj 49 49 inlet;
#X obj 49 382 outlet;
#X obj 219 382 outlet;
#X msg 49 75 \$1 \$1;
#X obj 219 354 r \$0-noarg;
#X obj 49 354 r \$0-thisarg;
#N canvas 0 22 254 277 \$0-test-1 0;
#X obj 41 46 inlet;
#X obj 113 102 makefilename $%d-;
#X obj 41 75 t b f;
#X obj 41 102 symbol \$1-;
#X obj 41 130 sel s;
#X obj 68 153 b;
#X obj 68 176 list append \$1;
#X obj 41 222 s \$0-noarg;
#X obj 68 200 s \$0-thisarg;
#X connect 0 0 2 0;
#X connect 1 0 4 1;
#X connect 2 0 3 0;
#X connect 2 1 1 0;
#X connect 3 0 4 0;
#X connect 4 0 7 0;
#X connect 4 1 5 0;
#X connect 5 0 6 0;
#X connect 6 0 8 0;
#X restore 49 326 pd \$0-test-1;
#N canvas 0 22 254 277 \$0-test-2 0;
#X obj 41 46 inlet;
#X obj 113 102 makefilename $%d-;
#X obj 41 75 t b f;
#X obj 41 130 sel s;
#X obj 68 153 b;
#X obj 41 222 s \$0-noarg;
#X obj 68 200 s \$0-thisarg;
#X obj 41 102 symbol \$2-;
#X obj 68 176 list append \$2;
#X connect 0 0 2 0;
#X connect 1 0 3 1;
#X connect 2 0 7 0;
#X connect 2 1 1 0;
#X connect 3 0 5 0;
#X connect 3 1 4 0;
#X connect 4 0 8 0;
#X connect 7 0 3 0;
#X connect 8 0 6 0;
#X restore 64 304 pd \$0-test-2;
#N canvas 0 22 254 277 \$0-test-3 0;
#X obj 41 46 inlet;
#X obj 113 102 makefilename $%d-;
#X obj 41 75 t b f;
#X obj 41 130 sel s;
#X obj 68 153 b;
#X obj 41 222 s \$0-noarg;
#X obj 68 200 s \$0-thisarg;
#X obj 41 102 symbol \$3-;
#X obj 68 176 list append \$3;
#X connect 0 0 2 0;
#X connect 1 0 3 1;
#X connect 2 0 7 0;
#X connect 2 1 1 0;
#X connect 3 0 5 0;
#X connect 3 1 4 0;
#X connect 4 0 8 0;
#X connect 7 0 3 0;
#X connect 8 0 6 0;
#X restore 79 283 pd \$0-test-3;
#N canvas 0 22 254 277 \$0-test-4 0;
#X obj 41 46 inlet;
#X obj 113 102 makefilename $%d-;
#X obj 41 75 t b f;
#X obj 41 130 sel s;
#X obj 68 153 b;
#X obj 41 222 s \$0-noarg;
#X obj 68 200 s \$0-thisarg;
#X obj 41 102 symbol \$4-;
#X obj 68 176 list append \$4;
#X connect 0 0 2 0;
#X connect 1 0 3 1;
#X connect 2 0 7 0;
#X connect 2 1 1 0;
#X connect 3 0 5 0;
#X connect 3 1 4 0;
#X connect 4 0 8 0;
#X connect 7 0 3 0;
#X connect 8 0 6 0;
#X restore 94 261 pd \$0-test-4;
#N canvas 0 22 254 277 \$0-test-5 0;
#X obj 41 46 inlet;
#X obj 113 102 makefilename $%d-;
#X obj 41 75 t b f;
#X obj 41 130 sel s;
#X obj 68 153 b;
#X obj 41 222 s \$0-noarg;
#X obj 68 200 s \$0-thisarg;
#X obj 41 102 symbol \$5-;
#X obj 68 176 list append \$5;
#X connect 0 0 2 0;
#X connect 1 0 3 1;
#X connect 2 0 7 0;
#X connect 2 1 1 0;
#X connect 3 0 5 0;
#X connect 3 1 4 0;
#X connect 4 0 8 0;
#X connect 7 0 3 0;
#X connect 8 0 6 0;
#X restore 110 239 pd \$0-test-5;
#N canvas 0 22 254 277 \$0-test-6 0;
#X obj 41 46 inlet;
#X obj 113 102 makefilename $%d-;
#X obj 41 75 t b f;
#X obj 41 130 sel s;
#X obj 68 153 b;
#X obj 41 222 s \$0-noarg;
#X obj 68 200 s \$0-thisarg;
#X obj 41 102 symbol \$6-;
#X obj 68 176 list append \$6;
#X connect 0 0 2 0;
#X connect 1 0 3 1;
#X connect 2 0 7 0;
#X connect 2 1 1 0;
#X connect 3 0 5 0;
#X connect 3 1 4 0;
#X connect 4 0 8 0;
#X connect 7 0 3 0;
#X connect 8 0 6 0;
#X restore 125 217 pd \$0-test-6;
#N canvas 0 22 254 277 \$0-test-7 0;
#X obj 41 46 inlet;
#X obj 113 102 makefilename $%d-;
#X obj 41 75 t b f;
#X obj 41 130 sel s;
#X obj 68 153 b;
#X obj 41 222 s \$0-noarg;
#X obj 68 200 s \$0-thisarg;
#X obj 41 102 symbol \$7-;
#X obj 68 176 list append \$7;
#X connect 0 0 2 0;
#X connect 1 0 3 1;
#X connect 2 0 7 0;
#X connect 2 1 1 0;
#X connect 3 0 5 0;
#X connect 3 1 4 0;
#X connect 4 0 8 0;
#X connect 7 0 3 0;
#X connect 8 0 6 0;
#X restore 140 195 pd \$0-test-7;
#N canvas 0 22 254 277 \$0-test-8 0;
#X obj 41 46 inlet;
#X obj 113 102 makefilename $%d-;
#X obj 41 75 t b f;
#X obj 41 130 sel s;
#X obj 68 153 b;
#X obj 41 222 s \$0-noarg;
#X obj 68 200 s \$0-thisarg;
#X obj 41 102 symbol \$8-;
#X obj 68 176 list append \$8;
#X connect 0 0 2 0;
#X connect 1 0 3 1;
#X connect 2 0 7 0;
#X connect 2 1 1 0;
#X connect 3 0 5 0;
#X connect 3 1 4 0;
#X connect 4 0 8 0;
#X connect 7 0 3 0;
#X connect 8 0 6 0;
#X restore 156 173 pd \$0-test-8;
#X obj 49 101 route 1 2 3 4 5 6 7 8 9 10;
#N canvas 0 22 254 277 \$0-test-9 0;
#X obj 41 46 inlet;
#X obj 113 102 makefilename $%d-;
#X obj 41 75 t b f;
#X obj 41 130 sel s;
#X obj 68 153 b;
#X obj 41 222 s \$0-noarg;
#X obj 68 200 s \$0-thisarg;
#X obj 41 102 symbol \$9-;
#X obj 68 176 list append \$9;
#X connect 0 0 2 0;
#X connect 1 0 3 1;
#X connect 2 0 7 0;
#X connect 2 1 1 0;
#X connect 3 0 5 0;
#X connect 3 1 4 0;
#X connect 4 0 8 0;
#X connect 7 0 3 0;
#X connect 8 0 6 0;
#X restore 171 151 pd \$0-test-9;
#N canvas 0 22 254 277 \$0-test-10 0;
#X obj 41 46 inlet;
#X obj 113 102 makefilename $%d-;
#X obj 41 75 t b f;
#X obj 41 130 sel s;
#X obj 68 153 b;
#X obj 41 222 s \$0-noarg;
#X obj 68 200 s \$0-thisarg;
#X obj 41 102 symbol \$10-;
#X obj 68 176 list append \$10;
#X connect 0 0 2 0;
#X connect 1 0 3 1;
#X connect 2 0 7 0;
#X connect 2 1 1 0;
#X connect 3 0 5 0;
#X connect 3 1 4 0;
#X connect 4 0 8 0;
#X connect 7 0 3 0;
#X connect 8 0 6 0;
#X restore 186 129 pd \$0-test-10;
#X text 46 27 argument number;
#X text 42 419 argument if it exists;
#X text 216 419 bang if it doesn't;
#X text 194 35 This subpatch tests for the presence of up to 10 creation
arguments. After IOhannes Zmölnig.;
#X connect 0 0 3 0;
#X connect 3 0 14 0;
#X connect 4 0 2 0;
#X connect 5 0 1 0;
#X connect 14 0 6 0;
#X connect 14 1 7 0;
#X connect 14 2 8 0;
#X connect 14 3 9 0;
#X connect 14 4 10 0;
#X connect 14 5 11 0;
#X connect 14 6 12 0;
#X connect 14 7 13 0;
#X connect 14 8 15 0;
#X connect 14 9 16 0;
#X restore 352 121 pd \$0-args;
#X obj 352 69 loadbang;
#X msg 352 94 1;
#X msg 350 255 0;
#X obj 323 304 route symbol;
#X obj 323 159 t a b;
#X obj 46 340 spigot 0;
#X obj 323 340 s \$0-array-name;
#X text 48 842 2015 Matt Barber;
#X obj 201 42 inlet;
#X obj 375 692 array get;
#X obj 127 754 list;
#X obj 453 632 r \$0-array-name;
#X obj 358 782 r \$0-array-name;
#X obj 199 692 r \$0-array-name;
#X obj 160 371 mod;
#X text 195 372 <- true rotation;
#X obj 307 808 array set;
#X obj 148 718 array get;
#X obj 375 580 +;
#X obj 127 463 spigot;
#X text 174 458 <- no need to do anything if rotation == 0, f 25;
#X obj 46 434 t b f;
#X obj 160 395 s \$0-rot;
#X obj 160 435 r \$0-rot;
#X obj 173 665 r \$0-rot;
#X obj 390 553 r \$0-rot;
#X obj 432 606 r \$0-p;
#X obj 411 580 r \$0-rot;
#X obj 411 656 -;
#X obj 332 692 +;
#X obj 127 500 t b f f f, f 47;
#X obj 406 527 s \$0-init-onset;
#X obj 148 639 r \$0-init-onset;
#X obj 358 750 r \$0-init-onset;
#X text 237 398 range 1: o = onset \, p = rotation \, move to o = onset
+ p - rotation, f 66;
#X text 237 417 range 2: o = onset+rotation \, p = points - rotation
\, move to o = onset, f 70;
#X obj 46 165 pack 0 0 -1 0;
#X obj 46 192 list split 1;
#X obj 80 249 array-rangenorm;
#X obj 251 42 inlet;
#X obj 167 282 s \$0-p;
#X obj 46 275 swap, f 8;
#X obj 175 340 r \$0-p;
#X obj 411 632 swap;
#X obj 46 77 list split 4;
#X obj 233 127 route bang;
#X obj 80 222 array-range;
#X connect 1 0 49 0;
#X connect 2 0 41 1;
#X connect 3 0 9 0;
#X connect 4 0 9 0;
#X connect 5 0 6 0;
#X connect 6 0 4 0;
#X connect 7 0 10 1;
#X connect 8 0 11 0;
#X connect 9 0 8 0;
#X connect 9 0 51 3;
#X connect 9 1 7 0;
#X connect 10 0 26 0;
#X connect 13 0 41 2;
#X connect 14 0 21 0;
#X connect 15 0 21 0;
#X connect 16 0 14 2;
#X connect 17 0 21 2;
#X connect 18 0 22 2;
#X connect 19 0 27 0;
#X connect 22 0 15 1;
#X connect 23 0 14 0;
#X connect 24 0 35 0;
#X connect 26 0 0 0;
#X connect 26 1 24 0;
#X connect 28 0 24 1;
#X connect 29 0 22 1;
#X connect 30 0 23 1;
#X connect 31 0 48 1;
#X connect 32 0 48 0;
#X connect 33 0 14 1;
#X connect 33 0 34 1;
#X connect 34 0 21 1;
#X connect 35 0 15 0;
#X connect 35 1 34 0;
#X connect 35 2 23 0;
#X connect 35 3 36 0;
#X connect 37 0 22 0;
#X connect 38 0 21 1;
#X connect 41 0 42 0;
#X connect 42 0 46 0;
#X connect 42 1 51 0;
#X connect 43 0 46 1;
#X connect 43 1 45 0;
#X connect 43 1 10 1;
#X connect 44 0 41 3;
#X connect 46 0 10 0;
#X connect 46 1 19 0;
#X connect 47 0 19 1;
#X connect 48 0 33 0;
#X connect 48 1 33 1;
#X connect 49 0 41 0;
#X connect 49 1 50 0;
#X connect 49 2 41 0;
#X connect 50 1 9 0;
#X connect 51 0 43 0;
#X connect 51 1 43 1;
#X connect 51 2 43 2;
