#N canvas 143 122 659 324 10;
#X floatatom 108 115 5 0 0 0 - - -, f 5;
#X floatatom 184 117 5 0 0 0 - - -, f 5;
#X floatatom 279 117 5 0 0 0 - - -, f 5;
#X msg 201 37 8 -1 -1;
#X msg 269 37 67 1000 1;
#X floatatom 90 191 5 0 0 0 - - -, f 5;
#X floatatom 137 192 5 0 0 0 - - -, f 5;
#X msg 122 31 59 20 -1;
#X obj 90 169 array-rangerev;
#X obj 90 86 array-range array-rangerev-help;
#X obj 412 157 array define array-rangerev-help;
#X msg 45 31 10 45 1;
#X floatatom 176 194 5 0 0 0 - - -, f 5;
#X connect 3 0 9 0;
#X connect 4 0 9 0;
#X connect 7 0 9 0;
#X connect 8 0 5 0;
#X connect 8 1 6 0;
#X connect 8 2 12 0;
#X connect 9 0 0 0;
#X connect 9 0 8 0;
#X connect 9 1 1 0;
#X connect 9 1 8 1;
#X connect 9 2 2 0;
#X connect 9 2 8 2;
#X connect 11 0 9 0;
