#N canvas 419 245 635 357 10;
#X obj 42 109 bng 15 250 50 0 empty empty empty 17 7 0 10 -262144 -1
-1;
#X floatatom 93 110 5 0 0 0 - - -, f 5;
#X msg 375 121 susan;
#X floatatom 140 112 5 0 0 0 - - -, f 5;
#X floatatom 185 112 5 0 0 0 - - -, f 5;
#X obj 131 268 bng 15 250 50 0 empty empty empty 17 7 0 10 -262144
-1 -1;
#X floatatom 117 330 5 0 0 0 - - -, f 5;
#X floatatom 205 330 5 0 0 0 - - -, f 5;
#X floatatom 294 330 5 0 0 0 - - -, f 5;
#X obj 330 199 print done;
#X obj 58 190 print;
#X floatatom 226 111 5 0 0 0 - - -, f 5;
#X msg 86 29 0 20 3 3 cbiteratorslow-help;
#X msg 349 76 symbol cbiterator-help;
#X msg 361 100 symbol cbiterator-other;
#X obj 393 151 array define cbiteratorslow-help;
#X obj 393 177 array define cbiteratorslow-other 20;
#X obj 127 298 array-cbiterator cbiteratorslow-help;
#X obj 58 151 array-cbiteratorslow cbiteratorslow-help -2 20 -1;
#X msg 62 54 110 50 1 10;
#X msg 80 81 7 25 -1 3.14159;
#X connect 0 0 18 0;
#X connect 1 0 18 0;
#X connect 2 0 18 4;
#X connect 3 0 18 1;
#X connect 4 0 18 2;
#X connect 11 0 18 3;
#X connect 12 0 18 0;
#X connect 13 0 18 4;
#X connect 14 0 18 4;
#X connect 18 0 10 0;
#X connect 18 1 9 0;
#X connect 19 0 18 0;
#X connect 20 0 18 0;
