#N canvas 239 118 558 745 10;
#X obj 51 637 outlet;
#X obj 51 42 inlet;
#X obj 225 42 inlet;
#X obj 413 42 inlet;
#N canvas 0 22 577 494 \$0-args 0;
#X obj 49 49 inlet;
#X obj 49 382 outlet;
#X obj 219 382 outlet;
#X msg 49 75 \$1 \$1;
#X obj 219 354 r \$0-noarg;
#X obj 49 354 r \$0-thisarg;
#N canvas 0 22 254 277 \$0-test-1 0;
#X obj 41 46 inlet;
#X obj 113 102 makefilename $%d-;
#X obj 41 75 t b f;
#X obj 41 102 symbol \$1-;
#X obj 41 130 sel s;
#X obj 68 153 b;
#X obj 68 176 list append \$1;
#X obj 41 222 s \$0-noarg;
#X obj 68 200 s \$0-thisarg;
#X connect 0 0 2 0;
#X connect 1 0 4 1;
#X connect 2 0 3 0;
#X connect 2 1 1 0;
#X connect 3 0 4 0;
#X connect 4 0 7 0;
#X connect 4 1 5 0;
#X connect 5 0 6 0;
#X connect 6 0 8 0;
#X restore 49 326 pd \$0-test-1;
#N canvas 0 22 254 277 \$0-test-2 0;
#X obj 41 46 inlet;
#X obj 113 102 makefilename $%d-;
#X obj 41 75 t b f;
#X obj 41 130 sel s;
#X obj 68 153 b;
#X obj 41 222 s \$0-noarg;
#X obj 68 200 s \$0-thisarg;
#X obj 41 102 symbol \$2-;
#X obj 68 176 list append \$2;
#X connect 0 0 2 0;
#X connect 1 0 3 1;
#X connect 2 0 7 0;
#X connect 2 1 1 0;
#X connect 3 0 5 0;
#X connect 3 1 4 0;
#X connect 4 0 8 0;
#X connect 7 0 3 0;
#X connect 8 0 6 0;
#X restore 64 304 pd \$0-test-2;
#N canvas 0 22 254 277 \$0-test-3 0;
#X obj 41 46 inlet;
#X obj 113 102 makefilename $%d-;
#X obj 41 75 t b f;
#X obj 41 130 sel s;
#X obj 68 153 b;
#X obj 41 222 s \$0-noarg;
#X obj 68 200 s \$0-thisarg;
#X obj 41 102 symbol \$3-;
#X obj 68 176 list append \$3;
#X connect 0 0 2 0;
#X connect 1 0 3 1;
#X connect 2 0 7 0;
#X connect 2 1 1 0;
#X connect 3 0 5 0;
#X connect 3 1 4 0;
#X connect 4 0 8 0;
#X connect 7 0 3 0;
#X connect 8 0 6 0;
#X restore 79 283 pd \$0-test-3;
#N canvas 0 22 254 277 \$0-test-4 0;
#X obj 41 46 inlet;
#X obj 113 102 makefilename $%d-;
#X obj 41 75 t b f;
#X obj 41 130 sel s;
#X obj 68 153 b;
#X obj 41 222 s \$0-noarg;
#X obj 68 200 s \$0-thisarg;
#X obj 41 102 symbol \$4-;
#X obj 68 176 list append \$4;
#X connect 0 0 2 0;
#X connect 1 0 3 1;
#X connect 2 0 7 0;
#X connect 2 1 1 0;
#X connect 3 0 5 0;
#X connect 3 1 4 0;
#X connect 4 0 8 0;
#X connect 7 0 3 0;
#X connect 8 0 6 0;
#X restore 94 261 pd \$0-test-4;
#N canvas 0 22 254 277 \$0-test-5 0;
#X obj 41 46 inlet;
#X obj 113 102 makefilename $%d-;
#X obj 41 75 t b f;
#X obj 41 130 sel s;
#X obj 68 153 b;
#X obj 41 222 s \$0-noarg;
#X obj 68 200 s \$0-thisarg;
#X obj 41 102 symbol \$5-;
#X obj 68 176 list append \$5;
#X connect 0 0 2 0;
#X connect 1 0 3 1;
#X connect 2 0 7 0;
#X connect 2 1 1 0;
#X connect 3 0 5 0;
#X connect 3 1 4 0;
#X connect 4 0 8 0;
#X connect 7 0 3 0;
#X connect 8 0 6 0;
#X restore 110 239 pd \$0-test-5;
#N canvas 0 22 254 277 \$0-test-6 0;
#X obj 41 46 inlet;
#X obj 113 102 makefilename $%d-;
#X obj 41 75 t b f;
#X obj 41 130 sel s;
#X obj 68 153 b;
#X obj 41 222 s \$0-noarg;
#X obj 68 200 s \$0-thisarg;
#X obj 41 102 symbol \$6-;
#X obj 68 176 list append \$6;
#X connect 0 0 2 0;
#X connect 1 0 3 1;
#X connect 2 0 7 0;
#X connect 2 1 1 0;
#X connect 3 0 5 0;
#X connect 3 1 4 0;
#X connect 4 0 8 0;
#X connect 7 0 3 0;
#X connect 8 0 6 0;
#X restore 125 217 pd \$0-test-6;
#N canvas 0 22 254 277 \$0-test-7 0;
#X obj 41 46 inlet;
#X obj 113 102 makefilename $%d-;
#X obj 41 75 t b f;
#X obj 41 130 sel s;
#X obj 68 153 b;
#X obj 41 222 s \$0-noarg;
#X obj 68 200 s \$0-thisarg;
#X obj 41 102 symbol \$7-;
#X obj 68 176 list append \$7;
#X connect 0 0 2 0;
#X connect 1 0 3 1;
#X connect 2 0 7 0;
#X connect 2 1 1 0;
#X connect 3 0 5 0;
#X connect 3 1 4 0;
#X connect 4 0 8 0;
#X connect 7 0 3 0;
#X connect 8 0 6 0;
#X restore 140 195 pd \$0-test-7;
#N canvas 0 22 254 277 \$0-test-8 0;
#X obj 41 46 inlet;
#X obj 113 102 makefilename $%d-;
#X obj 41 75 t b f;
#X obj 41 130 sel s;
#X obj 68 153 b;
#X obj 41 222 s \$0-noarg;
#X obj 68 200 s \$0-thisarg;
#X obj 41 102 symbol \$8-;
#X obj 68 176 list append \$8;
#X connect 0 0 2 0;
#X connect 1 0 3 1;
#X connect 2 0 7 0;
#X connect 2 1 1 0;
#X connect 3 0 5 0;
#X connect 3 1 4 0;
#X connect 4 0 8 0;
#X connect 7 0 3 0;
#X connect 8 0 6 0;
#X restore 156 173 pd \$0-test-8;
#X obj 49 101 route 1 2 3 4 5 6 7 8 9 10;
#N canvas 0 22 254 277 \$0-test-9 0;
#X obj 41 46 inlet;
#X obj 113 102 makefilename $%d-;
#X obj 41 75 t b f;
#X obj 41 130 sel s;
#X obj 68 153 b;
#X obj 41 222 s \$0-noarg;
#X obj 68 200 s \$0-thisarg;
#X obj 41 102 symbol \$9-;
#X obj 68 176 list append \$9;
#X connect 0 0 2 0;
#X connect 1 0 3 1;
#X connect 2 0 7 0;
#X connect 2 1 1 0;
#X connect 3 0 5 0;
#X connect 3 1 4 0;
#X connect 4 0 8 0;
#X connect 7 0 3 0;
#X connect 8 0 6 0;
#X restore 171 151 pd \$0-test-9;
#N canvas 0 22 254 277 \$0-test-10 0;
#X obj 41 46 inlet;
#X obj 113 102 makefilename $%d-;
#X obj 41 75 t b f;
#X obj 41 130 sel s;
#X obj 68 153 b;
#X obj 41 222 s \$0-noarg;
#X obj 68 200 s \$0-thisarg;
#X obj 41 102 symbol \$10-;
#X obj 68 176 list append \$10;
#X connect 0 0 2 0;
#X connect 1 0 3 1;
#X connect 2 0 7 0;
#X connect 2 1 1 0;
#X connect 3 0 5 0;
#X connect 3 1 4 0;
#X connect 4 0 8 0;
#X connect 7 0 3 0;
#X connect 8 0 6 0;
#X restore 186 129 pd \$0-test-10;
#X text 46 27 argument number;
#X text 42 419 argument if it exists;
#X text 216 419 bang if it doesn't;
#X text 194 35 This subpatch tests for the presence of up to 10 creation
arguments. After IOhannes Zmölnig.;
#X connect 0 0 3 0;
#X connect 3 0 14 0;
#X connect 4 0 2 0;
#X connect 5 0 1 0;
#X connect 14 0 6 0;
#X connect 14 1 7 0;
#X connect 14 2 8 0;
#X connect 14 3 9 0;
#X connect 14 4 10 0;
#X connect 14 5 11 0;
#X connect 14 6 12 0;
#X connect 14 7 13 0;
#X connect 14 8 15 0;
#X connect 14 9 16 0;
#X restore 442 121 pd \$0-args;
#X obj 442 69 loadbang;
#X msg 442 94 1;
#X msg 440 297 0;
#X obj 413 325 route symbol;
#X obj 413 185 t a b;
#X obj 413 352 s \$0-array-name;
#X text 88 671 2015 Matt Barber;
#X obj 275 42 inlet;
#X obj 78 422 spigot;
#X obj 325 42 inlet;
#X obj 256 250 s \$0-p;
#X obj 112 136 list length;
#X obj 112 163 s \$0-length;
#X obj 111 339 r \$0-length;
#X obj 126 364 r \$0-p;
#X obj 111 390 &&;
#X text 145 386 <- no need to do anything if list length == 0 or p
== 0, f 29;
#X obj 288 226 s \$0-direction;
#X obj 51 96 t a a b, f 21;
#X obj 51 314 spigot;
#X obj 51 339 t b a;
#X obj 225 274 s \$0-onset;
#X obj 159 422 r \$0-length;
#X obj 174 445 r \$0-p;
#X obj 78 494 list prepend, f 14;
#X obj 159 468 <;
#X obj 78 525 route 0 1;
#N canvas 660 254 556 467 \$0-overflow 0;
#X obj 132 69 inlet;
#X obj 201 69 r \$0-direction;
#X obj 201 93 >= 0;
#X obj 132 124 list prepend;
#X obj 132 154 route 0 1;
#X text 241 95 <- 0 == backward range \, 1 == forward range;
#X obj 222 371 array set;
#X obj 222 154 r \$0-length;
#X obj 279 181 r \$0-p;
#X obj 222 216 -;
#X obj 132 288 list split;
#X obj 313 325 r \$0-array-name;
#X obj 313 216 r \$0-onset;
#X obj 356 240 r \$0-p;
#X obj 400 261 r \$0-direction;
#X obj 313 288 array-rangenorm;
#X obj 222 288 list split;
#X text 29 194 backward chain ->;
#X text 87 216 forward chain ->;
#X connect 0 0 3 0;
#X connect 1 0 2 0;
#X connect 2 0 3 1;
#X connect 3 0 4 0;
#X connect 4 0 10 0;
#X connect 4 1 16 0;
#X connect 7 0 9 0;
#X connect 8 0 9 1;
#X connect 8 0 16 1;
#X connect 9 0 10 1;
#X connect 10 1 6 0;
#X connect 11 0 6 2;
#X connect 12 0 15 0;
#X connect 13 0 15 1;
#X connect 14 0 15 2;
#X connect 15 0 6 1;
#X connect 16 0 6 0;
#X restore 78 603 pd \$0-overflow;
#N canvas 0 22 574 647 \$0-insert 0;
#X obj 62 60 inlet;
#X obj 62 566 array set;
#X obj 113 424 r \$0-array-name;
#X obj 312 174 r \$0-onset;
#X obj 297 297 array-rangenorm;
#X obj 384 271 r \$0-direction;
#X obj 340 198 r \$0-length;
#X obj 361 221 r \$0-p;
#X obj 340 245 swap;
#X obj 340 271 -;
#X obj 410 297 r \$0-array-name;
#X obj 359 380 array get;
#X obj 374 448 r \$0-direction;
#X obj 359 424 r \$0-length;
#X obj 359 473 *;
#X obj 324 500 +;
#X obj 297 328 t f f;
#X obj 297 245 f;
#X obj 102 174 r \$0-onset;
#X obj 87 297 array-rangenorm;
#X obj 174 271 r \$0-direction;
#X obj 130 198 r \$0-length;
#X obj 87 245 f;
#X obj 62 88 t a b b, f 9;
#X connect 0 0 23 0;
#X connect 2 0 1 2;
#X connect 3 0 17 1;
#X connect 4 0 16 0;
#X connect 4 1 11 1;
#X connect 5 0 4 2;
#X connect 6 0 8 0;
#X connect 7 0 8 1;
#X connect 8 0 9 0;
#X connect 8 1 9 1;
#X connect 9 0 4 1;
#X connect 10 0 11 2;
#X connect 11 0 1 0;
#X connect 12 0 14 1;
#X connect 13 0 14 0;
#X connect 14 0 15 1;
#X connect 15 0 1 1;
#X connect 16 0 11 0;
#X connect 16 1 15 0;
#X connect 17 0 4 0;
#X connect 18 0 22 1;
#X connect 19 0 1 1;
#X connect 20 0 19 2;
#X connect 21 0 19 1;
#X connect 22 0 19 0;
#X connect 23 0 1 0;
#X connect 23 1 22 0;
#X connect 23 2 17 0;
#X restore 103 574 pd \$0-insert;
#X obj 225 202 array-range;
#X connect 1 0 23 0;
#X connect 2 0 34 0;
#X connect 3 0 9 0;
#X connect 4 0 9 0;
#X connect 5 0 6 0;
#X connect 6 0 4 0;
#X connect 7 0 24 1;
#X connect 8 0 10 0;
#X connect 9 0 8 0;
#X connect 9 0 34 3;
#X connect 9 1 7 0;
#X connect 12 0 34 1;
#X connect 13 0 29 0;
#X connect 14 0 34 2;
#X connect 16 0 17 0;
#X connect 18 0 20 0;
#X connect 19 0 20 1;
#X connect 20 0 13 1;
#X connect 23 0 24 0;
#X connect 23 1 16 0;
#X connect 23 2 34 0;
#X connect 24 0 25 0;
#X connect 25 0 0 0;
#X connect 25 1 13 0;
#X connect 27 0 30 0;
#X connect 28 0 30 1;
#X connect 29 0 31 0;
#X connect 30 0 29 1;
#X connect 31 0 32 0;
#X connect 31 1 33 0;
#X connect 34 0 26 0;
#X connect 34 1 15 0;
#X connect 34 1 24 1;
#X connect 34 2 22 0;
