#N canvas 889 345 913 541 10;
#X obj 581 190 array size integrity;
#X obj 624 246 print size;
#X msg 581 139 2 24;
#X obj 592 165 pow;
#X msg 102 83 2 24;
#X obj 102 112 pow;
#X obj 102 144 until;
#X obj 109 53 t b b;
#X msg 159 150 0;
#X obj 109 183 f;
#X obj 113 233 t f f;
#X obj 120 29 bng 15 250 50 0 empty empty empty 17 7 0 10 -262144 -1
-1;
#N canvas 0 22 1265 325 integrity 1;
#N canvas 0 22 450 278 (subpatch) 0;
#X array integrity 1.67772e+07 float 2;
#X coords 0 1.67772e+07 1.67772e+07 0 1000 200 1 0 0;
#X restore 59 66 graph;
#X restore 633 124 pd integrity;
#X obj 104 299 tabwrite integrity;
#X msg 282 83 2 24;
#X obj 282 112 pow;
#X obj 282 172 until;
#X msg 339 178 0;
#X obj 289 211 f;
#X obj 354 225 + 1;
#X obj 289 250 t f f;
#X obj 300 29 bng 15 250 50 0 empty empty empty 17 7 0 10 -262144 -1
-1;
#X obj 301 403 sel 0;
#X obj 286 314 tabread integrity;
#X obj 304 489 print uh-oh;
#X obj 328 446 f;
#X obj 289 53 t b b b;
#X obj 204 96 print done;
#X obj 402 311 tabread integrity;
#X floatatom 205 415 5 0 0 0 - - -, f 5;
#X obj 279 345 -;
#X obj 282 277 + 1;
#X obj 279 147 - 1;
#X obj 174 197 + 1;
#X obj 122 275 / 2;
#X obj 301 365 == 0.5;
#X connect 2 0 3 0;
#X connect 3 0 0 0;
#X connect 3 0 1 0;
#X connect 4 0 5 0;
#X connect 5 0 6 0;
#X connect 6 0 9 0;
#X connect 7 0 4 0;
#X connect 7 1 8 0;
#X connect 8 0 9 1;
#X connect 9 0 10 0;
#X connect 9 0 33 0;
#X connect 10 0 34 0;
#X connect 10 1 13 1;
#X connect 11 0 7 0;
#X connect 14 0 15 0;
#X connect 15 0 32 0;
#X connect 16 0 18 0;
#X connect 17 0 18 1;
#X connect 18 0 19 0;
#X connect 18 0 20 0;
#X connect 19 0 18 1;
#X connect 20 0 31 0;
#X connect 20 1 25 1;
#X connect 20 1 28 0;
#X connect 21 0 26 0;
#X connect 22 0 25 0;
#X connect 22 0 16 1;
#X connect 23 0 30 0;
#X connect 25 0 24 0;
#X connect 26 0 27 0;
#X connect 26 1 14 0;
#X connect 26 2 17 0;
#X connect 28 0 30 1;
#X connect 30 0 29 0;
#X connect 30 0 35 0;
#X connect 31 0 23 0;
#X connect 32 0 16 0;
#X connect 33 0 9 1;
#X connect 34 0 13 0;
#X connect 35 0 22 0;
