#N canvas 0 22 736 742 10;
#X obj 99 67 inlet;
#X obj 146 67 inlet;
#X obj 193 67 inlet;
#X obj 240 67 inlet;
#X obj 369 67 inlet;
#X obj 99 513 array get;
#X obj 126 591 array set;
#N canvas 0 22 577 494 \$0-args 0;
#X obj 49 49 inlet;
#X obj 49 382 outlet;
#X obj 219 382 outlet;
#X msg 49 75 \$1 \$1;
#X obj 219 354 r \$0-noarg;
#X obj 49 354 r \$0-thisarg;
#N canvas 0 22 254 277 \$0-test-1 0;
#X obj 41 46 inlet;
#X obj 113 102 makefilename $%d-;
#X obj 41 75 t b f;
#X obj 41 102 symbol \$1-;
#X obj 41 130 sel s;
#X obj 68 153 b;
#X obj 68 176 list append \$1;
#X obj 41 222 s \$0-noarg;
#X obj 68 200 s \$0-thisarg;
#X connect 0 0 2 0;
#X connect 1 0 4 1;
#X connect 2 0 3 0;
#X connect 2 1 1 0;
#X connect 3 0 4 0;
#X connect 4 0 7 0;
#X connect 4 1 5 0;
#X connect 5 0 6 0;
#X connect 6 0 8 0;
#X restore 49 326 pd \$0-test-1;
#N canvas 0 22 254 277 \$0-test-2 0;
#X obj 41 46 inlet;
#X obj 113 102 makefilename $%d-;
#X obj 41 75 t b f;
#X obj 41 130 sel s;
#X obj 68 153 b;
#X obj 41 222 s \$0-noarg;
#X obj 68 200 s \$0-thisarg;
#X obj 41 102 symbol \$2-;
#X obj 68 176 list append \$2;
#X connect 0 0 2 0;
#X connect 1 0 3 1;
#X connect 2 0 7 0;
#X connect 2 1 1 0;
#X connect 3 0 5 0;
#X connect 3 1 4 0;
#X connect 4 0 8 0;
#X connect 7 0 3 0;
#X connect 8 0 6 0;
#X restore 64 304 pd \$0-test-2;
#N canvas 0 22 254 277 \$0-test-3 0;
#X obj 41 46 inlet;
#X obj 113 102 makefilename $%d-;
#X obj 41 75 t b f;
#X obj 41 130 sel s;
#X obj 68 153 b;
#X obj 41 222 s \$0-noarg;
#X obj 68 200 s \$0-thisarg;
#X obj 41 102 symbol \$3-;
#X obj 68 176 list append \$3;
#X connect 0 0 2 0;
#X connect 1 0 3 1;
#X connect 2 0 7 0;
#X connect 2 1 1 0;
#X connect 3 0 5 0;
#X connect 3 1 4 0;
#X connect 4 0 8 0;
#X connect 7 0 3 0;
#X connect 8 0 6 0;
#X restore 79 283 pd \$0-test-3;
#N canvas 0 22 254 277 \$0-test-4 0;
#X obj 41 46 inlet;
#X obj 113 102 makefilename $%d-;
#X obj 41 75 t b f;
#X obj 41 130 sel s;
#X obj 68 153 b;
#X obj 41 222 s \$0-noarg;
#X obj 68 200 s \$0-thisarg;
#X obj 41 102 symbol \$4-;
#X obj 68 176 list append \$4;
#X connect 0 0 2 0;
#X connect 1 0 3 1;
#X connect 2 0 7 0;
#X connect 2 1 1 0;
#X connect 3 0 5 0;
#X connect 3 1 4 0;
#X connect 4 0 8 0;
#X connect 7 0 3 0;
#X connect 8 0 6 0;
#X restore 94 261 pd \$0-test-4;
#N canvas 0 22 254 277 \$0-test-5 0;
#X obj 41 46 inlet;
#X obj 113 102 makefilename $%d-;
#X obj 41 75 t b f;
#X obj 41 130 sel s;
#X obj 68 153 b;
#X obj 41 222 s \$0-noarg;
#X obj 68 200 s \$0-thisarg;
#X obj 41 102 symbol \$5-;
#X obj 68 176 list append \$5;
#X connect 0 0 2 0;
#X connect 1 0 3 1;
#X connect 2 0 7 0;
#X connect 2 1 1 0;
#X connect 3 0 5 0;
#X connect 3 1 4 0;
#X connect 4 0 8 0;
#X connect 7 0 3 0;
#X connect 8 0 6 0;
#X restore 110 239 pd \$0-test-5;
#N canvas 0 22 254 277 \$0-test-6 0;
#X obj 41 46 inlet;
#X obj 113 102 makefilename $%d-;
#X obj 41 75 t b f;
#X obj 41 130 sel s;
#X obj 68 153 b;
#X obj 41 222 s \$0-noarg;
#X obj 68 200 s \$0-thisarg;
#X obj 41 102 symbol \$6-;
#X obj 68 176 list append \$6;
#X connect 0 0 2 0;
#X connect 1 0 3 1;
#X connect 2 0 7 0;
#X connect 2 1 1 0;
#X connect 3 0 5 0;
#X connect 3 1 4 0;
#X connect 4 0 8 0;
#X connect 7 0 3 0;
#X connect 8 0 6 0;
#X restore 125 217 pd \$0-test-6;
#N canvas 0 22 254 277 \$0-test-7 0;
#X obj 41 46 inlet;
#X obj 113 102 makefilename $%d-;
#X obj 41 75 t b f;
#X obj 41 130 sel s;
#X obj 68 153 b;
#X obj 41 222 s \$0-noarg;
#X obj 68 200 s \$0-thisarg;
#X obj 41 102 symbol \$7-;
#X obj 68 176 list append \$7;
#X connect 0 0 2 0;
#X connect 1 0 3 1;
#X connect 2 0 7 0;
#X connect 2 1 1 0;
#X connect 3 0 5 0;
#X connect 3 1 4 0;
#X connect 4 0 8 0;
#X connect 7 0 3 0;
#X connect 8 0 6 0;
#X restore 140 195 pd \$0-test-7;
#N canvas 0 22 254 277 \$0-test-8 0;
#X obj 41 46 inlet;
#X obj 113 102 makefilename $%d-;
#X obj 41 75 t b f;
#X obj 41 130 sel s;
#X obj 68 153 b;
#X obj 41 222 s \$0-noarg;
#X obj 68 200 s \$0-thisarg;
#X obj 41 102 symbol \$8-;
#X obj 68 176 list append \$8;
#X connect 0 0 2 0;
#X connect 1 0 3 1;
#X connect 2 0 7 0;
#X connect 2 1 1 0;
#X connect 3 0 5 0;
#X connect 3 1 4 0;
#X connect 4 0 8 0;
#X connect 7 0 3 0;
#X connect 8 0 6 0;
#X restore 156 173 pd \$0-test-8;
#X obj 49 101 route 1 2 3 4 5 6 7 8 9 10;
#N canvas 0 22 254 277 \$0-test-9 0;
#X obj 41 46 inlet;
#X obj 113 102 makefilename $%d-;
#X obj 41 75 t b f;
#X obj 41 130 sel s;
#X obj 68 153 b;
#X obj 41 222 s \$0-noarg;
#X obj 68 200 s \$0-thisarg;
#X obj 41 102 symbol \$9-;
#X obj 68 176 list append \$9;
#X connect 0 0 2 0;
#X connect 1 0 3 1;
#X connect 2 0 7 0;
#X connect 2 1 1 0;
#X connect 3 0 5 0;
#X connect 3 1 4 0;
#X connect 4 0 8 0;
#X connect 7 0 3 0;
#X connect 8 0 6 0;
#X restore 171 151 pd \$0-test-9;
#N canvas 0 22 254 277 \$0-test-10 0;
#X obj 41 46 inlet;
#X obj 113 102 makefilename $%d-;
#X obj 41 75 t b f;
#X obj 41 130 sel s;
#X obj 68 153 b;
#X obj 41 222 s \$0-noarg;
#X obj 68 200 s \$0-thisarg;
#X obj 41 102 symbol \$10-;
#X obj 68 176 list append \$10;
#X connect 0 0 2 0;
#X connect 1 0 3 1;
#X connect 2 0 7 0;
#X connect 2 1 1 0;
#X connect 3 0 5 0;
#X connect 3 1 4 0;
#X connect 4 0 8 0;
#X connect 7 0 3 0;
#X connect 8 0 6 0;
#X restore 186 129 pd \$0-test-10;
#X text 46 27 argument number;
#X text 42 419 argument if it exists;
#X text 216 419 bang if it doesn't;
#X text 194 35 This subpatch tests for the presence of up to 10 creation
arguments. After IOhannes Zmölnig.;
#X connect 0 0 3 0;
#X connect 3 0 14 0;
#X connect 4 0 2 0;
#X connect 5 0 1 0;
#X connect 14 0 6 0;
#X connect 14 1 7 0;
#X connect 14 2 8 0;
#X connect 14 3 9 0;
#X connect 14 4 10 0;
#X connect 14 5 11 0;
#X connect 14 6 12 0;
#X connect 14 7 13 0;
#X connect 14 8 15 0;
#X connect 14 9 16 0;
#X restore 537 167 pd \$0-args;
#X obj 509 32 loadbang;
#X obj 569 142 + 1;
#X obj 537 142 f 1;
#X obj 537 112 until;
#X obj 537 197 list prepend;
#X obj 510 56 t b b;
#X obj 510 242 list;
#X obj 625 197 t a;
#X obj 510 271 list split 1;
#X msg 537 86 2;
#X obj 558 333 list;
#X obj 510 296 t b a;
#N canvas 90 460 568 554 \$0-source-dest-gate 0;
#X obj 171 362 symbol;
#X obj 77 26 inlet;
#X obj 263 26 inlet;
#X obj 77 470 outlet;
#X obj 376 460 outlet;
#X obj 263 141 route bang symbol;
#X obj 292 256 list fromsymbol;
#X obj 362 175 s \$0-error;
#X obj 77 141 route symbol;
#X obj 146 175 s \$0-error;
#X obj 77 198 t a a;
#X obj 292 281 route bang;
#X obj 171 410 spigot;
#X msg 300 338 1;
#X msg 300 367 0;
#X obj 349 313 list tosymbol;
#X obj 273 308 t b b;
#X obj 349 337 t b a;
#X obj 238 175 t b b;
#X msg 265 222 1;
#X obj 77 54 route bang;
#X obj 134 81 list split 1;
#X connect 0 0 12 0;
#X connect 1 0 20 0;
#X connect 2 0 5 0;
#X connect 5 0 18 0;
#X connect 5 1 6 0;
#X connect 5 2 7 0;
#X connect 6 0 11 0;
#X connect 8 0 10 0;
#X connect 8 1 9 0;
#X connect 10 0 3 0;
#X connect 10 1 0 0;
#X connect 11 0 16 0;
#X connect 11 1 15 0;
#X connect 12 0 4 0;
#X connect 13 0 12 1;
#X connect 14 0 12 1;
#X connect 15 0 17 0;
#X connect 16 0 0 0;
#X connect 16 1 13 0;
#X connect 17 0 14 0;
#X connect 17 1 4 0;
#X connect 18 0 0 0;
#X connect 18 1 19 0;
#X connect 19 0 12 1;
#X connect 20 1 21 0;
#X connect 21 0 8 0;
#X connect 21 1 5 0;
#X restore 240 225 pd \$0-source-dest-gate;
#X obj 558 366 s \$0-dest-init;
#X obj 443 365 s \$0-source-init;
#X obj 251 192 r \$0-source-init;
#X obj 380 192 r \$0-dest-init;
#X obj 166 490 r \$0-error;
#X obj 168 407 s \$0-source;
#X obj 145 434 s \$0-dest-onset;
#X obj 192 380 s \$0-dest;
#X obj 150 465 r \$0-source;
#X obj 177 564 r \$0-dest;
#X obj 151 540 r \$0-dest-onset;
#X obj 99 540 t b a;
#X obj 99 616 outlet;
#X obj 99 124 list split 3;
#X obj 99 273 pack 0 0 0 s s, f 32;
#X obj 99 302 unpack 0 0 0 s s;
#X connect 0 0 34 0;
#X connect 1 0 35 1;
#X connect 2 0 35 2;
#X connect 3 0 20 0;
#X connect 4 0 20 1;
#X connect 5 0 32 0;
#X connect 7 0 12 0;
#X connect 8 0 13 0;
#X connect 9 0 10 1;
#X connect 10 0 9 0;
#X connect 10 0 7 0;
#X connect 11 0 10 0;
#X connect 12 0 14 1;
#X connect 12 0 15 0;
#X connect 13 0 14 0;
#X connect 13 1 17 0;
#X connect 14 0 16 0;
#X connect 15 0 12 1;
#X connect 16 0 19 0;
#X connect 16 1 18 1;
#X connect 17 0 11 0;
#X connect 18 0 21 0;
#X connect 19 0 18 0;
#X connect 19 1 22 0;
#X connect 20 0 35 3;
#X connect 20 1 35 4;
#X connect 23 0 20 0;
#X connect 24 0 20 1;
#X connect 25 0 5 2;
#X connect 29 0 5 2;
#X connect 30 0 6 2;
#X connect 31 0 6 1;
#X connect 32 0 33 0;
#X connect 32 1 6 0;
#X connect 34 0 35 0;
#X connect 34 1 20 0;
#X connect 34 2 35 0;
#X connect 35 0 36 0;
#X connect 36 0 5 0;
#X connect 36 1 5 1;
#X connect 36 2 27 0;
#X connect 36 3 26 0;
#X connect 36 4 28 0;
