#N canvas 455 235 716 450 10;
#X floatatom 114 186 5 0 0 0 - - -, f 5;
#X floatatom 202 186 5 0 0 0 - - -, f 5;
#X floatatom 291 186 5 0 0 0 - - -, f 5;
#X obj 98 109 bng 15 250 50 0 empty empty empty 17 7 0 10 -262144 -1
-1;
#X floatatom 149 110 5 0 0 0 - - -, f 5;
#X msg 311 121 susan;
#X obj 384 177 array define range-other 20;
#X msg 297 100 symbol range-other;
#X msg 285 76 symbol range-help;
#X floatatom 196 112 5 0 0 0 - - -, f 5;
#X floatatom 241 112 5 0 0 0 - - -, f 5;
#X msg 118 54 10 50 1;
#X msg 136 81 -7 -1 -1;
#X obj 131 268 bng 15 250 50 0 empty empty empty 17 7 0 10 -262144
-1 -1;
#X floatatom 117 330 5 0 0 0 - - -, f 5;
#X floatatom 205 330 5 0 0 0 - - -, f 5;
#X floatatom 294 330 5 0 0 0 - - -, f 5;
#X obj 384 151 array define range-help 100;
#X floatatom 403 370 5 0 0 0 - - -, f 5;
#X floatatom 450 377 5 0 0 0 - - -, f 5;
#X floatatom 515 369 5 0 0 0 - - -, f 5;
#X obj 388 305 bng 15 250 50 0 empty empty empty 17 7 0 10 -262144
-1 -1;
#X msg 480 295 symbol range-help;
#X floatatom 108 422 5 0 0 0 - - -, f 5;
#X floatatom 166 420 5 0 0 0 - - -, f 5;
#X floatatom 229 419 5 0 0 0 - - -, f 5;
#X obj 52 339 bng 15 250 50 0 empty empty empty 17 7 0 10 -262144 -1
-1;
#X obj 114 151 array-range range-help -2 20 -1;
#X obj 127 298 array-range range-help;
#X obj 398 332 array-range;
#X obj 102 385 array-range susan 1 2 3;
#X connect 3 0 27 0;
#X connect 4 0 27 0;
#X connect 5 0 27 3;
#X connect 7 0 27 3;
#X connect 8 0 27 3;
#X connect 9 0 27 1;
#X connect 10 0 27 2;
#X connect 11 0 27 0;
#X connect 12 0 27 0;
#X connect 13 0 28 0;
#X connect 21 0 29 0;
#X connect 22 0 29 3;
#X connect 26 0 30 0;
#X connect 27 0 0 0;
#X connect 27 1 1 0;
#X connect 27 2 2 0;
#X connect 28 0 14 0;
#X connect 28 1 15 0;
#X connect 28 2 16 0;
#X connect 29 0 18 0;
#X connect 29 1 19 0;
#X connect 29 2 20 0;
#X connect 30 0 23 0;
#X connect 30 1 24 0;
#X connect 30 2 25 0;
