#N canvas 830 86 698 1053 10;
#X obj 46 954 outlet;
#X obj 46 42 inlet;
#X obj 201 42 inlet;
#X obj 363 42 inlet;
#N canvas 0 22 577 494 \$0-args 0;
#X obj 49 49 inlet;
#X obj 49 382 outlet;
#X obj 219 382 outlet;
#X msg 49 75 \$1 \$1;
#X obj 219 354 r \$0-noarg;
#X obj 49 354 r \$0-thisarg;
#N canvas 0 22 254 277 \$0-test-1 0;
#X obj 41 46 inlet;
#X obj 113 102 makefilename $%d-;
#X obj 41 75 t b f;
#X obj 41 102 symbol \$1-;
#X obj 41 130 sel s;
#X obj 68 153 b;
#X obj 68 176 list append \$1;
#X obj 41 222 s \$0-noarg;
#X obj 68 200 s \$0-thisarg;
#X connect 0 0 2 0;
#X connect 1 0 4 1;
#X connect 2 0 3 0;
#X connect 2 1 1 0;
#X connect 3 0 4 0;
#X connect 4 0 7 0;
#X connect 4 1 5 0;
#X connect 5 0 6 0;
#X connect 6 0 8 0;
#X restore 49 326 pd \$0-test-1;
#N canvas 0 22 254 277 \$0-test-2 0;
#X obj 41 46 inlet;
#X obj 113 102 makefilename $%d-;
#X obj 41 75 t b f;
#X obj 41 130 sel s;
#X obj 68 153 b;
#X obj 41 222 s \$0-noarg;
#X obj 68 200 s \$0-thisarg;
#X obj 41 102 symbol \$2-;
#X obj 68 176 list append \$2;
#X connect 0 0 2 0;
#X connect 1 0 3 1;
#X connect 2 0 7 0;
#X connect 2 1 1 0;
#X connect 3 0 5 0;
#X connect 3 1 4 0;
#X connect 4 0 8 0;
#X connect 7 0 3 0;
#X connect 8 0 6 0;
#X restore 64 304 pd \$0-test-2;
#N canvas 0 22 254 277 \$0-test-3 0;
#X obj 41 46 inlet;
#X obj 113 102 makefilename $%d-;
#X obj 41 75 t b f;
#X obj 41 130 sel s;
#X obj 68 153 b;
#X obj 41 222 s \$0-noarg;
#X obj 68 200 s \$0-thisarg;
#X obj 41 102 symbol \$3-;
#X obj 68 176 list append \$3;
#X connect 0 0 2 0;
#X connect 1 0 3 1;
#X connect 2 0 7 0;
#X connect 2 1 1 0;
#X connect 3 0 5 0;
#X connect 3 1 4 0;
#X connect 4 0 8 0;
#X connect 7 0 3 0;
#X connect 8 0 6 0;
#X restore 79 283 pd \$0-test-3;
#N canvas 0 22 254 277 \$0-test-4 0;
#X obj 41 46 inlet;
#X obj 113 102 makefilename $%d-;
#X obj 41 75 t b f;
#X obj 41 130 sel s;
#X obj 68 153 b;
#X obj 41 222 s \$0-noarg;
#X obj 68 200 s \$0-thisarg;
#X obj 41 102 symbol \$4-;
#X obj 68 176 list append \$4;
#X connect 0 0 2 0;
#X connect 1 0 3 1;
#X connect 2 0 7 0;
#X connect 2 1 1 0;
#X connect 3 0 5 0;
#X connect 3 1 4 0;
#X connect 4 0 8 0;
#X connect 7 0 3 0;
#X connect 8 0 6 0;
#X restore 94 261 pd \$0-test-4;
#N canvas 0 22 254 277 \$0-test-5 0;
#X obj 41 46 inlet;
#X obj 113 102 makefilename $%d-;
#X obj 41 75 t b f;
#X obj 41 130 sel s;
#X obj 68 153 b;
#X obj 41 222 s \$0-noarg;
#X obj 68 200 s \$0-thisarg;
#X obj 41 102 symbol \$5-;
#X obj 68 176 list append \$5;
#X connect 0 0 2 0;
#X connect 1 0 3 1;
#X connect 2 0 7 0;
#X connect 2 1 1 0;
#X connect 3 0 5 0;
#X connect 3 1 4 0;
#X connect 4 0 8 0;
#X connect 7 0 3 0;
#X connect 8 0 6 0;
#X restore 110 239 pd \$0-test-5;
#N canvas 0 22 254 277 \$0-test-6 0;
#X obj 41 46 inlet;
#X obj 113 102 makefilename $%d-;
#X obj 41 75 t b f;
#X obj 41 130 sel s;
#X obj 68 153 b;
#X obj 41 222 s \$0-noarg;
#X obj 68 200 s \$0-thisarg;
#X obj 41 102 symbol \$6-;
#X obj 68 176 list append \$6;
#X connect 0 0 2 0;
#X connect 1 0 3 1;
#X connect 2 0 7 0;
#X connect 2 1 1 0;
#X connect 3 0 5 0;
#X connect 3 1 4 0;
#X connect 4 0 8 0;
#X connect 7 0 3 0;
#X connect 8 0 6 0;
#X restore 125 217 pd \$0-test-6;
#N canvas 0 22 254 277 \$0-test-7 0;
#X obj 41 46 inlet;
#X obj 113 102 makefilename $%d-;
#X obj 41 75 t b f;
#X obj 41 130 sel s;
#X obj 68 153 b;
#X obj 41 222 s \$0-noarg;
#X obj 68 200 s \$0-thisarg;
#X obj 41 102 symbol \$7-;
#X obj 68 176 list append \$7;
#X connect 0 0 2 0;
#X connect 1 0 3 1;
#X connect 2 0 7 0;
#X connect 2 1 1 0;
#X connect 3 0 5 0;
#X connect 3 1 4 0;
#X connect 4 0 8 0;
#X connect 7 0 3 0;
#X connect 8 0 6 0;
#X restore 140 195 pd \$0-test-7;
#N canvas 0 22 254 277 \$0-test-8 0;
#X obj 41 46 inlet;
#X obj 113 102 makefilename $%d-;
#X obj 41 75 t b f;
#X obj 41 130 sel s;
#X obj 68 153 b;
#X obj 41 222 s \$0-noarg;
#X obj 68 200 s \$0-thisarg;
#X obj 41 102 symbol \$8-;
#X obj 68 176 list append \$8;
#X connect 0 0 2 0;
#X connect 1 0 3 1;
#X connect 2 0 7 0;
#X connect 2 1 1 0;
#X connect 3 0 5 0;
#X connect 3 1 4 0;
#X connect 4 0 8 0;
#X connect 7 0 3 0;
#X connect 8 0 6 0;
#X restore 156 173 pd \$0-test-8;
#X obj 49 101 route 1 2 3 4 5 6 7 8 9 10;
#N canvas 0 22 254 277 \$0-test-9 0;
#X obj 41 46 inlet;
#X obj 113 102 makefilename $%d-;
#X obj 41 75 t b f;
#X obj 41 130 sel s;
#X obj 68 153 b;
#X obj 41 222 s \$0-noarg;
#X obj 68 200 s \$0-thisarg;
#X obj 41 102 symbol \$9-;
#X obj 68 176 list append \$9;
#X connect 0 0 2 0;
#X connect 1 0 3 1;
#X connect 2 0 7 0;
#X connect 2 1 1 0;
#X connect 3 0 5 0;
#X connect 3 1 4 0;
#X connect 4 0 8 0;
#X connect 7 0 3 0;
#X connect 8 0 6 0;
#X restore 171 151 pd \$0-test-9;
#N canvas 0 22 254 277 \$0-test-10 0;
#X obj 41 46 inlet;
#X obj 113 102 makefilename $%d-;
#X obj 41 75 t b f;
#X obj 41 130 sel s;
#X obj 68 153 b;
#X obj 41 222 s \$0-noarg;
#X obj 68 200 s \$0-thisarg;
#X obj 41 102 symbol \$10-;
#X obj 68 176 list append \$10;
#X connect 0 0 2 0;
#X connect 1 0 3 1;
#X connect 2 0 7 0;
#X connect 2 1 1 0;
#X connect 3 0 5 0;
#X connect 3 1 4 0;
#X connect 4 0 8 0;
#X connect 7 0 3 0;
#X connect 8 0 6 0;
#X restore 186 129 pd \$0-test-10;
#X text 46 27 argument number;
#X text 42 419 argument if it exists;
#X text 216 419 bang if it doesn't;
#X text 194 35 This subpatch tests for the presence of up to 10 creation
arguments. After IOhannes Zmölnig.;
#X connect 0 0 3 0;
#X connect 3 0 14 0;
#X connect 4 0 2 0;
#X connect 5 0 1 0;
#X connect 14 0 6 0;
#X connect 14 1 7 0;
#X connect 14 2 8 0;
#X connect 14 3 9 0;
#X connect 14 4 10 0;
#X connect 14 5 11 0;
#X connect 14 6 12 0;
#X connect 14 7 13 0;
#X connect 14 8 15 0;
#X connect 14 9 16 0;
#X restore 392 161 pd \$0-args;
#X obj 392 109 loadbang;
#X msg 392 134 1;
#X obj 363 265 route symbol;
#X obj 363 321 s \$0-array-name;
#X text 85 980 2015 Matt Barber;
#X obj 251 42 inlet;
#X obj 159 259 moses 0;
#X obj 198 321 s \$0-direction;
#X obj 46 321 swap;
#X obj 226 463 f;
#X obj 143 446 until;
#X obj 67 357 s \$0-onset;
#X obj 143 420 - 1;
#X obj 543 600 r \$0-array-name;
#N canvas 0 22 394 271 \$0-direction-gate 0;
#X obj 169 53 r \$0-direction;
#X obj 69 53 inlet;
#X obj 69 202 outlet;
#X obj 69 114 spigot;
#X obj 136 114 spigot;
#X obj 169 84 == 0;
#X text 35 172 asc;
#X text 177 174 desc, f 5;
#X obj 69 172 <=;
#X obj 329 53 inlet;
#X obj 136 172 >=;
#X connect 0 0 3 1;
#X connect 0 0 5 0;
#X connect 1 0 3 0;
#X connect 1 0 4 0;
#X connect 3 0 8 0;
#X connect 4 0 10 0;
#X connect 5 0 4 1;
#X connect 8 0 2 0;
#X connect 9 0 8 1;
#X connect 9 0 10 1;
#X connect 10 0 2 0;
#X restore 402 763 pd \$0-direction-gate;
#X msg 159 284 0;
#X msg 198 284 1;
#X obj 277 179 route bang;
#X obj 301 42 inlet;
#X obj 363 199 t a;
#X obj 46 284 array-rangenorm;
#X obj 46 115 list split 4;
#X obj 46 256 array-range;
#X obj 276 463 + 1;
#X obj 352 601 until;
#X obj 46 389 t b f b, f 33;
#X msg 241 420 1;
#X obj 394 499 r \$0-onset;
#X obj 379 526 +;
#X obj 379 576 r \$0-found;
#X obj 218 925 tabinsert;
#X obj 519 627 tabread;
#X obj 352 655 f;
#X obj 402 655 - 1;
#X msg 363 292 set \$1;
#X obj 416 709 r \$0-array-name;
#X obj 402 736 tabread;
#X obj 56 788 r \$0-array-name;
#X obj 226 493 t b b f f;
#X text 424 527 <- index of new element to insert;
#X obj 151 817 f;
#X obj 402 790 sel 1;
#X obj 402 817 s \$0-found;
#X obj 243 817 +;
#X obj 243 708 f;
#X obj 269 863 swap;
#X obj 269 889 -;
#X obj 290 840 + 1;
#X obj 379 550 s \$0-nextind;
#X obj 367 627 r \$0-nextind;
#X obj 519 575 r \$0-nextind;
#X obj 290 817 r \$0-nextind;
#X obj 46 198 pack 0 -1 0 1;
#X obj 46 223 unpack 0 -1 0 1;
#X obj 519 652 s \$0-nextval;
#X obj 519 738 r \$0-nextval;
#X obj 166 788 r \$0-nextval;
#X connect 1 0 26 0;
#X connect 2 0 57 1;
#X connect 3 0 24 0;
#X connect 4 0 24 0;
#X connect 5 0 6 0;
#X connect 6 0 4 0;
#X connect 7 0 39 0;
#X connect 10 0 57 2;
#X connect 11 0 20 0;
#X connect 11 1 21 0;
#X connect 13 0 30 0;
#X connect 13 1 16 0;
#X connect 14 0 28 0;
#X connect 14 0 43 0;
#X connect 15 0 14 0;
#X connect 17 0 15 0;
#X connect 18 0 36 0;
#X connect 19 0 46 0;
#X connect 19 0 48 1;
#X connect 20 0 12 0;
#X connect 21 0 12 0;
#X connect 22 1 24 0;
#X connect 23 0 57 3;
#X connect 24 0 7 0;
#X connect 24 0 27 3;
#X connect 25 0 13 0;
#X connect 25 1 13 1;
#X connect 26 0 57 0;
#X connect 26 1 22 0;
#X connect 26 2 57 0;
#X connect 27 0 25 0;
#X connect 27 1 25 1;
#X connect 27 2 25 2;
#X connect 28 0 14 1;
#X connect 29 0 37 0;
#X connect 30 0 0 0;
#X connect 30 1 17 0;
#X connect 30 2 31 0;
#X connect 31 0 14 1;
#X connect 32 0 33 1;
#X connect 33 0 53 0;
#X connect 34 0 29 1;
#X connect 36 0 59 0;
#X connect 37 0 38 0;
#X connect 38 0 37 1;
#X connect 38 0 41 0;
#X connect 38 0 49 1;
#X connect 39 0 8 0;
#X connect 40 0 41 0;
#X connect 41 0 19 0;
#X connect 42 0 35 0;
#X connect 43 0 45 0;
#X connect 43 1 49 0;
#X connect 43 2 29 0;
#X connect 43 3 33 0;
#X connect 45 0 35 0;
#X connect 46 0 47 0;
#X connect 48 0 35 1;
#X connect 48 0 50 0;
#X connect 49 0 48 0;
#X connect 50 0 51 0;
#X connect 50 1 51 1;
#X connect 51 0 35 2;
#X connect 52 0 50 1;
#X connect 54 0 37 1;
#X connect 55 0 36 0;
#X connect 56 0 52 0;
#X connect 57 0 58 0;
#X connect 58 0 27 0;
#X connect 58 1 27 1;
#X connect 58 2 27 2;
#X connect 58 3 11 0;
#X connect 60 0 19 1;
#X connect 61 0 45 1;
