#N canvas 242 199 662 911 10;
#X obj 111 155 inlet;
#X obj 427 256 inlet;
#N canvas 0 22 577 494 \$0-args 0;
#X obj 49 49 inlet;
#X obj 49 382 outlet;
#X obj 219 382 outlet;
#X msg 49 75 \$1 \$1;
#X obj 219 354 r \$0-noarg;
#X obj 49 354 r \$0-thisarg;
#N canvas 0 22 254 277 \$0-test-1 0;
#X obj 41 46 inlet;
#X obj 113 102 makefilename $%d-;
#X obj 41 75 t b f;
#X obj 41 102 symbol \$1-;
#X obj 41 130 sel s;
#X obj 68 153 b;
#X obj 68 176 list append \$1;
#X obj 41 222 s \$0-noarg;
#X obj 68 200 s \$0-thisarg;
#X connect 0 0 2 0;
#X connect 1 0 4 1;
#X connect 2 0 3 0;
#X connect 2 1 1 0;
#X connect 3 0 4 0;
#X connect 4 0 7 0;
#X connect 4 1 5 0;
#X connect 5 0 6 0;
#X connect 6 0 8 0;
#X restore 49 326 pd \$0-test-1;
#N canvas 0 22 254 277 \$0-test-2 0;
#X obj 41 46 inlet;
#X obj 113 102 makefilename $%d-;
#X obj 41 75 t b f;
#X obj 41 130 sel s;
#X obj 68 153 b;
#X obj 41 222 s \$0-noarg;
#X obj 68 200 s \$0-thisarg;
#X obj 41 102 symbol \$2-;
#X obj 68 176 list append \$2;
#X connect 0 0 2 0;
#X connect 1 0 3 1;
#X connect 2 0 7 0;
#X connect 2 1 1 0;
#X connect 3 0 5 0;
#X connect 3 1 4 0;
#X connect 4 0 8 0;
#X connect 7 0 3 0;
#X connect 8 0 6 0;
#X restore 64 304 pd \$0-test-2;
#N canvas 0 22 254 277 \$0-test-3 0;
#X obj 41 46 inlet;
#X obj 113 102 makefilename $%d-;
#X obj 41 75 t b f;
#X obj 41 130 sel s;
#X obj 68 153 b;
#X obj 41 222 s \$0-noarg;
#X obj 68 200 s \$0-thisarg;
#X obj 41 102 symbol \$3-;
#X obj 68 176 list append \$3;
#X connect 0 0 2 0;
#X connect 1 0 3 1;
#X connect 2 0 7 0;
#X connect 2 1 1 0;
#X connect 3 0 5 0;
#X connect 3 1 4 0;
#X connect 4 0 8 0;
#X connect 7 0 3 0;
#X connect 8 0 6 0;
#X restore 79 283 pd \$0-test-3;
#N canvas 0 22 254 277 \$0-test-4 0;
#X obj 41 46 inlet;
#X obj 113 102 makefilename $%d-;
#X obj 41 75 t b f;
#X obj 41 130 sel s;
#X obj 68 153 b;
#X obj 41 222 s \$0-noarg;
#X obj 68 200 s \$0-thisarg;
#X obj 41 102 symbol \$4-;
#X obj 68 176 list append \$4;
#X connect 0 0 2 0;
#X connect 1 0 3 1;
#X connect 2 0 7 0;
#X connect 2 1 1 0;
#X connect 3 0 5 0;
#X connect 3 1 4 0;
#X connect 4 0 8 0;
#X connect 7 0 3 0;
#X connect 8 0 6 0;
#X restore 94 261 pd \$0-test-4;
#N canvas 0 22 254 277 \$0-test-5 0;
#X obj 41 46 inlet;
#X obj 113 102 makefilename $%d-;
#X obj 41 75 t b f;
#X obj 41 130 sel s;
#X obj 68 153 b;
#X obj 41 222 s \$0-noarg;
#X obj 68 200 s \$0-thisarg;
#X obj 41 102 symbol \$5-;
#X obj 68 176 list append \$5;
#X connect 0 0 2 0;
#X connect 1 0 3 1;
#X connect 2 0 7 0;
#X connect 2 1 1 0;
#X connect 3 0 5 0;
#X connect 3 1 4 0;
#X connect 4 0 8 0;
#X connect 7 0 3 0;
#X connect 8 0 6 0;
#X restore 110 239 pd \$0-test-5;
#N canvas 0 22 254 277 \$0-test-6 0;
#X obj 41 46 inlet;
#X obj 113 102 makefilename $%d-;
#X obj 41 75 t b f;
#X obj 41 130 sel s;
#X obj 68 153 b;
#X obj 41 222 s \$0-noarg;
#X obj 68 200 s \$0-thisarg;
#X obj 41 102 symbol \$6-;
#X obj 68 176 list append \$6;
#X connect 0 0 2 0;
#X connect 1 0 3 1;
#X connect 2 0 7 0;
#X connect 2 1 1 0;
#X connect 3 0 5 0;
#X connect 3 1 4 0;
#X connect 4 0 8 0;
#X connect 7 0 3 0;
#X connect 8 0 6 0;
#X restore 125 217 pd \$0-test-6;
#N canvas 0 22 254 277 \$0-test-7 0;
#X obj 41 46 inlet;
#X obj 113 102 makefilename $%d-;
#X obj 41 75 t b f;
#X obj 41 130 sel s;
#X obj 68 153 b;
#X obj 41 222 s \$0-noarg;
#X obj 68 200 s \$0-thisarg;
#X obj 41 102 symbol \$7-;
#X obj 68 176 list append \$7;
#X connect 0 0 2 0;
#X connect 1 0 3 1;
#X connect 2 0 7 0;
#X connect 2 1 1 0;
#X connect 3 0 5 0;
#X connect 3 1 4 0;
#X connect 4 0 8 0;
#X connect 7 0 3 0;
#X connect 8 0 6 0;
#X restore 140 195 pd \$0-test-7;
#N canvas 0 22 254 277 \$0-test-8 0;
#X obj 41 46 inlet;
#X obj 113 102 makefilename $%d-;
#X obj 41 75 t b f;
#X obj 41 130 sel s;
#X obj 68 153 b;
#X obj 41 222 s \$0-noarg;
#X obj 68 200 s \$0-thisarg;
#X obj 41 102 symbol \$8-;
#X obj 68 176 list append \$8;
#X connect 0 0 2 0;
#X connect 1 0 3 1;
#X connect 2 0 7 0;
#X connect 2 1 1 0;
#X connect 3 0 5 0;
#X connect 3 1 4 0;
#X connect 4 0 8 0;
#X connect 7 0 3 0;
#X connect 8 0 6 0;
#X restore 156 173 pd \$0-test-8;
#X obj 49 101 route 1 2 3 4 5 6 7 8 9 10;
#N canvas 0 22 254 277 \$0-test-9 0;
#X obj 41 46 inlet;
#X obj 113 102 makefilename $%d-;
#X obj 41 75 t b f;
#X obj 41 130 sel s;
#X obj 68 153 b;
#X obj 41 222 s \$0-noarg;
#X obj 68 200 s \$0-thisarg;
#X obj 41 102 symbol \$9-;
#X obj 68 176 list append \$9;
#X connect 0 0 2 0;
#X connect 1 0 3 1;
#X connect 2 0 7 0;
#X connect 2 1 1 0;
#X connect 3 0 5 0;
#X connect 3 1 4 0;
#X connect 4 0 8 0;
#X connect 7 0 3 0;
#X connect 8 0 6 0;
#X restore 171 151 pd \$0-test-9;
#N canvas 0 22 254 277 \$0-test-10 0;
#X obj 41 46 inlet;
#X obj 113 102 makefilename $%d-;
#X obj 41 75 t b f;
#X obj 41 130 sel s;
#X obj 68 153 b;
#X obj 41 222 s \$0-noarg;
#X obj 68 200 s \$0-thisarg;
#X obj 41 102 symbol \$10-;
#X obj 68 176 list append \$10;
#X connect 0 0 2 0;
#X connect 1 0 3 1;
#X connect 2 0 7 0;
#X connect 2 1 1 0;
#X connect 3 0 5 0;
#X connect 3 1 4 0;
#X connect 4 0 8 0;
#X connect 7 0 3 0;
#X connect 8 0 6 0;
#X restore 186 129 pd \$0-test-10;
#X text 46 27 argument number;
#X text 42 419 argument if it exists;
#X text 216 419 bang if it doesn't;
#X text 194 35 This subpatch tests for the presence of up to 10 creation
arguments. After IOhannes Zmölnig.;
#X connect 0 0 3 0;
#X connect 3 0 14 0;
#X connect 4 0 2 0;
#X connect 5 0 1 0;
#X connect 14 0 6 0;
#X connect 14 1 7 0;
#X connect 14 2 8 0;
#X connect 14 3 9 0;
#X connect 14 4 10 0;
#X connect 14 5 11 0;
#X connect 14 6 12 0;
#X connect 14 7 13 0;
#X connect 14 8 15 0;
#X connect 14 9 16 0;
#X restore 264 139 pd \$0-args;
#X obj 306 24 loadbang;
#X obj 264 385 route symbol;
#X obj 111 846 outlet;
#X obj 264 846 outlet;
#X obj 264 408 s \$0-name;
#X text 46 894 2015 Matt Barber;
#X msg 306 49 1 2;
#X obj 306 72 unpack;
#X obj 264 167 list prepend;
#X obj 264 200 route 1 2;
#X obj 289 228 route float;
#X obj 111 310 list prepend 0;
#X obj 111 335 route 0 1 2;
#N canvas 1158 76 547 682 \$0-findall 0;
#X obj 172 40 inlet;
#X obj 122 255 until;
#X obj 95 162 array size;
#X obj 129 404 tabread;
#X msg 129 332 set \$1;
#X obj 223 560 outlet;
#X obj 303 560 outlet;
#X obj 199 272 f;
#X obj 231 272 + 1;
#X msg 214 199 0;
#X obj 199 304 t f f, f 7;
#X obj 235 109 s \$0-value;
#X obj 171 373 r \$0-value;
#X obj 200 421 sel 0;
#X obj 223 492 f;
#X obj 129 304 r \$0-name;
#X obj 152 134 r \$0-name;
#X obj 318 489 f;
#X obj 350 489 + 1;
#X obj 303 520 f;
#X obj 303 435 r \$0-done;
#X msg 422 392 0;
#X msg 381 436 1;
#X obj 95 185 t b f;
#X obj 55 254 s \$0-done;
#X obj 172 81 t b b f, f 11;
#X connect 0 0 25 0;
#X connect 1 0 7 0;
#X connect 2 0 23 0;
#X connect 3 0 13 0;
#X connect 4 0 3 0;
#X connect 7 0 8 0;
#X connect 7 0 10 0;
#X connect 8 0 7 1;
#X connect 9 0 7 1;
#X connect 10 0 3 0;
#X connect 10 1 14 1;
#X connect 12 0 13 1;
#X connect 13 0 17 0;
#X connect 13 0 14 0;
#X connect 14 0 5 0;
#X connect 15 0 4 0;
#X connect 16 0 2 1;
#X connect 17 0 18 0;
#X connect 17 0 19 1;
#X connect 18 0 17 1;
#X connect 19 0 6 0;
#X connect 20 0 19 0;
#X connect 21 0 19 1;
#X connect 22 0 17 1;
#X connect 23 0 24 0;
#X connect 23 1 1 0;
#X connect 25 0 2 0;
#X connect 25 1 9 0;
#X connect 25 1 21 0;
#X connect 25 1 22 0;
#X connect 25 2 9 0;
#X connect 25 2 11 0;
#X restore 111 707 pd \$0-findall;
#X msg 264 772 0;
#X obj 132 600 array-findfirst;
#X obj 168 571 r \$0-name;
#X obj 111 745 s \$0-index;
#X obj 159 654 s \$0-index;
#X obj 166 519 s \$0-index;
#X obj 153 463 array-findlast, f 19;
#X obj 111 811 r \$0-index;
#X obj 306 108 t f f;
#X obj 264 339 symbol;
#X msg 300 772 1;
#X obj 132 626 t b f;
#X obj 153 493 t b f;
#X obj 213 435 r \$0-name;
#X obj 153 542 s \$0-one;
#X obj 132 678 s \$0-one;
#X obj 300 737 r \$0-one;
#X obj 333 411 s \$0-nameerror;
#X obj 284 446 r \$0-nameerror;
#X obj 312 255 s \$0-floaterror;
#X obj 289 293 route float;
#X obj 333 482 r \$0-floaterror;
#X obj 333 571 print array-find;
#X obj 333 510 list;
#X msg 333 542 error: expected 'float' in second argument but got '\$1'
;
#X connect 0 0 14 0;
#X connect 1 0 37 0;
#X connect 2 0 11 0;
#X connect 3 0 9 0;
#X connect 4 0 7 0;
#X connect 4 1 34 0;
#X connect 9 0 10 0;
#X connect 10 0 25 0;
#X connect 10 1 25 0;
#X connect 11 0 12 0;
#X connect 12 0 26 0;
#X connect 12 1 13 0;
#X connect 13 0 37 0;
#X connect 13 1 36 0;
#X connect 14 0 15 0;
#X connect 15 0 16 0;
#X connect 15 1 18 0;
#X connect 15 2 23 0;
#X connect 16 0 20 0;
#X connect 16 1 6 0;
#X connect 17 0 6 0;
#X connect 18 0 28 0;
#X connect 18 1 17 0;
#X connect 19 0 18 1;
#X connect 23 0 29 0;
#X connect 23 1 17 0;
#X connect 24 0 5 0;
#X connect 25 0 2 0;
#X connect 25 1 11 1;
#X connect 26 0 4 0;
#X connect 27 0 6 0;
#X connect 28 0 32 0;
#X connect 28 1 21 0;
#X connect 29 0 31 0;
#X connect 29 1 22 0;
#X connect 30 0 23 1;
#X connect 33 0 27 0;
#X connect 35 0 23 1;
#X connect 37 0 14 1;
#X connect 37 1 4 0;
#X connect 38 0 40 0;
#X connect 40 0 41 0;
#X connect 41 0 39 0;
