#N canvas 467 37 611 1127 10;
#X obj 46 982 outlet;
#X obj 46 42 inlet;
#X obj 171 42 inlet;
#X obj 323 42 inlet;
#N canvas 0 22 577 494 \$0-args 0;
#X obj 49 49 inlet;
#X obj 49 382 outlet;
#X obj 219 382 outlet;
#X msg 49 75 \$1 \$1;
#X obj 219 354 r \$0-noarg;
#X obj 49 354 r \$0-thisarg;
#N canvas 0 22 254 277 \$0-test-1 0;
#X obj 41 46 inlet;
#X obj 113 102 makefilename $%d-;
#X obj 41 75 t b f;
#X obj 41 102 symbol \$1-;
#X obj 41 130 sel s;
#X obj 68 153 b;
#X obj 68 176 list append \$1;
#X obj 41 222 s \$0-noarg;
#X obj 68 200 s \$0-thisarg;
#X connect 0 0 2 0;
#X connect 1 0 4 1;
#X connect 2 0 3 0;
#X connect 2 1 1 0;
#X connect 3 0 4 0;
#X connect 4 0 7 0;
#X connect 4 1 5 0;
#X connect 5 0 6 0;
#X connect 6 0 8 0;
#X restore 49 326 pd \$0-test-1;
#N canvas 0 22 254 277 \$0-test-2 0;
#X obj 41 46 inlet;
#X obj 113 102 makefilename $%d-;
#X obj 41 75 t b f;
#X obj 41 130 sel s;
#X obj 68 153 b;
#X obj 41 222 s \$0-noarg;
#X obj 68 200 s \$0-thisarg;
#X obj 41 102 symbol \$2-;
#X obj 68 176 list append \$2;
#X connect 0 0 2 0;
#X connect 1 0 3 1;
#X connect 2 0 7 0;
#X connect 2 1 1 0;
#X connect 3 0 5 0;
#X connect 3 1 4 0;
#X connect 4 0 8 0;
#X connect 7 0 3 0;
#X connect 8 0 6 0;
#X restore 64 304 pd \$0-test-2;
#N canvas 0 22 254 277 \$0-test-3 0;
#X obj 41 46 inlet;
#X obj 113 102 makefilename $%d-;
#X obj 41 75 t b f;
#X obj 41 130 sel s;
#X obj 68 153 b;
#X obj 41 222 s \$0-noarg;
#X obj 68 200 s \$0-thisarg;
#X obj 41 102 symbol \$3-;
#X obj 68 176 list append \$3;
#X connect 0 0 2 0;
#X connect 1 0 3 1;
#X connect 2 0 7 0;
#X connect 2 1 1 0;
#X connect 3 0 5 0;
#X connect 3 1 4 0;
#X connect 4 0 8 0;
#X connect 7 0 3 0;
#X connect 8 0 6 0;
#X restore 79 283 pd \$0-test-3;
#N canvas 0 22 254 277 \$0-test-4 0;
#X obj 41 46 inlet;
#X obj 113 102 makefilename $%d-;
#X obj 41 75 t b f;
#X obj 41 130 sel s;
#X obj 68 153 b;
#X obj 41 222 s \$0-noarg;
#X obj 68 200 s \$0-thisarg;
#X obj 41 102 symbol \$4-;
#X obj 68 176 list append \$4;
#X connect 0 0 2 0;
#X connect 1 0 3 1;
#X connect 2 0 7 0;
#X connect 2 1 1 0;
#X connect 3 0 5 0;
#X connect 3 1 4 0;
#X connect 4 0 8 0;
#X connect 7 0 3 0;
#X connect 8 0 6 0;
#X restore 94 261 pd \$0-test-4;
#N canvas 0 22 254 277 \$0-test-5 0;
#X obj 41 46 inlet;
#X obj 113 102 makefilename $%d-;
#X obj 41 75 t b f;
#X obj 41 130 sel s;
#X obj 68 153 b;
#X obj 41 222 s \$0-noarg;
#X obj 68 200 s \$0-thisarg;
#X obj 41 102 symbol \$5-;
#X obj 68 176 list append \$5;
#X connect 0 0 2 0;
#X connect 1 0 3 1;
#X connect 2 0 7 0;
#X connect 2 1 1 0;
#X connect 3 0 5 0;
#X connect 3 1 4 0;
#X connect 4 0 8 0;
#X connect 7 0 3 0;
#X connect 8 0 6 0;
#X restore 110 239 pd \$0-test-5;
#N canvas 0 22 254 277 \$0-test-6 0;
#X obj 41 46 inlet;
#X obj 113 102 makefilename $%d-;
#X obj 41 75 t b f;
#X obj 41 130 sel s;
#X obj 68 153 b;
#X obj 41 222 s \$0-noarg;
#X obj 68 200 s \$0-thisarg;
#X obj 41 102 symbol \$6-;
#X obj 68 176 list append \$6;
#X connect 0 0 2 0;
#X connect 1 0 3 1;
#X connect 2 0 7 0;
#X connect 2 1 1 0;
#X connect 3 0 5 0;
#X connect 3 1 4 0;
#X connect 4 0 8 0;
#X connect 7 0 3 0;
#X connect 8 0 6 0;
#X restore 125 217 pd \$0-test-6;
#N canvas 0 22 254 277 \$0-test-7 0;
#X obj 41 46 inlet;
#X obj 113 102 makefilename $%d-;
#X obj 41 75 t b f;
#X obj 41 130 sel s;
#X obj 68 153 b;
#X obj 41 222 s \$0-noarg;
#X obj 68 200 s \$0-thisarg;
#X obj 41 102 symbol \$7-;
#X obj 68 176 list append \$7;
#X connect 0 0 2 0;
#X connect 1 0 3 1;
#X connect 2 0 7 0;
#X connect 2 1 1 0;
#X connect 3 0 5 0;
#X connect 3 1 4 0;
#X connect 4 0 8 0;
#X connect 7 0 3 0;
#X connect 8 0 6 0;
#X restore 140 195 pd \$0-test-7;
#N canvas 0 22 254 277 \$0-test-8 0;
#X obj 41 46 inlet;
#X obj 113 102 makefilename $%d-;
#X obj 41 75 t b f;
#X obj 41 130 sel s;
#X obj 68 153 b;
#X obj 41 222 s \$0-noarg;
#X obj 68 200 s \$0-thisarg;
#X obj 41 102 symbol \$8-;
#X obj 68 176 list append \$8;
#X connect 0 0 2 0;
#X connect 1 0 3 1;
#X connect 2 0 7 0;
#X connect 2 1 1 0;
#X connect 3 0 5 0;
#X connect 3 1 4 0;
#X connect 4 0 8 0;
#X connect 7 0 3 0;
#X connect 8 0 6 0;
#X restore 156 173 pd \$0-test-8;
#X obj 49 101 route 1 2 3 4 5 6 7 8 9 10;
#N canvas 0 22 254 277 \$0-test-9 0;
#X obj 41 46 inlet;
#X obj 113 102 makefilename $%d-;
#X obj 41 75 t b f;
#X obj 41 130 sel s;
#X obj 68 153 b;
#X obj 41 222 s \$0-noarg;
#X obj 68 200 s \$0-thisarg;
#X obj 41 102 symbol \$9-;
#X obj 68 176 list append \$9;
#X connect 0 0 2 0;
#X connect 1 0 3 1;
#X connect 2 0 7 0;
#X connect 2 1 1 0;
#X connect 3 0 5 0;
#X connect 3 1 4 0;
#X connect 4 0 8 0;
#X connect 7 0 3 0;
#X connect 8 0 6 0;
#X restore 171 151 pd \$0-test-9;
#N canvas 0 22 254 277 \$0-test-10 0;
#X obj 41 46 inlet;
#X obj 113 102 makefilename $%d-;
#X obj 41 75 t b f;
#X obj 41 130 sel s;
#X obj 68 153 b;
#X obj 41 222 s \$0-noarg;
#X obj 68 200 s \$0-thisarg;
#X obj 41 102 symbol \$10-;
#X obj 68 176 list append \$10;
#X connect 0 0 2 0;
#X connect 1 0 3 1;
#X connect 2 0 7 0;
#X connect 2 1 1 0;
#X connect 3 0 5 0;
#X connect 3 1 4 0;
#X connect 4 0 8 0;
#X connect 7 0 3 0;
#X connect 8 0 6 0;
#X restore 186 129 pd \$0-test-10;
#X text 46 27 argument number;
#X text 42 419 argument if it exists;
#X text 216 419 bang if it doesn't;
#X text 194 35 This subpatch tests for the presence of up to 10 creation
arguments. After IOhannes Zmölnig.;
#X connect 0 0 3 0;
#X connect 3 0 14 0;
#X connect 4 0 2 0;
#X connect 5 0 1 0;
#X connect 14 0 6 0;
#X connect 14 1 7 0;
#X connect 14 2 8 0;
#X connect 14 3 9 0;
#X connect 14 4 10 0;
#X connect 14 5 11 0;
#X connect 14 6 12 0;
#X connect 14 7 13 0;
#X connect 14 8 15 0;
#X connect 14 9 16 0;
#X restore 352 131 pd \$0-args;
#X obj 352 69 loadbang;
#X msg 352 94 1;
#X msg 350 255 0;
#X obj 323 159 t a b;
#X obj 46 380 spigot 0;
#X text 48 1016 2015 Matt Barber;
#X obj 221 42 inlet;
#X obj 46 165 pack 0 0 -1 0;
#X obj 46 192 list split 1;
#X obj 80 249 array-rangenorm;
#X obj 271 42 inlet;
#X obj 46 275 swap;
#X obj 46 77 list split 4;
#X obj 233 127 route bang;
#X obj 141 982 outlet;
#X obj 67 301 s \$0-value;
#X obj 334 723 r \$0-value;
#X obj 323 360 s \$0-array;
#X obj 239 484 f;
#X obj 239 615 +;
#X obj 239 459 until;
#X obj 286 434 r \$0-stop;
#X obj 239 778 sel 1;
#X obj 239 936 + 1;
#X obj 239 911 f;
#X obj 134 672 r \$0-array;
#X obj 433 528 sel 0;
#X obj 433 557 s \$0-stop;
#X obj 103 778 ==;
#X obj 118 750 r \$0-value;
#X obj 433 795 b;
#N canvas 155 514 630 674 \$0-compare 0;
#X obj 69 204 inlet;
#X obj 69 532 outlet;
#X obj 69 444 spigot;
#X obj 136 444 spigot;
#X obj 169 414 == 0;
#X text 35 502 asc;
#X text 177 504 desc, f 5;
#X obj 429 343 inlet;
#X obj 69 502 <;
#X obj 136 502 >;
#X obj 329 281 +;
#X obj 380 304 r \$0-array;
#X obj 220 304 r \$0-array;
#X obj 169 231 t f f;
#X obj 169 368 <;
#X obj 344 257 - 1;
#X obj 169 202 r \$0-init-onset;
#X obj 344 232 r \$0-init-p;
#X obj 169 327 array get;
#X obj 194 280 r \$0-get;
#X obj 329 327 array get;
#X obj 354 280 r \$0-get;
#X connect 0 0 2 0;
#X connect 0 0 3 0;
#X connect 2 0 8 0;
#X connect 3 0 9 0;
#X connect 4 0 3 1;
#X connect 7 0 8 1;
#X connect 7 0 9 1;
#X connect 8 0 1 0;
#X connect 9 0 1 0;
#X connect 10 0 20 0;
#X connect 11 0 20 2;
#X connect 12 0 18 2;
#X connect 13 0 18 0;
#X connect 13 1 10 0;
#X connect 14 0 4 0;
#X connect 14 0 2 1;
#X connect 15 0 10 1;
#X connect 16 0 13 0;
#X connect 17 0 15 0;
#X connect 18 0 14 0;
#X connect 19 0 18 1;
#X connect 20 0 14 1;
#X connect 21 0 20 1;
#X restore 239 750 pd \$0-compare;
#X obj 433 856 f;
#X obj 239 644 t f f;
#X obj 239 962 s \$0-onset;
#X obj 451 437 s \$0-init-onset;
#X obj 254 592 r \$0-onset;
#X obj 334 962 s \$0-p;
#X obj 284 459 r \$0-p;
#X obj 433 885 s \$0-p;
#X obj 46 560 f;
#X obj 46 409 t b b f, f 65;
#X obj 433 461 s \$0-onset;
#X obj 334 911 -;
#X obj 349 837 r \$0-p;
#X obj 334 862 f;
#X obj 239 538 t f f;
#X obj 167 305 s \$0-p;
#X obj 61 537 r \$0-onset;
#X obj 185 272 s \$0-init-p;
#X obj 46 594 t f f;
#X obj 141 911 f;
#X obj 46 911 f;
#X obj 46 807 sel 1;
#X obj 141 885 b;
#X obj 239 511 >> 1;
#X obj 266 562 s \$0-step;
#X obj 448 821 r \$0-step;
#X obj 349 885 r \$0-step;
#X obj 334 936 - 1;
#X obj 266 671 s \$0-o+s;
#X obj 254 885 r \$0-o+s;
#X obj 73 618 s \$0-out;
#X obj 170 885 r \$0-out;
#X obj 61 883 r \$0-out;
#X text 62 436 infinite loop insurance ->;
#X msg 239 434 33;
#X obj 323 304 route symbol;
#X obj 46 704 array get;
#X obj 239 723 array get;
#X obj 334 695 r \$0-array;
#X obj 429 111 s \$0-get;
#X obj 71 672 r \$0-get;
#X obj 264 695 r \$0-get;
#X obj 46 750 route bang;
#X msg 46 778 0;
#X obj 80 222 array-range;
#X connect 1 0 17 0;
#X connect 2 0 12 1;
#X connect 3 0 8 0;
#X connect 4 0 8 0;
#X connect 5 0 6 0;
#X connect 6 0 4 0;
#X connect 6 0 76 0;
#X connect 7 0 9 1;
#X connect 8 0 72 0;
#X connect 8 0 81 3;
#X connect 8 1 7 0;
#X connect 9 0 46 0;
#X connect 11 0 12 2;
#X connect 12 0 13 0;
#X connect 13 0 16 0;
#X connect 13 1 81 0;
#X connect 14 0 16 1;
#X connect 14 1 9 1;
#X connect 14 1 54 0;
#X connect 14 1 52 0;
#X connect 15 0 12 3;
#X connect 16 0 9 0;
#X connect 16 1 20 0;
#X connect 17 0 12 0;
#X connect 17 1 18 0;
#X connect 17 2 12 0;
#X connect 18 1 8 0;
#X connect 21 0 36 1;
#X connect 23 0 60 0;
#X connect 24 0 38 0;
#X connect 25 0 23 0;
#X connect 26 0 25 1;
#X connect 27 0 29 0;
#X connect 27 0 50 0;
#X connect 27 1 35 0;
#X connect 28 0 39 0;
#X connect 29 0 28 0;
#X connect 30 0 73 2;
#X connect 31 0 32 0;
#X connect 33 0 58 0;
#X connect 34 0 33 1;
#X connect 35 0 37 0;
#X connect 36 0 27 0;
#X connect 37 0 44 0;
#X connect 38 0 74 0;
#X connect 38 1 65 0;
#X connect 41 0 24 1;
#X connect 43 0 23 1;
#X connect 45 0 55 0;
#X connect 46 0 45 0;
#X connect 46 1 71 0;
#X connect 46 2 40 0;
#X connect 46 2 47 0;
#X connect 48 0 64 0;
#X connect 49 0 50 1;
#X connect 50 0 48 0;
#X connect 51 0 24 0;
#X connect 51 1 61 0;
#X connect 53 0 45 1;
#X connect 55 0 73 0;
#X connect 55 1 67 0;
#X connect 56 0 19 0;
#X connect 57 0 0 0;
#X connect 58 0 57 0;
#X connect 58 1 59 0;
#X connect 59 0 56 0;
#X connect 60 0 31 0;
#X connect 60 0 51 0;
#X connect 62 0 37 1;
#X connect 63 0 48 1;
#X connect 64 0 42 0;
#X connect 66 0 29 1;
#X connect 68 0 56 1;
#X connect 69 0 57 1;
#X connect 71 0 25 0;
#X connect 72 0 22 0;
#X connect 73 0 79 0;
#X connect 74 0 36 0;
#X connect 75 0 74 2;
#X connect 77 0 73 1;
#X connect 78 0 74 1;
#X connect 79 0 80 0;
#X connect 79 1 33 0;
#X connect 80 0 58 0;
#X connect 81 0 14 0;
#X connect 81 1 14 1;
#X connect 81 2 14 2;
