#N canvas 254 109 1189 681 10;
#X obj 681 420 tabwrite~ benchmark-1;
#X obj 698 381 noise~;
#X obj 757 389 bng 15 250 50 0 empty empty empty 17 7 0 10 -262144
-1 -1;
#X obj 128 156 realtime;
#X floatatom 127 188 0 0 0 0 - - -;
#X obj 85 186 until;
#X obj 85 97 bng 15 250 50 0 empty empty empty 17 7 0 10 -262144 -1
-1;
#X obj 83 123 t b b b;
#X obj 188 247 array size benchmark-1;
#X obj 188 273 array size benchmark-dump;
#X obj 58 303 array get benchmark-1;
#X obj 58 332 array set benchmark-dump;
#X obj 83 221 t b b;
#X msg 84 157 20000;
#X obj 469 168 realtime;
#X floatatom 468 200 0 0 0 0 - - -;
#X obj 395 196 until;
#X obj 395 107 bng 15 250 50 0 empty empty empty 17 7 0 10 -262144
-1 -1;
#X obj 393 133 t b b b;
#X obj 498 257 array size benchmark-1;
#X obj 498 283 array size benchmark-dump;
#X obj 393 231 t b b;
#X msg 394 167 20000;
#X obj 395 273 f;
#X obj 395 300 until;
#X msg 455 303 0;
#X obj 394 368 f;
#X obj 437 370 + 1;
#X obj 391 405 t f f;
#X obj 385 500 tabwrite benchmark-dump;
#X obj 362 449 tabread benchmark-1;
#X obj 658 238 array define benchmark-dump 10;
#X obj 651 149 array define benchmark-1 10000;
#X connect 1 0 0 0;
#X connect 2 0 0 0;
#X connect 3 0 4 0;
#X connect 5 0 12 0;
#X connect 6 0 7 0;
#X connect 7 0 3 1;
#X connect 7 1 13 0;
#X connect 7 2 3 0;
#X connect 8 0 9 0;
#X connect 10 0 11 0;
#X connect 12 0 10 0;
#X connect 12 1 8 0;
#X connect 13 0 5 0;
#X connect 14 0 15 0;
#X connect 16 0 21 0;
#X connect 17 0 18 0;
#X connect 18 0 14 1;
#X connect 18 1 22 0;
#X connect 18 2 14 0;
#X connect 19 0 20 0;
#X connect 19 0 23 1;
#X connect 21 0 23 0;
#X connect 21 1 19 0;
#X connect 21 1 25 0;
#X connect 22 0 16 0;
#X connect 23 0 24 0;
#X connect 24 0 26 0;
#X connect 25 0 26 1;
#X connect 26 0 27 0;
#X connect 26 0 28 0;
#X connect 27 0 26 1;
#X connect 28 0 30 0;
#X connect 28 1 29 1;
#X connect 30 0 29 0;
