#N canvas 114 508 474 537 10;
#X obj 144 63 inlet;
#X obj 265 63 inlet;
#X obj 380 63 inlet;
#X obj 104 445 outlet;
#X obj 269 445 outlet;
#X obj 144 122 pack 0 0 1;
#X msg 217 206 1;
#X msg 178 206 -1;
#X obj 178 180 moses 0;
#X obj 144 151 list split 2;
#X obj 144 239 list prepend;
#X obj 144 271 route 1 -1;
#X obj 104 301 unpack 0 0;
#X obj 212 301 unpack 0 0;
#X obj 212 326 -;
#X obj 212 350 + 1;
#X text 80 496 2015 Matt Barber;
#X connect 0 0 5 0;
#X connect 1 0 5 1;
#X connect 2 0 5 2;
#X connect 5 0 9 0;
#X connect 6 0 10 1;
#X connect 7 0 10 1;
#X connect 8 0 7 0;
#X connect 8 1 6 0;
#X connect 9 0 10 0;
#X connect 9 1 8 0;
#X connect 10 0 11 0;
#X connect 11 0 12 0;
#X connect 11 1 13 0;
#X connect 12 0 3 0;
#X connect 12 1 4 0;
#X connect 13 0 14 0;
#X connect 13 1 14 1;
#X connect 13 1 4 0;
#X connect 14 0 15 0;
#X connect 15 0 3 0;
