#N canvas 143 122 659 324 10;
#X obj 412 157 array define array-rangenorm-help;
#X obj 90 86 array-range array-rangenorm-help;
#X obj 90 169 array-rangenorm;
#X floatatom 108 115 5 0 0 0 - - -, f 5;
#X floatatom 184 117 5 0 0 0 - - -, f 5;
#X floatatom 279 117 5 0 0 0 - - -, f 5;
#X msg 45 31 10 45 1;
#X msg 201 37 8 -1 -1;
#X msg 269 37 67 1000 1;
#X floatatom 90 191 5 0 0 0 - - -, f 5;
#X floatatom 177 192 5 0 0 0 - - -, f 5;
#X msg 122 31 59 20 -1;
#X connect 1 0 3 0;
#X connect 1 0 2 0;
#X connect 1 1 4 0;
#X connect 1 1 2 1;
#X connect 1 2 5 0;
#X connect 1 2 2 2;
#X connect 2 0 9 0;
#X connect 2 1 10 0;
#X connect 6 0 1 0;
#X connect 7 0 1 0;
#X connect 8 0 1 0;
#X connect 11 0 1 0;
