#N canvas 201 148 739 954 10;
#X obj 46 824 outlet;
#X obj 46 42 inlet;
#X obj 201 42 inlet;
#X obj 363 42 inlet;
#N canvas 0 22 577 494 \$0-args 0;
#X obj 49 49 inlet;
#X obj 49 382 outlet;
#X obj 219 382 outlet;
#X msg 49 75 \$1 \$1;
#X obj 219 354 r \$0-noarg;
#X obj 49 354 r \$0-thisarg;
#N canvas 0 22 254 277 \$0-test-1 0;
#X obj 41 46 inlet;
#X obj 113 102 makefilename $%d-;
#X obj 41 75 t b f;
#X obj 41 102 symbol \$1-;
#X obj 41 130 sel s;
#X obj 68 153 b;
#X obj 68 176 list append \$1;
#X obj 41 222 s \$0-noarg;
#X obj 68 200 s \$0-thisarg;
#X connect 0 0 2 0;
#X connect 1 0 4 1;
#X connect 2 0 3 0;
#X connect 2 1 1 0;
#X connect 3 0 4 0;
#X connect 4 0 7 0;
#X connect 4 1 5 0;
#X connect 5 0 6 0;
#X connect 6 0 8 0;
#X restore 49 326 pd \$0-test-1;
#N canvas 0 22 254 277 \$0-test-2 0;
#X obj 41 46 inlet;
#X obj 113 102 makefilename $%d-;
#X obj 41 75 t b f;
#X obj 41 130 sel s;
#X obj 68 153 b;
#X obj 41 222 s \$0-noarg;
#X obj 68 200 s \$0-thisarg;
#X obj 41 102 symbol \$2-;
#X obj 68 176 list append \$2;
#X connect 0 0 2 0;
#X connect 1 0 3 1;
#X connect 2 0 7 0;
#X connect 2 1 1 0;
#X connect 3 0 5 0;
#X connect 3 1 4 0;
#X connect 4 0 8 0;
#X connect 7 0 3 0;
#X connect 8 0 6 0;
#X restore 64 304 pd \$0-test-2;
#N canvas 0 22 254 277 \$0-test-3 0;
#X obj 41 46 inlet;
#X obj 113 102 makefilename $%d-;
#X obj 41 75 t b f;
#X obj 41 130 sel s;
#X obj 68 153 b;
#X obj 41 222 s \$0-noarg;
#X obj 68 200 s \$0-thisarg;
#X obj 41 102 symbol \$3-;
#X obj 68 176 list append \$3;
#X connect 0 0 2 0;
#X connect 1 0 3 1;
#X connect 2 0 7 0;
#X connect 2 1 1 0;
#X connect 3 0 5 0;
#X connect 3 1 4 0;
#X connect 4 0 8 0;
#X connect 7 0 3 0;
#X connect 8 0 6 0;
#X restore 79 283 pd \$0-test-3;
#N canvas 0 22 254 277 \$0-test-4 0;
#X obj 41 46 inlet;
#X obj 113 102 makefilename $%d-;
#X obj 41 75 t b f;
#X obj 41 130 sel s;
#X obj 68 153 b;
#X obj 41 222 s \$0-noarg;
#X obj 68 200 s \$0-thisarg;
#X obj 41 102 symbol \$4-;
#X obj 68 176 list append \$4;
#X connect 0 0 2 0;
#X connect 1 0 3 1;
#X connect 2 0 7 0;
#X connect 2 1 1 0;
#X connect 3 0 5 0;
#X connect 3 1 4 0;
#X connect 4 0 8 0;
#X connect 7 0 3 0;
#X connect 8 0 6 0;
#X restore 94 261 pd \$0-test-4;
#N canvas 0 22 254 277 \$0-test-5 0;
#X obj 41 46 inlet;
#X obj 113 102 makefilename $%d-;
#X obj 41 75 t b f;
#X obj 41 130 sel s;
#X obj 68 153 b;
#X obj 41 222 s \$0-noarg;
#X obj 68 200 s \$0-thisarg;
#X obj 41 102 symbol \$5-;
#X obj 68 176 list append \$5;
#X connect 0 0 2 0;
#X connect 1 0 3 1;
#X connect 2 0 7 0;
#X connect 2 1 1 0;
#X connect 3 0 5 0;
#X connect 3 1 4 0;
#X connect 4 0 8 0;
#X connect 7 0 3 0;
#X connect 8 0 6 0;
#X restore 110 239 pd \$0-test-5;
#N canvas 0 22 254 277 \$0-test-6 0;
#X obj 41 46 inlet;
#X obj 113 102 makefilename $%d-;
#X obj 41 75 t b f;
#X obj 41 130 sel s;
#X obj 68 153 b;
#X obj 41 222 s \$0-noarg;
#X obj 68 200 s \$0-thisarg;
#X obj 41 102 symbol \$6-;
#X obj 68 176 list append \$6;
#X connect 0 0 2 0;
#X connect 1 0 3 1;
#X connect 2 0 7 0;
#X connect 2 1 1 0;
#X connect 3 0 5 0;
#X connect 3 1 4 0;
#X connect 4 0 8 0;
#X connect 7 0 3 0;
#X connect 8 0 6 0;
#X restore 125 217 pd \$0-test-6;
#N canvas 0 22 254 277 \$0-test-7 0;
#X obj 41 46 inlet;
#X obj 113 102 makefilename $%d-;
#X obj 41 75 t b f;
#X obj 41 130 sel s;
#X obj 68 153 b;
#X obj 41 222 s \$0-noarg;
#X obj 68 200 s \$0-thisarg;
#X obj 41 102 symbol \$7-;
#X obj 68 176 list append \$7;
#X connect 0 0 2 0;
#X connect 1 0 3 1;
#X connect 2 0 7 0;
#X connect 2 1 1 0;
#X connect 3 0 5 0;
#X connect 3 1 4 0;
#X connect 4 0 8 0;
#X connect 7 0 3 0;
#X connect 8 0 6 0;
#X restore 140 195 pd \$0-test-7;
#N canvas 0 22 254 277 \$0-test-8 0;
#X obj 41 46 inlet;
#X obj 113 102 makefilename $%d-;
#X obj 41 75 t b f;
#X obj 41 130 sel s;
#X obj 68 153 b;
#X obj 41 222 s \$0-noarg;
#X obj 68 200 s \$0-thisarg;
#X obj 41 102 symbol \$8-;
#X obj 68 176 list append \$8;
#X connect 0 0 2 0;
#X connect 1 0 3 1;
#X connect 2 0 7 0;
#X connect 2 1 1 0;
#X connect 3 0 5 0;
#X connect 3 1 4 0;
#X connect 4 0 8 0;
#X connect 7 0 3 0;
#X connect 8 0 6 0;
#X restore 156 173 pd \$0-test-8;
#X obj 49 101 route 1 2 3 4 5 6 7 8 9 10;
#N canvas 0 22 254 277 \$0-test-9 0;
#X obj 41 46 inlet;
#X obj 113 102 makefilename $%d-;
#X obj 41 75 t b f;
#X obj 41 130 sel s;
#X obj 68 153 b;
#X obj 41 222 s \$0-noarg;
#X obj 68 200 s \$0-thisarg;
#X obj 41 102 symbol \$9-;
#X obj 68 176 list append \$9;
#X connect 0 0 2 0;
#X connect 1 0 3 1;
#X connect 2 0 7 0;
#X connect 2 1 1 0;
#X connect 3 0 5 0;
#X connect 3 1 4 0;
#X connect 4 0 8 0;
#X connect 7 0 3 0;
#X connect 8 0 6 0;
#X restore 171 151 pd \$0-test-9;
#N canvas 0 22 254 277 \$0-test-10 0;
#X obj 41 46 inlet;
#X obj 113 102 makefilename $%d-;
#X obj 41 75 t b f;
#X obj 41 130 sel s;
#X obj 68 153 b;
#X obj 41 222 s \$0-noarg;
#X obj 68 200 s \$0-thisarg;
#X obj 41 102 symbol \$10-;
#X obj 68 176 list append \$10;
#X connect 0 0 2 0;
#X connect 1 0 3 1;
#X connect 2 0 7 0;
#X connect 2 1 1 0;
#X connect 3 0 5 0;
#X connect 3 1 4 0;
#X connect 4 0 8 0;
#X connect 7 0 3 0;
#X connect 8 0 6 0;
#X restore 186 129 pd \$0-test-10;
#X text 46 27 argument number;
#X text 42 419 argument if it exists;
#X text 216 419 bang if it doesn't;
#X text 194 35 This subpatch tests for the presence of up to 10 creation
arguments. After IOhannes Zmölnig.;
#X connect 0 0 3 0;
#X connect 3 0 14 0;
#X connect 4 0 2 0;
#X connect 5 0 1 0;
#X connect 14 0 6 0;
#X connect 14 1 7 0;
#X connect 14 2 8 0;
#X connect 14 3 9 0;
#X connect 14 4 10 0;
#X connect 14 5 11 0;
#X connect 14 6 12 0;
#X connect 14 7 13 0;
#X connect 14 8 15 0;
#X connect 14 9 16 0;
#X restore 392 161 pd \$0-args;
#X obj 392 109 loadbang;
#X msg 392 134 1;
#X obj 363 265 route symbol;
#X obj 363 321 s \$0-array-name;
#X text 85 870 2015 Matt Barber;
#X obj 251 42 inlet;
#X obj 159 259 moses 0;
#X obj 198 321 s \$0-direction;
#X obj 46 321 swap;
#X obj 104 493 f;
#X obj 154 493 - 1;
#X obj 104 746 array max;
#X obj 329 746 array min;
#X obj 140 583 +;
#X obj 65 453 until;
#X obj 67 357 s \$0-onset;
#X obj 46 389 t b f f;
#X obj 65 427 - 1;
#X text 191 495 <- p of min/max search range;
#X obj 155 533 r \$0-onset;
#X obj 350 687 r \$0-onset;
#X obj 329 712 swap;
#X obj 380 712 r \$0-array-name;
#X obj 155 558 - 1;
#X text 287 864 This does the same thing as;
#X text 287 878 but with about half the overhead \, since we don't
need to check for negative indices., f 42;
#X msg 230 765 set \$1;
#X obj 125 687 r \$0-onset;
#X obj 104 715 swap;
#X text 180 586 <- final index each range \, for swapping;
#X obj 140 610 s \$0-final;
#X obj 329 812 r \$0-final;
#X obj 155 712 r \$0-array-name;
#N canvas 0 22 263 239 \$0-direction-gate 0;
#X obj 139 53 r \$0-direction;
#X obj 39 53 inlet;
#X obj 39 152 outlet;
#X obj 39 114 spigot;
#X obj 106 114 spigot;
#X obj 139 84 == 0;
#X obj 106 152 outlet;
#X text 31 178 asc;
#X text 111 178 desc, f 38;
#X connect 0 0 3 1;
#X connect 0 0 5 0;
#X connect 1 0 3 0;
#X connect 1 0 4 0;
#X connect 3 0 2 0;
#X connect 4 0 6 0;
#X connect 5 0 4 1;
#X restore 104 650 pd \$0-direction-gate;
#X msg 159 284 0;
#X msg 198 284 1;
#X obj 277 179 route bang;
#X obj 301 42 inlet;
#X obj 363 199 t a;
#X obj 46 284 array-rangenorm;
#X obj 46 115 list split 4;
#X obj 460 860 array-swap2;
#X obj 46 256 array-range;
#X obj 230 856 tabswap2;
#X obj 104 533 t f f;
#X obj 46 198 pack 0 -1 0 1;
#X obj 46 223 unpack 0 -1 0 1;
#X connect 1 0 45 0;
#X connect 2 0 50 1;
#X connect 3 0 43 0;
#X connect 4 0 43 0;
#X connect 5 0 6 0;
#X connect 6 0 4 0;
#X connect 7 0 8 0;
#X connect 10 0 50 2;
#X connect 11 0 39 0;
#X connect 11 1 40 0;
#X connect 13 0 21 0;
#X connect 13 1 20 0;
#X connect 14 0 15 0;
#X connect 14 0 49 0;
#X connect 15 0 14 1;
#X connect 16 0 48 0;
#X connect 16 1 48 1;
#X connect 17 0 48 0;
#X connect 17 1 48 1;
#X connect 18 0 35 0;
#X connect 19 0 14 0;
#X connect 21 0 0 0;
#X connect 21 1 22 0;
#X connect 21 2 14 1;
#X connect 22 0 19 0;
#X connect 24 0 28 0;
#X connect 25 0 26 1;
#X connect 26 0 17 0;
#X connect 26 1 17 1;
#X connect 27 0 17 2;
#X connect 28 0 18 1;
#X connect 31 0 48 0;
#X connect 32 0 33 1;
#X connect 33 0 16 0;
#X connect 33 1 16 1;
#X connect 36 0 48 2;
#X connect 37 0 16 2;
#X connect 37 0 31 0;
#X connect 38 0 33 0;
#X connect 38 1 26 0;
#X connect 39 0 12 0;
#X connect 40 0 12 0;
#X connect 41 1 43 0;
#X connect 42 0 50 3;
#X connect 43 0 7 0;
#X connect 43 0 47 3;
#X connect 44 0 13 0;
#X connect 44 1 13 1;
#X connect 45 0 50 0;
#X connect 45 1 41 0;
#X connect 45 2 50 0;
#X connect 47 0 44 0;
#X connect 47 1 44 1;
#X connect 47 2 44 2;
#X connect 49 0 38 0;
#X connect 49 1 18 0;
#X connect 50 0 51 0;
#X connect 51 0 47 0;
#X connect 51 1 47 1;
#X connect 51 2 47 2;
#X connect 51 3 11 0;
