#N canvas 426 422 437 470 10;
#X obj 92 75 inlet;
#X obj 254 75 inlet;
#X obj 177 199 array size;
#N canvas 0 22 577 494 \$0-args 0;
#X obj 49 49 inlet;
#X obj 49 382 outlet;
#X obj 219 382 outlet;
#X msg 49 75 \$1 \$1;
#X obj 219 354 r \$0-noarg;
#X obj 49 354 r \$0-thisarg;
#N canvas 0 22 254 277 \$0-test-1 0;
#X obj 41 46 inlet;
#X obj 113 102 makefilename $%d-;
#X obj 41 75 t b f;
#X obj 41 102 symbol \$1-;
#X obj 41 130 sel s;
#X obj 68 153 b;
#X obj 68 176 list append \$1;
#X obj 41 222 s \$0-noarg;
#X obj 68 200 s \$0-thisarg;
#X connect 0 0 2 0;
#X connect 1 0 4 1;
#X connect 2 0 3 0;
#X connect 2 1 1 0;
#X connect 3 0 4 0;
#X connect 4 0 7 0;
#X connect 4 1 5 0;
#X connect 5 0 6 0;
#X connect 6 0 8 0;
#X restore 49 326 pd \$0-test-1;
#N canvas 0 22 254 277 \$0-test-2 0;
#X obj 41 46 inlet;
#X obj 113 102 makefilename $%d-;
#X obj 41 75 t b f;
#X obj 41 130 sel s;
#X obj 68 153 b;
#X obj 41 222 s \$0-noarg;
#X obj 68 200 s \$0-thisarg;
#X obj 41 102 symbol \$2-;
#X obj 68 176 list append \$2;
#X connect 0 0 2 0;
#X connect 1 0 3 1;
#X connect 2 0 7 0;
#X connect 2 1 1 0;
#X connect 3 0 5 0;
#X connect 3 1 4 0;
#X connect 4 0 8 0;
#X connect 7 0 3 0;
#X connect 8 0 6 0;
#X restore 64 304 pd \$0-test-2;
#N canvas 0 22 254 277 \$0-test-3 0;
#X obj 41 46 inlet;
#X obj 113 102 makefilename $%d-;
#X obj 41 75 t b f;
#X obj 41 130 sel s;
#X obj 68 153 b;
#X obj 41 222 s \$0-noarg;
#X obj 68 200 s \$0-thisarg;
#X obj 41 102 symbol \$3-;
#X obj 68 176 list append \$3;
#X connect 0 0 2 0;
#X connect 1 0 3 1;
#X connect 2 0 7 0;
#X connect 2 1 1 0;
#X connect 3 0 5 0;
#X connect 3 1 4 0;
#X connect 4 0 8 0;
#X connect 7 0 3 0;
#X connect 8 0 6 0;
#X restore 79 283 pd \$0-test-3;
#N canvas 0 22 254 277 \$0-test-4 0;
#X obj 41 46 inlet;
#X obj 113 102 makefilename $%d-;
#X obj 41 75 t b f;
#X obj 41 130 sel s;
#X obj 68 153 b;
#X obj 41 222 s \$0-noarg;
#X obj 68 200 s \$0-thisarg;
#X obj 41 102 symbol \$4-;
#X obj 68 176 list append \$4;
#X connect 0 0 2 0;
#X connect 1 0 3 1;
#X connect 2 0 7 0;
#X connect 2 1 1 0;
#X connect 3 0 5 0;
#X connect 3 1 4 0;
#X connect 4 0 8 0;
#X connect 7 0 3 0;
#X connect 8 0 6 0;
#X restore 94 261 pd \$0-test-4;
#N canvas 0 22 254 277 \$0-test-5 0;
#X obj 41 46 inlet;
#X obj 113 102 makefilename $%d-;
#X obj 41 75 t b f;
#X obj 41 130 sel s;
#X obj 68 153 b;
#X obj 41 222 s \$0-noarg;
#X obj 68 200 s \$0-thisarg;
#X obj 41 102 symbol \$5-;
#X obj 68 176 list append \$5;
#X connect 0 0 2 0;
#X connect 1 0 3 1;
#X connect 2 0 7 0;
#X connect 2 1 1 0;
#X connect 3 0 5 0;
#X connect 3 1 4 0;
#X connect 4 0 8 0;
#X connect 7 0 3 0;
#X connect 8 0 6 0;
#X restore 110 239 pd \$0-test-5;
#N canvas 0 22 254 277 \$0-test-6 0;
#X obj 41 46 inlet;
#X obj 113 102 makefilename $%d-;
#X obj 41 75 t b f;
#X obj 41 130 sel s;
#X obj 68 153 b;
#X obj 41 222 s \$0-noarg;
#X obj 68 200 s \$0-thisarg;
#X obj 41 102 symbol \$6-;
#X obj 68 176 list append \$6;
#X connect 0 0 2 0;
#X connect 1 0 3 1;
#X connect 2 0 7 0;
#X connect 2 1 1 0;
#X connect 3 0 5 0;
#X connect 3 1 4 0;
#X connect 4 0 8 0;
#X connect 7 0 3 0;
#X connect 8 0 6 0;
#X restore 125 217 pd \$0-test-6;
#N canvas 0 22 254 277 \$0-test-7 0;
#X obj 41 46 inlet;
#X obj 113 102 makefilename $%d-;
#X obj 41 75 t b f;
#X obj 41 130 sel s;
#X obj 68 153 b;
#X obj 41 222 s \$0-noarg;
#X obj 68 200 s \$0-thisarg;
#X obj 41 102 symbol \$7-;
#X obj 68 176 list append \$7;
#X connect 0 0 2 0;
#X connect 1 0 3 1;
#X connect 2 0 7 0;
#X connect 2 1 1 0;
#X connect 3 0 5 0;
#X connect 3 1 4 0;
#X connect 4 0 8 0;
#X connect 7 0 3 0;
#X connect 8 0 6 0;
#X restore 140 195 pd \$0-test-7;
#N canvas 0 22 254 277 \$0-test-8 0;
#X obj 41 46 inlet;
#X obj 113 102 makefilename $%d-;
#X obj 41 75 t b f;
#X obj 41 130 sel s;
#X obj 68 153 b;
#X obj 41 222 s \$0-noarg;
#X obj 68 200 s \$0-thisarg;
#X obj 41 102 symbol \$8-;
#X obj 68 176 list append \$8;
#X connect 0 0 2 0;
#X connect 1 0 3 1;
#X connect 2 0 7 0;
#X connect 2 1 1 0;
#X connect 3 0 5 0;
#X connect 3 1 4 0;
#X connect 4 0 8 0;
#X connect 7 0 3 0;
#X connect 8 0 6 0;
#X restore 156 173 pd \$0-test-8;
#X obj 49 101 route 1 2 3 4 5 6 7 8 9 10;
#N canvas 0 22 254 277 \$0-test-9 0;
#X obj 41 46 inlet;
#X obj 113 102 makefilename $%d-;
#X obj 41 75 t b f;
#X obj 41 130 sel s;
#X obj 68 153 b;
#X obj 41 222 s \$0-noarg;
#X obj 68 200 s \$0-thisarg;
#X obj 41 102 symbol \$9-;
#X obj 68 176 list append \$9;
#X connect 0 0 2 0;
#X connect 1 0 3 1;
#X connect 2 0 7 0;
#X connect 2 1 1 0;
#X connect 3 0 5 0;
#X connect 3 1 4 0;
#X connect 4 0 8 0;
#X connect 7 0 3 0;
#X connect 8 0 6 0;
#X restore 171 151 pd \$0-test-9;
#N canvas 0 22 254 277 \$0-test-10 0;
#X obj 41 46 inlet;
#X obj 113 102 makefilename $%d-;
#X obj 41 75 t b f;
#X obj 41 130 sel s;
#X obj 68 153 b;
#X obj 41 222 s \$0-noarg;
#X obj 68 200 s \$0-thisarg;
#X obj 41 102 symbol \$10-;
#X obj 68 176 list append \$10;
#X connect 0 0 2 0;
#X connect 1 0 3 1;
#X connect 2 0 7 0;
#X connect 2 1 1 0;
#X connect 3 0 5 0;
#X connect 3 1 4 0;
#X connect 4 0 8 0;
#X connect 7 0 3 0;
#X connect 8 0 6 0;
#X restore 186 129 pd \$0-test-10;
#X text 42 419 argument if it exists;
#X text 216 419 bang if it doesn't;
#X text 194 35 This subpatch tests for the presence of up to 10 creation
arguments. After IOhannes Zmölnig.;
#X text 46 27 argument number;
#X connect 0 0 3 0;
#X connect 3 0 14 0;
#X connect 4 0 2 0;
#X connect 5 0 1 0;
#X connect 14 0 6 0;
#X connect 14 1 7 0;
#X connect 14 2 8 0;
#X connect 14 3 9 0;
#X connect 14 4 10 0;
#X connect 14 5 11 0;
#X connect 14 6 12 0;
#X connect 14 7 13 0;
#X connect 14 8 15 0;
#X connect 14 9 16 0;
#X restore 278 154 pd \$0-args;
#X obj 278 105 loadbang;
#X msg 278 129 1;
#X obj 92 142 t f b;
#X obj 137 369 outlet;
#X obj 92 199 moses 0, f 8;
#X obj 92 240 +;
#X text 93 399 2015 Matt Barber;
#X obj 254 242 list prepend set;
#X obj 254 276 list trim;
#X obj 92 101 list split 1;
#X obj 168 142 route bang;
#X obj 254 182 t a b;
#X msg 194 246 0;
#X obj 92 277 spigot;
#N canvas 232 954 346 293 \$0-lagrange 1;
#X obj 57 38 inlet;
#X obj 137 38 inlet;
#X obj 257 38 inlet;
#X obj 57 227 outlet;
#X obj 57 106 min;
#X obj 257 66 s \$0-set;
#N canvas 1026 86 761 678 \$0-get 1;
#X obj 50 22 inlet;
#X obj 50 522 outlet;
#X obj 124 75 int;
#X obj 109 113 -;
#X obj 100 396 tabread;
#X obj 122 371 r \$0-set;
#X obj 570 396 tabread;
#X obj 592 371 r \$0-set;
#X obj 200 396 tabread;
#X obj 222 371 r \$0-set;
#X obj 390 396 tabread;
#X obj 412 371 r \$0-set;
#X obj 390 442 s \$0-b;
#X obj 570 320 r \$0-i1;
#X obj 570 442 s \$0-a;
#X obj 200 442 s \$0-c;
#X obj 100 442 s \$0-d;
#X obj 50 47 t b b f f;
#X obj 67 113 f;
#X obj 480 396 tabread;
#X obj 502 371 r \$0-set;
#X obj 480 320 r \$0-i2;
#X obj 480 442 s \$0-f;
#X obj 300 396 tabread;
#X obj 322 371 r \$0-set;
#X obj 300 442 s \$0-e;
#X obj 390 320 r \$0-i2;
#X obj 300 320 r \$0-i3;
#X obj 200 320 r \$0-i4;
#X obj 100 320 r \$0-i5;
#X obj 67 164 t f f f f f;
#X obj 130 186 s \$0-i1;
#X obj 114 209 s \$0-i2;
#X obj 67 278 s \$0-i5;
#X obj 82 255 s \$0-i4;
#X obj 98 232 s \$0-i3;
#X obj 109 136 s \$0-fr;
#X obj 570 346 - 2;
#X obj 390 346 - 1;
#X obj 100 346 + 1;
#X obj 300 346 + 2;
#X obj 480 346 + 3;
#X connect 0 0 17 0;
#X connect 2 0 3 1;
#X connect 2 0 18 1;
#X connect 3 0 36 0;
#X connect 4 0 16 0;
#X connect 5 0 4 0;
#X connect 6 0 14 0;
#X connect 7 0 6 0;
#X connect 8 0 15 0;
#X connect 9 0 8 0;
#X connect 10 0 12 0;
#X connect 11 0 10 0;
#X connect 13 0 37 0;
#X connect 17 0 1 0;
#X connect 17 1 18 0;
#X connect 17 2 3 0;
#X connect 17 3 2 0;
#X connect 18 0 30 0;
#X connect 19 0 22 0;
#X connect 20 0 19 0;
#X connect 21 0 41 0;
#X connect 23 0 25 0;
#X connect 24 0 23 0;
#X connect 26 0 38 0;
#X connect 27 0 40 0;
#X connect 28 0 8 0;
#X connect 29 0 39 0;
#X connect 30 0 33 0;
#X connect 30 1 34 0;
#X connect 30 2 35 0;
#X connect 30 3 32 0;
#X connect 30 4 31 0;
#X connect 37 0 6 0;
#X connect 38 0 10 0;
#X connect 39 0 4 0;
#X connect 40 0 23 0;
#X connect 41 0 19 0;
#X restore 57 157 pd \$0-get;
#N canvas 400 115 766 991 \$0-calc 1;
#X obj 50 172 inlet;
#X obj 50 936 outlet;
#X obj 148 533 *;
#X obj 50 289 f;
#X obj 148 681 *;
#X obj 148 855 *;
#X obj 148 794 +;
#X obj 50 902 +;
#X obj 148 624 +;
#X obj 65 261 r \$0-c;
#X text 75 291 <- C0;
#X obj 422 41 loadbang;
#X obj 422 112 swap 1;
#X msg 422 86 120;
#X obj 422 141 /;
#X obj 422 170 s \$0-r120;
#X obj 492 112 swap 1;
#X obj 492 141 /;
#X msg 492 86 24;
#X obj 562 112 swap 1;
#X obj 562 141 /;
#X obj 492 170 s \$0-r24;
#X msg 562 86 12;
#X obj 562 170 s \$0-r12;
#X obj 632 112 swap 1;
#X obj 632 141 /;
#X msg 632 86 6;
#X obj 632 170 s \$0-r6;
#X obj 148 383 *;
#X obj 163 236 *;
#N canvas 29 61 398 381 \$0-calc-C5 0;
#X obj 230 83 r \$0-f;
#X obj 280 83 r \$0-a;
#X obj 230 108 -;
#X obj 230 131 *;
#X obj 280 108 r \$0-r120;
#X obj 123 245 +;
#X obj 138 131 *;
#X obj 138 83 r \$0-e-b;
#X obj 123 200 -;
#X obj 153 108 r \$0-r24;
#X obj 30 131 *;
#X obj 30 83 r \$0-d-c;
#X obj 123 322 outlet;
#X obj 171 322 s \$0-C5;
#X obj 45 107 r \$0-r12;
#X connect 0 0 2 0;
#X connect 1 0 2 1;
#X connect 2 0 3 0;
#X connect 3 0 5 1;
#X connect 4 0 3 1;
#X connect 5 0 12 0;
#X connect 5 0 13 0;
#X connect 6 0 8 1;
#X connect 7 0 6 0;
#X connect 8 0 5 0;
#X connect 9 0 6 1;
#X connect 10 0 8 0;
#X connect 11 0 10 0;
#X connect 14 0 10 1;
#X restore 163 183 pd \$0-calc-C5;
#X text 430 460 C5 order: [a f] [b e] [c d] \; C4 order: [a e] [b d]
[c] \; C3 order: [b e] [c d] \; C2 order: [b d] \; C1 order: [b d]
\; C0 order: [c];
#N canvas 85 159 419 353 \$0-calc-C4 0;
#X obj 135 225 +;
#X obj 135 312 outlet;
#X obj 60 108 *;
#X obj 75 81 r \$0-r6;
#X obj 251 81 r \$0-a;
#X obj 236 55 r \$0-e;
#X obj 236 108 +;
#X obj 150 56 r \$0-c;
#X obj 150 195 +;
#X obj 150 106 * 0.25;
#X obj 198 312 s \$0-C4;
#X obj 236 155 *;
#X obj 251 129 r \$0-r24;
#X obj 60 56 r \$0-d+b;
#X obj 60 138 * -1;
#X connect 0 0 10 0;
#X connect 0 0 1 0;
#X connect 2 0 14 0;
#X connect 3 0 2 1;
#X connect 4 0 6 1;
#X connect 5 0 6 0;
#X connect 6 0 11 0;
#X connect 7 0 9 0;
#X connect 8 0 0 1;
#X connect 9 0 8 0;
#X connect 11 0 8 1;
#X connect 12 0 11 1;
#X connect 13 0 2 0;
#X connect 14 0 0 0;
#X restore 163 296 pd \$0-calc-C4;
#X obj 148 327 +;
#X obj 148 261 f;
#X obj 50 200 t b b;
#N canvas 203 558 441 384 \$0-calc-C3 0;
#X obj 168 317 outlet;
#X obj 233 317 s \$0-C3;
#X obj 140 56 r \$0-C5;
#X obj 83 56 r \$0-C4;
#X obj 68 171 +;
#X obj 220 56 r \$0-d-c;
#X obj 220 108 * -0.5;
#X obj 309 56 r \$0-e-b;
#X obj 309 108 *;
#X obj 324 81 r \$0-r6;
#X obj 294 172 +;
#X obj 168 229 +;
#X obj 83 108 * -2;
#X obj 140 108 * -5;
#X obj 68 27 inlet;
#X obj 68 138 f;
#X connect 2 0 13 0;
#X connect 3 0 12 0;
#X connect 4 0 11 0;
#X connect 5 0 6 0;
#X connect 6 0 10 0;
#X connect 7 0 8 0;
#X connect 8 0 10 1;
#X connect 9 0 8 1;
#X connect 10 0 11 1;
#X connect 11 0 1 0;
#X connect 11 0 0 0;
#X connect 12 0 15 1;
#X connect 13 0 4 1;
#X connect 14 0 15 0;
#X connect 15 0 4 0;
#X restore 163 446 pd \$0-calc-C3;
#X obj 148 479 +;
#N canvas 97 317 385 315 \$0-calc-C2 1;
#X obj 135 215 +;
#X obj 135 272 outlet;
#X obj 259 55 r \$0-c;
#X obj 150 175 -;
#X obj 80 108 * -1;
#X obj 80 55 r \$0-C4;
#X obj 150 132 * 0.5;
#X obj 65 145 f;
#X obj 65 25 inlet;
#X obj 150 55 r \$0-d+b;
#X connect 0 0 1 0;
#X connect 2 0 3 1;
#X connect 3 0 0 1;
#X connect 4 0 7 1;
#X connect 5 0 4 0;
#X connect 6 0 3 0;
#X connect 7 0 0 0;
#X connect 8 0 7 0;
#X connect 9 0 6 0;
#X restore 163 595 pd \$0-calc-C2;
#N canvas 1049 181 348 281 \$0-calc-C1 0;
#X obj 135 195 +;
#X obj 135 232 outlet;
#X obj 80 80 * -1;
#X obj 80 54 r \$0-C3;
#X obj 80 145 -;
#X obj 150 55 r \$0-C5;
#X obj 219 141 * 0.5;
#X obj 219 55 r \$0-d;
#X obj 219 117 -;
#X obj 234 80 r \$0-b;
#X connect 0 0 1 0;
#X connect 2 0 4 0;
#X connect 3 0 2 0;
#X connect 4 0 0 0;
#X connect 5 0 4 1;
#X connect 6 0 0 1;
#X connect 7 0 8 0;
#X connect 8 0 6 0;
#X connect 9 0 8 1;
#X restore 163 766 pd \$0-calc-C1;
#X obj 178 209 r \$0-fr;
#X obj 163 356 r \$0-fr;
#X obj 163 506 r \$0-fr;
#X obj 163 651 r \$0-fr;
#X obj 163 825 r \$0-fr;
#X text 194 237 <- C5*fr;
#X text 180 386 <- C4*fr + C5*fr^2;
#X text 180 534 <- C3*fr + C4*fr^2 + C5*fr^3;
#X text 180 683 <- C2*fr + C3*fr^2 + C4*fr^3 + C5*fr^4;
#X text 180 854 <- C1*fr + C2*fr^2 + C3*fr^3 + C4*fr^4 + C5*fr^5;
#X text 80 902 <- C0 + C1*fr + C2*fr^2 + C3*fr^3 + C4*fr^4 + C5*fr^5
;
#X text 429 196 Get precise reciprocals..;
#X obj 411 281 r \$0-e;
#X obj 411 333 -;
#X obj 426 306 r \$0-b;
#X obj 411 365 s \$0-e-b;
#X obj 506 306 r \$0-b;
#X obj 491 281 r \$0-d;
#X obj 571 333 -;
#X obj 571 281 r \$0-d;
#X obj 586 306 r \$0-c;
#X obj 571 365 s \$0-d-c;
#X obj 148 411 t f b;
#X obj 148 563 t f b;
#X text 34 32 out = C0 + C1*f + C2*f^2 + C3*f^3 + C4*f^4 + C5*f^5 \;
\; C5 = 0.00833333*(f-a) - 0.0416667*(e-b) + 0.0833333*(d-c) \; C4
= 0.0416667*(a+e) - 0.166667*(d+b) + 0.25*c \; C3 = 0.166667*(e-b)
- 0.5*(d-c) - 2*C4 - 5*C5 \; C2 = 0.5*(b+d) - c - C4 \; C1 = 0.5*(d-b)
- C5 - C3 \; C0 = c;
#X obj 491 333 +;
#X obj 491 365 s \$0-d+b;
#X connect 0 0 35 0;
#X connect 2 0 63 0;
#X connect 3 0 7 0;
#X connect 4 0 6 0;
#X connect 5 0 7 1;
#X connect 6 0 5 0;
#X connect 7 0 1 0;
#X connect 8 0 4 0;
#X connect 9 0 3 1;
#X connect 11 0 13 0;
#X connect 11 0 18 0;
#X connect 11 0 22 0;
#X connect 11 0 26 0;
#X connect 12 0 14 0;
#X connect 12 1 14 1;
#X connect 13 0 12 0;
#X connect 14 0 15 0;
#X connect 16 0 17 0;
#X connect 16 1 17 1;
#X connect 17 0 21 0;
#X connect 18 0 16 0;
#X connect 19 0 20 0;
#X connect 19 1 20 1;
#X connect 20 0 23 0;
#X connect 22 0 19 0;
#X connect 24 0 25 0;
#X connect 24 1 25 1;
#X connect 25 0 27 0;
#X connect 26 0 24 0;
#X connect 28 0 62 0;
#X connect 29 0 34 1;
#X connect 30 0 29 0;
#X connect 32 0 33 1;
#X connect 33 0 28 0;
#X connect 34 0 33 0;
#X connect 35 0 3 0;
#X connect 35 1 34 0;
#X connect 36 0 37 1;
#X connect 37 0 2 0;
#X connect 38 0 8 1;
#X connect 39 0 6 1;
#X connect 40 0 29 1;
#X connect 41 0 28 1;
#X connect 42 0 2 1;
#X connect 43 0 4 1;
#X connect 44 0 5 1;
#X connect 52 0 53 0;
#X connect 53 0 55 0;
#X connect 54 0 53 1;
#X connect 56 0 65 1;
#X connect 57 0 65 0;
#X connect 58 0 61 0;
#X connect 59 0 58 0;
#X connect 60 0 58 1;
#X connect 62 0 37 0;
#X connect 62 1 36 0;
#X connect 63 0 8 0;
#X connect 63 1 38 0;
#X connect 65 0 66 0;
#X restore 57 197 pd \$0-calc;
#X obj 72 80 - 3;
#X obj 57 131 max 2;
#X connect 0 0 4 0;
#X connect 1 0 8 0;
#X connect 2 0 5 0;
#X connect 4 0 9 0;
#X connect 6 0 7 0;
#X connect 7 0 3 0;
#X connect 8 0 4 1;
#X connect 9 0 6 0;
#X restore 137 342 pd \$0-lagrange;
#X connect 0 0 13 0;
#X connect 1 0 15 0;
#X connect 2 0 9 1;
#X connect 2 0 18 1;
#X connect 2 0 17 1;
#X connect 3 0 15 0;
#X connect 4 0 5 0;
#X connect 5 0 3 0;
#X connect 6 0 8 0;
#X connect 6 1 2 0;
#X connect 8 0 9 0;
#X connect 8 1 18 0;
#X connect 9 0 17 0;
#X connect 11 0 12 0;
#X connect 12 0 18 2;
#X connect 13 0 6 0;
#X connect 13 1 14 0;
#X connect 13 2 6 0;
#X connect 14 1 15 0;
#X connect 15 0 2 1;
#X connect 15 0 11 0;
#X connect 15 1 16 0;
#X connect 16 0 17 1;
#X connect 17 0 18 0;
#X connect 18 0 7 0;
