#N canvas 643 22 820 430 10;
#X obj 401 138 loadbang;
#X obj 462 138 bng 15 250 50 0 empty empty empty 17 7 0 10 -262144
-1 -1;
#X msg 401 166 100;
#X obj 401 195 until;
#X obj 401 229 f;
#X obj 463 163 t b b;
#X msg 490 193 0;
#X obj 433 229 + 1;
#X obj 401 275 - 50;
#X obj 401 299 / 50;
#X obj 401 252 t f f;
#X msg 104 184 10 90;
#X floatatom 275 199 5 0 0 0 - - -, f 5;
#X floatatom 49 111 5 0 0 0 - - -, f 5;
#X obj 398 91 array define tabswap-help;
#X obj 401 328 tabwrite tabswap-help;
#X msg 123 152 20 80;
#X obj 109 215 tabswap tabswap-help;
#X msg 276 135 set susan;
#X msg 250 173 set 2;
#X msg 249 100 set tabswap-help;
#X connect 0 0 2 0;
#X connect 1 0 5 0;
#X connect 2 0 3 0;
#X connect 3 0 4 0;
#X connect 4 0 10 0;
#X connect 4 0 7 0;
#X connect 5 0 2 0;
#X connect 5 1 6 0;
#X connect 6 0 4 1;
#X connect 7 0 4 1;
#X connect 8 0 9 0;
#X connect 9 0 15 0;
#X connect 10 0 8 0;
#X connect 10 1 15 1;
#X connect 11 0 17 0;
#X connect 12 0 17 1;
#X connect 13 0 17 0;
#X connect 16 0 17 0;
#X connect 18 0 17 0;
#X connect 19 0 17 0;
#X connect 20 0 17 0;
