#N canvas 315 593 861 487 10;
#X floatatom 584 206 0 0 0 0 - - -;
#X floatatom 584 161 5 0 0 0 - - -, f 5;
#N canvas 0 22 450 300 (subpatch) 0;
#X array cheb 259 float 2;
#X coords 0 1 259 -1 200 140 1;
#X restore 365 82 graph;
#X msg 112 280 guard 0;
#X msg 91 232 normalize;
#X msg 112 258 guard 1;
#X msg 584 106 \; cheb resize \$1;
#X floatatom 584 83 5 0 0 0 - - -, f 5;
#X msg 75 69 0 0 1;
#X text 22 407 creation args: 1) dst table \, 2) normalization factor
(1 default) 3) guard points for cubic interpolation toggle 0-1 (default
1);
#N canvas 0 22 450 300 (subpatch) 0;
#X array other 67 float 2;
#X coords 0 1 67 -1 200 140 1;
#X restore 365 262 graph;
#X msg 132 305 dst other;
#X msg 132 328 dst cheb;
#X text 165 231 <- normalize with no argument;
#X text 184 242 defaults to 1;
#X text 169 267 <- toggle guard points for;
#X text 187 279 cubic interpolation;
#X text 204 315 <- change dst table;
#X text 175 117 <- will still normalize;
#X text 28 10 tabwrite-chebyshev;
#X obj 45 357 tabwrite-chebyshev cheb 1 1;
#X msg 91 209 normalize 0.5;
#X msg 79 151 0.25 0.5 0.75 -1 0.75 0.5 0.25;
#X msg 75 93 0 0 0 -1;
#X msg 80 175 1 2 3 -4 3 2 1;
#X msg 76 119 0 0 0 0 0 0 0.5;
#X obj 584 183 tabread4 cheb;
#X obj 637 409 output~;
#X obj 637 254 osc~ 440;
#X floatatom 637 231 5 0 0 0 - - -, f 5;
#X floatatom 707 231 5 0 0 0 - - -, f 5;
#X obj 707 253 / 100;
#X obj 707 297 line~;
#X msg 707 274 \$1 50;
#X text 748 231 <- index;
#X obj 637 314 *~;
#X obj 637 336 *~ 128;
#X obj 637 360 +~ 129;
#X obj 637 382 tabread4~ cheb;
#X text 29 24 Write a weighted sum of chebyshev polynomials of the
first kind into a table.;
#X connect 1 0 26 0;
#X connect 3 0 20 0;
#X connect 4 0 20 0;
#X connect 5 0 20 0;
#X connect 7 0 6 0;
#X connect 8 0 20 0;
#X connect 11 0 20 0;
#X connect 12 0 20 0;
#X connect 21 0 20 0;
#X connect 22 0 20 0;
#X connect 23 0 20 0;
#X connect 24 0 20 0;
#X connect 25 0 20 0;
#X connect 26 0 0 0;
#X connect 28 0 35 0;
#X connect 29 0 28 0;
#X connect 30 0 31 0;
#X connect 31 0 33 0;
#X connect 32 0 35 1;
#X connect 33 0 32 0;
#X connect 35 0 36 0;
#X connect 36 0 37 0;
#X connect 37 0 38 0;
#X connect 38 0 27 0;
#X connect 38 0 27 1;
