#N canvas 602 182 212 175 10;
#X obj 41 40 inlet;
#N canvas 704 59 451 732 \$0-chebyshev-vector 0;
#X obj 60 413 list-map;
#X obj 124 413 * 2;
#X obj 60 476 list-sub;
#X obj 60 341 list;
#X obj 81 308 r \$0-last;
#X obj 81 500 s \$0-last;
#X obj 60 441 list prepend 0;
#X obj 60 369 t a a;
#X obj 206 427 list;
#X msg 168 324 0 1;
#X msg 227 351 -1 0 2;
#X obj 60 528 list-splat -2;
#X obj 39 5 inlet;
#X obj 60 567 list-map;
#X obj 143 567 *;
#X obj 60 180 list-drip;
#X obj 60 230 t b b f;
#X obj 60 645 list-add;
#X obj 126 645 t a;
#X msg 105 618 0;
#X obj 173 104 s \$0-init-cheb;
#X obj 227 270 r \$0-init-cheb;
#X obj 105 595 r \$0-init-cheb;
#X obj 39 676 list;
#X obj 60 203 route float;
#X obj 39 702 outlet;
#X obj 39 31 route bang;
#X msg 39 54 0;
#X obj 173 196 swap;
#X obj 173 220 /;
#X obj 194 173 r \$0-norm;
#X obj 158 247 *;
#X obj 39 87 t b a a b;
#X obj 173 128 list-map;
#X obj 239 128 abs;
#X obj 173 150 list-accum;
#X text 195 323 seeds for first two functions;
#X text 249 390 f_n(x)=2x*(f_(n-1)(x))-f_(n-2);
#X text 249 378 formula for current function;
#X text 146 526 <- cut last two zeroes (artifacts from the seeds);
#X text 160 646 <- sum each polynomial;
#X text 272 141 <- scale sums of function;
#X text 291 151 weightings to 1;
#X text 225 211 <- apply normalization;
#X text 190 565 <- scale each polynomial by;
#X text 209 576 weighting and normalization;
#X text 79 676 <- output will be sum of each weighted polynomial function
;
#X text 68 289 previous function;
#X text 249 427 <- function before last;
#X connect 0 0 6 0;
#X connect 0 1 1 0;
#X connect 1 0 0 1;
#X connect 2 0 5 0;
#X connect 2 0 11 0;
#X connect 3 0 7 0;
#X connect 4 0 3 1;
#X connect 6 0 2 0;
#X connect 7 0 0 0;
#X connect 7 1 8 1;
#X connect 8 0 2 1;
#X connect 9 0 3 1;
#X connect 10 0 8 1;
#X connect 11 0 13 0;
#X connect 12 0 26 0;
#X connect 13 0 17 0;
#X connect 13 1 14 0;
#X connect 14 0 13 1;
#X connect 15 0 24 0;
#X connect 16 0 3 0;
#X connect 16 1 8 0;
#X connect 16 2 31 0;
#X connect 17 0 18 0;
#X connect 17 0 23 1;
#X connect 18 0 17 1;
#X connect 19 0 17 1;
#X connect 21 0 9 0;
#X connect 21 0 10 0;
#X connect 22 0 19 0;
#X connect 23 0 25 0;
#X connect 24 0 16 0;
#X connect 26 0 27 0;
#X connect 26 1 32 0;
#X connect 27 0 32 0;
#X connect 28 0 29 0;
#X connect 28 1 29 1;
#X connect 29 0 31 1;
#X connect 30 0 28 1;
#X connect 31 0 14 1;
#X connect 32 0 23 0;
#X connect 32 1 15 0;
#X connect 32 2 33 0;
#X connect 32 3 20 0;
#X connect 33 0 35 0;
#X connect 33 1 34 0;
#X connect 34 0 33 1;
#X connect 35 0 28 0;
#X restore 41 86 pd \$0-chebyshev-vector;
#N canvas 397 99 330 276 \$0-tabwrite 0;
#X obj 117 43 inlet;
#X text 114 18 vector;
#X obj 117 147 list;
#N canvas 774 50 437 536 \$0-loop 0;
#X obj 74 43 inlet;
#X obj 165 307 * 0.5;
#X obj 150 418 /;
#X obj 128 382 -;
#X obj 61 197 f 0;
#X obj 92 197 + 1;
#X msg 76 172 0;
#X obj 34 119 until;
#X obj 34 142 t b b;
#X obj 61 222 t f f;
#X obj 34 454 outlet;
#X obj 83 454 outlet;
#X obj 132 454 outlet;
#X obj 238 189 sel 0 1;
#X obj 165 278 -;
#X obj 143 359 +;
#X obj 238 261 unpack 0 0;
#X obj 277 212 t b;
#X msg 238 238 1 0;
#X msg 271 238 3 1;
#X obj 34 92 v \$0-size;
#X obj 165 183 v \$0-size;
#X obj 74 65 t b b;
#X text 130 473 index;
#X text 83 473 domain;
#X text 83 485 value;
#X text 33 473 bang;
#X text 303 240 <- offsets for;
#X text 321 251 guard points;
#X obj 238 166 r \$0-guard;
#X connect 0 0 22 0;
#X connect 1 0 2 1;
#X connect 1 0 15 0;
#X connect 2 0 11 0;
#X connect 3 0 2 0;
#X connect 4 0 5 0;
#X connect 4 0 9 0;
#X connect 5 0 4 1;
#X connect 6 0 4 1;
#X connect 7 0 8 0;
#X connect 8 0 10 0;
#X connect 8 1 4 0;
#X connect 9 0 3 0;
#X connect 9 1 12 0;
#X connect 13 0 18 0;
#X connect 13 1 19 0;
#X connect 13 2 17 0;
#X connect 14 0 1 0;
#X connect 15 0 3 1;
#X connect 16 0 14 1;
#X connect 16 1 15 1;
#X connect 17 0 19 0;
#X connect 18 0 16 0;
#X connect 19 0 16 0;
#X connect 20 0 7 0;
#X connect 21 0 14 0;
#X connect 22 0 20 0;
#X connect 22 1 21 0;
#X connect 22 1 6 0;
#X connect 29 0 13 0;
#X restore 117 116 pd \$0-loop;
#N canvas 850 50 489 579 \$0-calc 0;
#X obj 34 39 inlet;
#X obj 162 204 inlet;
#X obj 34 521 outlet;
#X obj 53 128 list-drip;
#X obj 141 168 f;
#X obj 172 168 + 1;
#X msg 156 144 0;
#X obj 34 66 t b a b;
#X obj 53 151 t f b;
#X obj 141 318 pow;
#X obj 141 293 swap;
#X obj 126 348 *;
#X obj 126 479 +;
#X obj 159 479 t f;
#X obj 73 93 s \$0-calc-init;
#X obj 156 120 r \$0-calc-init;
#X obj 141 429 r \$0-calc-init;
#X msg 141 454 0;
#X obj 34 496 f;
#X obj 126 405 *;
#X obj 162 247 abs;
#X obj 187 310 mod 2;
#X obj 162 225 t f f;
#X obj 221 342 &&;
#X obj 236 310 < 0;
#X obj 221 365 * -2;
#X obj 221 388 + 1;
#X text 262 342 <- negative base and odd exp?;
#X text 263 387 <- map 0 and 1 onto 1 and -1;
#X obj 114 224 sel 0;
#X msg 114 262 1;
#X text 280 399 respectively;
#X obj 100 520 print value;
#X msg 187 288 0;
#X connect 0 0 7 0;
#X connect 1 0 22 0;
#X connect 3 0 8 0;
#X connect 4 0 5 0;
#X connect 4 0 29 0;
#X connect 5 0 4 1;
#X connect 6 0 4 1;
#X connect 7 0 18 0;
#X connect 7 1 3 0;
#X connect 7 2 14 0;
#X connect 8 0 11 0;
#X connect 8 1 4 0;
#X connect 9 0 11 1;
#X connect 10 0 9 0;
#X connect 10 1 9 1;
#X connect 10 1 21 0;
#X connect 11 0 19 0;
#X connect 12 0 13 0;
#X connect 12 0 18 1;
#X connect 13 0 12 1;
#X connect 15 0 6 0;
#X connect 16 0 17 0;
#X connect 17 0 12 1;
#X connect 18 0 2 0;
#X connect 19 0 12 0;
#X connect 20 0 10 1;
#X connect 21 0 23 0;
#X connect 22 0 20 0;
#X connect 22 1 24 0;
#X connect 23 0 25 0;
#X connect 24 0 23 1;
#X connect 25 0 26 0;
#X connect 26 0 19 1;
#X connect 29 0 30 0;
#X connect 29 0 33 0;
#X connect 29 1 10 0;
#X connect 30 0 11 1;
#X connect 33 0 21 0;
#X restore 117 173 pd \$0-calc;
#X obj 163 213 tabwrite;
#X obj 37 147 r \$0-dst;
#X obj 37 173 prepent set;
#X obj 117 67 t b a;
#X connect 0 0 8 0;
#X connect 2 0 4 0;
#X connect 3 0 2 0;
#X connect 3 1 4 1;
#X connect 3 2 5 1;
#X connect 4 0 5 0;
#X connect 6 0 7 0;
#X connect 7 0 5 0;
#X connect 8 0 3 0;
#X connect 8 1 2 1;
#X restore 41 111 pd \$0-tabwrite;
#N canvas 0 22 377 485 \$0-parse 0;
#X obj 26 19 inlet;
#X obj 173 122 list split 1;
#X obj 179 192 list;
#X obj 173 98 t a a;
#X obj 173 144 route float;
#X obj 173 166 t b;
#X obj 26 445 s \$0-dst;
#X obj 75 369 route float;
#X obj 124 346 s \$0-guard;
#N canvas 553 81 378 693 \$0-args 0;
#N canvas 270 121 532 403 \$0-getargs 0;
#X obj 37 40 inlet;
#N canvas 31 427 359 254 \$0-construct_Iohannes_arg_test 0;
#X obj 71 19 inlet;
#X msg 218 155 vis 1;
#X obj 71 172 outlet;
#N canvas 497 46 421 150 \$0-connect 0;
#X obj 25 25 inlet;
#X obj 25 109 outlet;
#X msg 25 47 connect 0 0 1 0 \, connect 1 0 8 0 \, connect 1 1 2 0
\, connect 2 0 3 0 \, connect 3 0 4 1 \, connect 8 0 4 0 \, connect
4 0 7 0 \, connect 4 1 5 0 \, connect 5 0 9 0 \, connect 9 0 6 0;
#X connect 0 0 2 0;
#X connect 2 0 1 0;
#X restore 71 114 pd \$0-connect;
#X obj 90 90 s \$0-construct_out;
#X obj 89 139 r \$0-construct_out;
#X obj 71 41 t b b f;
#N canvas 557 172 523 728 \$0-step_1 0;
#X obj 122 135 list trim;
#X obj 79 380 list trim;
#X obj 93 309 list trim;
#X obj 108 206 f;
#X obj 231 20 inlet;
#X obj 205 405 outlet;
#X msg 108 227 obj 10 40 t b b \, msg 200 57 \$1 \, obj 200 87 makefilename
$%d- \, obj 10 104 select s \, obj 55 134 b;
#X obj 50 20 inlet;
#X obj 93 332 s \$0-step_1_out;
#X obj 79 403 s \$0-step_1_out;
#X obj 122 157 s \$0-step_1_out;
#X obj 108 262 s \$0-step_1_out;
#X obj 137 89 s \$0-step_1_out;
#X obj 205 381 r \$0-step_1_out;
#X obj 122 114 list append obj 10 10 r \$0-getcreationargs_in;
#X obj 79 357 list append obj 10 224 s \$0-getcreationargs_noarg;
#X obj 93 288 list append obj 55 194 s \$0-getcreationargs_thisarg
;
#X obj 64 451 f;
#X obj 64 473 makefilename $%d-;
#X obj 64 515 list trim;
#X obj 64 535 s \$0-step_1_out;
#X obj 64 495 list prepend obj 10 70 symbol;
#X obj 50 581 f;
#X obj 50 606 makefilename $%d;
#X obj 50 628 list prepend obj 55 164 list append;
#X obj 51 648 list trim;
#X obj 51 669 s \$0-step_1_out;
#X obj 50 43 t b b b b b b b;
#X msg 137 67 clear;
#X obj 231 43 s \$0-arg-float;
#X obj 65 560 r \$0-arg-float;
#X obj 79 428 r \$0-arg-float;
#X obj 123 183 r \$0-arg-float;
#X connect 0 0 10 0;
#X connect 1 0 9 0;
#X connect 2 0 8 0;
#X connect 3 0 6 0;
#X connect 4 0 29 0;
#X connect 6 0 11 0;
#X connect 7 0 27 0;
#X connect 13 0 5 0;
#X connect 14 0 0 0;
#X connect 15 0 1 0;
#X connect 16 0 2 0;
#X connect 17 0 18 0;
#X connect 18 0 21 0;
#X connect 19 0 20 0;
#X connect 21 0 19 0;
#X connect 22 0 23 0;
#X connect 23 0 24 0;
#X connect 24 0 25 0;
#X connect 25 0 26 0;
#X connect 27 0 22 0;
#X connect 27 1 17 0;
#X connect 27 2 15 0;
#X connect 27 3 16 0;
#X connect 27 4 3 0;
#X connect 27 5 14 0;
#X connect 27 6 28 0;
#X connect 28 0 12 0;
#X connect 30 0 22 1;
#X connect 31 0 17 1;
#X connect 32 0 3 1;
#X restore 90 68 pd \$0-step_1;
#X connect 0 0 6 0;
#X connect 1 0 2 0;
#X connect 3 0 2 0;
#X connect 5 0 2 0;
#X connect 6 0 3 0;
#X connect 6 1 7 0;
#X connect 6 2 7 1;
#X connect 7 0 4 0;
#X restore 76 164 pd \$0-construct_Iohannes_arg_test;
#X obj 135 315 r \$0-getcreationargs_thisarg;
#X obj 323 315 r \$0-getcreationargs_noarg;
#X obj 56 211 s \$0-getcreationargs_in;
#X obj 37 89 max 0;
#X obj 37 64 route float;
#X obj 37 110 int;
#X obj 37 315 spigot 1;
#X obj 82 262 tgl 15 0 empty empty empty 17 7 0 10 -262144 -1 -1 0
1;
#X obj 37 338 s pd-\$1;
#X obj 135 338 outlet;
#X obj 323 338 outlet;
#X text 116 261 <-- toggle on to see the result of the dynamic patching
;
#X obj 82 290 == 0;
#X text 147 55 Inlet: the argument number.;
#X obj 37 134 t b b f;
#X msg 37 237 clear \, editmode 0;
#N canvas 0 22 450 300 \$0-helper 0;
#X obj 10 10 r 1029-getcreationargs_in;
#X obj 10 40 t b b;
#X msg 200 57 4;
#X obj 200 87 makefilename $%d-;
#X obj 10 104 select s;
#X obj 55 134 b;
#X obj 55 194 s 1029-getcreationargs_thisarg;
#X obj 10 224 s 1029-getcreationargs_noarg;
#X obj 10 70 symbol \$4-;
#X obj 55 164 list append \$4;
#X connect 0 0 1 0;
#X connect 1 0 8 0;
#X connect 1 1 2 0;
#X connect 2 0 3 0;
#X connect 3 0 4 1;
#X connect 4 0 7 0;
#X connect 4 1 5 0;
#X connect 5 0 9 0;
#X connect 8 0 4 0;
#X connect 9 0 6 0;
#X restore 392 164 pd \$0-helper;
#X obj 76 186 s pd-\$0-helper;
#X text 147 27 This subpatch dynamically patches Iohannes's creation
arg test into a helper subpatch.;
#X connect 0 0 6 0;
#X connect 1 0 19 0;
#X connect 2 0 11 0;
#X connect 3 0 12 0;
#X connect 5 0 7 0;
#X connect 6 0 5 0;
#X connect 7 0 16 0;
#X connect 8 0 10 0;
#X connect 9 0 14 0;
#X connect 14 0 8 1;
#X connect 16 0 17 0;
#X connect 16 1 4 0;
#X connect 16 2 1 0;
#X connect 17 0 8 0;
#X restore 65 230 pd \$0-getargs;
#X obj 200 247 s \$0-stop;
#X obj 65 288 list prepend;
#X obj 65 135 until;
#X obj 92 109 r \$0-stop;
#X obj 65 206 f;
#X obj 99 206 + 1;
#X obj 171 99 s \$0-init;
#X obj 80 157 r \$0-init;
#X obj 134 264 r \$0-init;
#X obj 158 288 t a;
#X obj 44 312 list;
#X obj 44 82 t b b b;
#X obj 44 29 loadbang;
#X obj 27 58 bng 15 250 50 0 empty empty empty 17 7 0 10 -262144 -1
-1;
#X msg 80 180 1;
#X obj 44 340 list split 1;
#X obj 112 641 outlet;
#X obj 44 601 prepent dst;
#X obj 78 365 list split 1;
#X obj 176 382 t b b;
#X msg 140 512 1;
#X obj 112 480 prepent guard;
#X obj 112 409 list split 1;
#X msg 203 452 1;
#X text 231 452 <- guard default;
#X text 175 513 <- norm default;
#X obj 78 551 prepent normalize;
#X connect 0 0 2 0;
#X connect 0 1 1 0;
#X connect 2 0 10 0;
#X connect 2 0 11 1;
#X connect 3 0 5 0;
#X connect 4 0 3 1;
#X connect 5 0 0 0;
#X connect 5 0 6 0;
#X connect 6 0 5 1;
#X connect 8 0 15 0;
#X connect 9 0 2 1;
#X connect 10 0 2 1;
#X connect 11 0 16 0;
#X connect 12 0 11 0;
#X connect 12 1 3 0;
#X connect 12 2 7 0;
#X connect 13 0 12 0;
#X connect 14 0 12 0;
#X connect 15 0 5 1;
#X connect 16 0 18 0;
#X connect 16 1 19 0;
#X connect 18 0 17 0;
#X connect 19 0 27 0;
#X connect 19 1 23 0;
#X connect 19 2 20 0;
#X connect 20 0 21 0;
#X connect 20 1 24 0;
#X connect 21 0 27 0;
#X connect 22 0 17 0;
#X connect 23 0 22 0;
#X connect 23 2 24 0;
#X connect 24 0 22 0;
#X connect 27 0 17 0;
#X restore 40 46 pd \$0-args;
#X obj 179 241 outlet;
#X obj 124 270 route float;
#X msg 187 292 1;
#X obj 124 323 != 0;
#X text 161 325 <- force 0 or 1;
#X obj 75 422 s \$0-norm;
#X obj 245 211 r \$0-dst;
#X obj 245 255 expr size("$s1");
#X obj 245 233 symbol;
#X obj 245 278 v \$0-size;
#X obj 179 216 t a b;
#X msg 138 392 1;
#X obj 26 72 route dst normalize guard;
#X connect 0 0 22 0;
#X connect 1 0 4 0;
#X connect 2 0 20 0;
#X connect 3 0 1 0;
#X connect 3 1 2 1;
#X connect 4 0 5 0;
#X connect 5 0 2 0;
#X connect 7 0 15 0;
#X connect 7 1 21 0;
#X connect 9 0 22 0;
#X connect 11 0 13 0;
#X connect 11 1 12 0;
#X connect 12 0 13 0;
#X connect 13 0 8 0;
#X connect 16 0 18 0;
#X connect 17 0 19 0;
#X connect 18 0 17 0;
#X connect 20 0 10 0;
#X connect 20 1 18 0;
#X connect 21 0 15 0;
#X connect 22 0 6 0;
#X connect 22 1 7 0;
#X connect 22 2 11 0;
#X connect 22 3 3 0;
#X restore 41 62 pd \$0-parse;
#X connect 0 0 3 0;
#X connect 1 0 2 0;
#X connect 3 0 1 0;
